<svg width="32" height="32" viewBox="0 0 32 32" fill="none" xmlns="http://www.w3.org/2000/svg">
<g clip-path="url(#clip0_589_3670)">
<path d="M3.55704 18.9473C3.55704 20.697 4.98869 22.1287 6.73848 22.1287C8.48828 22.1287 9.93318 20.697 9.93318 18.9473C9.93318 17.1975 8.48828 15.7658 6.73848 15.7658C4.98869 15.7658 3.55704 17.1975 3.55704 18.9473ZM5.18754 18.9473C5.18754 18.0723 5.87684 17.3963 6.75174 17.3963C7.62664 17.3963 8.30269 18.0723 8.30269 18.9473C8.30269 19.8221 7.62664 20.4982 6.75174 20.4982C5.87684 20.4982 5.18754 19.8221 5.18754 18.9473ZM6.75174 3.55704C6.15522 3.55704 5.678 4.03425 5.678 4.63077V16.8396H7.81222V4.63077C7.81222 4.03425 7.34825 3.55704 6.75174 3.55704ZM6.75174 26.8876C7.34825 26.8876 7.81222 26.4103 7.81222 25.8669V21.2537H5.678V25.8669C5.678 26.4103 6.15522 26.8876 6.75174 26.8876ZM12.4916 11.2853C12.4916 13.0351 13.9365 14.4667 15.6863 14.4667C17.436 14.4667 18.8678 13.0351 18.8678 11.2853C18.8678 9.53549 17.436 8.10384 15.6863 8.10384C13.9365 8.10384 12.4916 9.53549 12.4916 11.2853ZM14.1353 11.2853C14.1353 10.4236 14.8246 9.73433 15.6863 9.73433C16.5612 9.73433 17.2373 10.4236 17.2373 11.2853C17.2373 12.1602 16.5612 12.8362 15.6863 12.8362C14.8246 12.8362 14.1353 12.1602 14.1353 11.2853ZM15.6863 3.55704C15.0897 3.55704 14.6258 4.03425 14.6258 4.57775V9.00525H16.76V4.57775C16.76 4.03425 16.2828 3.55704 15.6863 3.55704ZM15.6863 26.8876C16.2828 26.8876 16.76 26.4103 16.76 25.8139V13.393H14.6258V25.8139C14.6258 26.4103 15.0897 26.8876 15.6863 26.8876ZM21.4526 18.9473C21.4526 20.697 22.8842 22.1287 24.634 22.1287C26.3839 22.1287 27.8155 20.697 27.8155 18.9473C27.8155 17.1975 26.3839 15.7658 24.634 15.7658C22.8842 15.7658 21.4526 17.1975 21.4526 18.9473ZM23.0831 18.9473C23.0831 18.0723 23.7724 17.3963 24.634 17.3963C25.5222 17.3963 26.185 18.0723 26.185 18.9473C26.185 19.8221 25.5222 20.4982 24.634 20.4982C23.7724 20.4982 23.0831 19.8221 23.0831 18.9473ZM24.634 3.55704C24.0376 3.55704 23.5603 4.03425 23.5603 4.63077V16.9058H25.6945V4.63077C25.6945 4.03425 25.2306 3.55704 24.634 3.55704ZM24.634 26.8876C25.2306 26.8876 25.6945 26.4103 25.6945 25.8669V21.0682H23.5603V25.8669C23.5603 26.4103 24.0376 26.8876 24.634 26.8876Z" fill="black" fill-opacity="0.85"/>
</g>
<defs>
<clipPath id="clip0_589_3670">
<rect width="24.2584" height="24.6163" fill="white" transform="translate(3.55704 3.55704)"/>
</clipPath>
</defs>
</svg>
