<svg width="25" height="24" viewBox="0 0 25 24" fill="none" xmlns="http://www.w3.org/2000/svg">
<path d="M0 15.3902C0 17.1399 1.43164 18.5717 3.18144 18.5717C4.93123 18.5717 6.37613 17.1399 6.37613 15.3902C6.37613 13.6404 4.93123 12.2088 3.18144 12.2088C1.43164 12.2088 0 13.6404 0 15.3902ZM1.63049 15.3902C1.63049 14.5153 2.3198 13.8393 3.19469 13.8393C4.06959 13.8393 4.74564 14.5153 4.74564 15.3902C4.74564 16.2651 4.06959 16.9412 3.19469 16.9412C2.3198 16.9412 1.63049 16.2651 1.63049 15.3902ZM3.19469 0C2.59818 0 2.12096 0.477216 2.12096 1.07374V13.2825H4.25517V1.07374C4.25517 0.477216 3.79121 0 3.19469 0ZM3.19469 23.3305C3.79121 23.3305 4.25517 22.8533 4.25517 22.3099V17.6967H2.12096V22.3099C2.12096 22.8533 2.59818 23.3305 3.19469 23.3305ZM8.93454 7.72824C8.93454 9.47803 10.3794 10.9097 12.1293 10.9097C13.879 10.9097 15.3107 9.47803 15.3107 7.72824C15.3107 5.97845 13.879 4.5468 12.1293 4.5468C10.3794 4.5468 8.93454 5.97845 8.93454 7.72824ZM10.5783 7.72824C10.5783 6.8666 11.2676 6.17729 12.1293 6.17729C13.0041 6.17729 13.6802 6.8666 13.6802 7.72824C13.6802 8.60314 13.0041 9.27919 12.1293 9.27919C11.2676 9.27919 10.5783 8.60314 10.5783 7.72824ZM12.1293 0C11.5327 0 11.0688 0.477216 11.0688 1.02071V5.44822H13.203V1.02071C13.203 0.477216 12.7257 0 12.1293 0ZM12.1293 23.3305C12.7257 23.3305 13.203 22.8533 13.203 22.2568V9.83594H11.0688V22.2568C11.0688 22.8533 11.5327 23.3305 12.1293 23.3305ZM17.8956 15.3902C17.8956 17.1399 19.3272 18.5717 21.077 18.5717C22.8268 18.5717 24.2584 17.1399 24.2584 15.3902C24.2584 13.6404 22.8268 12.2088 21.077 12.2088C19.3272 12.2088 17.8956 13.6404 17.8956 15.3902ZM19.526 15.3902C19.526 14.5153 20.2154 13.8393 21.077 13.8393C21.9652 13.8393 22.628 14.5153 22.628 15.3902C22.628 16.2651 21.9652 16.9412 21.077 16.9412C20.2154 16.9412 19.526 16.2651 19.526 15.3902ZM21.077 0C20.4805 0 20.0033 0.477216 20.0033 1.07374V13.3488H22.1375V1.07374C22.1375 0.477216 21.6736 0 21.077 0ZM21.077 23.3305C21.6736 23.3305 22.1375 22.8533 22.1375 22.3099V17.5112H20.0033V22.3099C20.0033 22.8533 20.4805 23.3305 21.077 23.3305Z" fill="black" fill-opacity="0.85"/>
</svg>
