<svg width="193" height="34" viewBox="0 0 193 34" fill="none" xmlns="http://www.w3.org/2000/svg">
<path d="M10.2575 25.1424C8.41406 25.1424 6.80011 24.8807 5.43004 24.364C4.05998 23.8473 2.90511 23.1628 1.98695 22.3173C1.06162 21.4718 0.401694 20.5458 0 19.5393L3.522 18.1771C4.08867 19.244 4.94944 20.1096 6.08997 20.7672C7.23049 21.4249 8.48579 21.7537 9.86302 21.7537C11.4411 21.7537 12.761 21.4651 13.8369 20.8813C14.9129 20.3042 15.4437 19.4789 15.4437 18.4119C15.4437 17.4389 15.0492 16.6538 14.2601 16.0566C13.4711 15.4594 12.3091 14.9762 10.7668 14.6005L8.3495 13.9898C6.06845 13.4261 4.28952 12.5739 3.01988 11.4265C1.74306 10.279 1.10466 8.99062 1.10466 7.54119C1.10466 5.31336 1.88653 3.5821 3.44309 2.34069C4.99966 1.10599 7.31657 0.488637 10.4082 0.488637C11.8858 0.488637 13.2272 0.689947 14.4323 1.09928C15.6374 1.50861 16.6775 2.07898 17.5526 2.81712C18.4277 3.55526 19.0589 4.4276 19.4678 5.42744L15.9458 6.88358C15.5083 5.81664 14.7909 5.05166 13.7867 4.57523C12.7825 4.1055 11.5559 3.87064 10.1141 3.87064C8.57186 3.87064 7.36678 4.17932 6.49166 4.78996C5.61654 5.4006 5.18616 6.25952 5.18616 7.3533C5.18616 7.98407 5.54481 8.56787 6.2693 9.11812C6.98661 9.66837 8.0554 10.1112 9.46133 10.4602L11.9791 11.0708C13.6217 11.4466 14.999 12.0036 16.1036 12.7417C17.2083 13.4798 18.0475 14.3186 18.6214 15.2581C19.1952 16.1975 19.475 17.2041 19.475 18.271C19.475 19.6802 19.0733 20.9082 18.2699 21.9416C17.4665 22.9749 16.3762 23.7668 14.999 24.317C13.6217 24.8673 12.0508 25.1424 10.2719 25.1424H10.2575Z" fill="#1A1A1A"/>
<path d="M77.6555 3.58211C77.9568 3.2466 78.3011 2.93121 78.6741 2.62254C80.3885 1.24021 82.6337 0.455099 84.8932 0.408127C87.1527 0.361155 89.5629 0.616147 91.4853 1.79716C92.9127 2.67622 93.9385 4.01157 94.5769 5.79652C95.2798 4.07197 96.3128 2.75674 97.6685 1.84414C99.0242 0.931533 100.645 0.481941 102.525 0.481941C105.344 0.481941 107.56 1.36099 109.189 3.1191C110.817 4.87721 111.613 7.54121 111.577 11.1178V24.5787H107.553V12.5337C107.553 10.2119 107.295 8.44039 106.771 7.21911C106.248 5.99783 105.552 5.15904 104.684 4.70274C103.809 4.24643 102.804 4.01828 101.664 4.01828C99.6841 4.01828 98.1419 4.74971 97.0373 6.20585C95.9326 7.66199 95.3803 9.72877 95.3803 12.3928V24.5787H91.3562V12.5337C91.3562 10.2119 91.0979 8.44039 90.5743 7.21911C90.0507 5.99783 89.3477 5.15904 88.4582 4.70274C87.5688 4.24643 86.5574 4.01828 85.4168 4.01828C83.4729 4.01828 81.945 4.74971 80.8404 6.20585C79.7357 7.66199 79.1834 9.72877 79.1834 12.3928V24.5787H75.1593V12.2854C75.1593 9.10471 75.4534 5.99783 77.6483 3.58211H77.6555Z" fill="#1A1A1A"/>
<path d="M118.787 4.18602C120.724 1.88437 123.758 0.294026 126.85 0.0390332C129.21 -0.155566 131.591 0.38797 133.672 1.43478C134.045 1.62267 134.41 1.83069 134.769 2.04542C136.476 3.07881 137.81 4.52153 138.772 6.37358C139.726 8.22563 140.206 10.3729 140.206 12.8222C140.206 15.2715 139.726 17.3785 138.772 19.244C137.818 21.1095 136.483 22.5589 134.769 23.599C133.062 24.6324 131.082 25.1491 128.837 25.1491C126.993 25.1491 125.351 24.7465 123.909 23.9479C122.467 23.1494 121.276 22.0422 120.337 20.633V34H116.313C116.313 29.5108 116.313 25.0149 116.313 20.5257C116.313 18.9554 116.313 17.3852 116.313 15.8217C116.313 14.2582 116.262 12.7417 116.262 11.0708C116.262 9.14495 116.851 7.22579 117.841 5.5415C118.113 5.07178 118.436 4.62219 118.795 4.19944L118.787 4.18602ZM127.926 21.7134C129.504 21.7134 130.903 21.3376 132.129 20.5861C133.356 19.8345 134.324 18.7877 135.049 17.459C135.766 16.1237 136.132 14.5803 136.132 12.8222C136.132 11.0641 135.788 9.56099 135.099 8.21221C134.41 6.86344 133.456 5.80992 132.23 5.05836C131.003 4.3068 129.59 3.93102 127.976 3.93102C126.498 3.93102 125.186 4.3068 124.031 5.05836C122.876 5.80992 121.965 6.85673 121.312 8.18537C120.66 9.52073 120.33 11.0641 120.33 12.8222C120.33 14.5803 120.66 16.0834 121.312 17.4322C121.965 18.781 122.862 19.8345 124.002 20.5861C125.143 21.3376 126.448 21.7134 127.926 21.7134Z" fill="#1A1A1A"/>
<path d="M145.508 5.21937C146.591 3.87059 148.578 2.60234 150.235 2.06552C152.25 1.4079 153.879 1.30054 155.622 1.30054V4.83017C154.144 4.83017 153.778 4.8503 152.444 5.17911C151.045 5.52133 149.969 6.38026 149.101 7.41365C148.226 8.44704 147.796 9.86292 147.796 11.6479V24.5854H143.772C143.772 24.5854 143.772 14.4528 143.772 10.7084C143.772 9.23215 144.482 6.49433 145.508 5.22608V5.21937Z" fill="#1A1A1A"/>
<path d="M70.2532 1.05227V7.87667C70.2532 8.90335 70.2891 9.95016 70.3106 11.0104V1.05227H70.2532Z" fill="#1A1A1A"/>
<path d="M59.3502 25.1491C57.3991 25.1491 54.6877 24.78 53.2315 24.0419C51.7682 23.3037 50.6348 22.1294 49.8099 20.5122C48.985 18.895 48.5762 16.8014 48.5762 14.2314V1.05227H52.6003V13.0973C52.6003 15.4191 52.8872 17.1906 53.4539 18.4186C54.0277 19.6399 54.8239 20.4787 55.8425 20.935C56.8683 21.3913 58.016 21.6194 59.2928 21.6194H59.6084C60.8781 21.6194 62.0329 21.3913 63.0515 20.935C64.0773 20.4787 64.8735 19.6399 65.4401 18.4186C66.014 17.1906 66.2937 15.4191 66.2937 13.0973V1.05227H70.2605V7.87667C70.2605 8.90335 70.2963 9.95016 70.3179 11.0104V14.2314C70.3179 16.8014 69.909 18.895 69.0913 20.5122C68.2664 22.1294 67.1258 23.3037 65.6697 24.0419C64.2064 24.78 61.954 25.1491 60.0101 25.1491H59.3502Z" fill="#1A1A1A"/>
<path d="M33.7279 0.448314C35.6789 0.448314 38.3904 0.817382 39.8465 1.55552C41.3098 2.29365 42.4432 3.46796 43.2681 5.08515C44.093 6.70234 44.5019 8.79596 44.5019 11.366V24.5451H40.4777V12.5001C40.4777 10.1783 40.1908 8.40676 39.6241 7.17877C39.0503 5.95749 38.2541 5.1187 37.2355 4.6624C36.2097 4.2061 35.062 3.97795 33.7852 3.97795H33.4696C32.2 3.97795 31.0451 4.2061 30.0265 4.6624C29.0008 5.1187 28.2046 5.95749 27.6379 7.17877C27.064 8.40676 26.7843 10.1783 26.7843 12.5001V24.5451H22.8176V17.7207C22.8176 16.694 22.7817 15.6472 22.7602 14.587V11.366C22.7602 8.79596 23.169 6.70234 23.9868 5.08515C24.8117 3.46796 25.9522 2.29365 27.4083 1.55552C28.8717 0.817382 31.124 0.448314 33.0679 0.448314H33.7279Z" fill="#1A1A1A"/>
<path d="M160.068 33.376V16.8351H161.581V33.376H160.068Z" fill="#1A1A1A"/>
<path d="M171.588 33.1141C170.562 33.6308 169.608 33.6576 169.063 33.6643C168.453 33.6711 166.861 33.6778 165.591 32.7048C164.759 32.0673 164.343 31.1815 164.343 30.0475C164.343 28.9134 164.759 27.974 165.591 27.3298C166.423 26.6856 167.585 26.3635 169.063 26.3635H172.8C172.735 25.102 172.42 24.1558 171.867 23.525C171.315 22.8943 170.462 22.5789 169.314 22.5789C168.553 22.5789 167.922 22.7198 167.406 23.0016C166.889 23.2835 166.466 23.7264 166.129 24.3236L164.766 23.7532C165.118 23.1895 165.519 22.7198 165.964 22.3574C166.409 21.9951 166.911 21.7267 167.47 21.5455C168.023 21.3643 168.64 21.2771 169.314 21.2771C170.44 21.2771 171.38 21.4918 172.119 21.9146C172.857 22.3373 173.417 22.9748 173.783 23.827C174.278 24.9611 174.349 25.9005 174.335 27.0413C174.321 28.437 174.299 30.8729 172.664 32.3625C172.183 32.7987 171.667 33.0671 171.581 33.1074L171.588 33.1141ZM168.955 32.3625C169.766 32.3625 170.462 32.2082 171.043 31.8995C171.624 31.5909 172.068 31.1413 172.37 30.5373C172.671 29.9401 172.821 29.1953 172.821 28.3162V27.6519H169.256C168.044 27.6519 167.169 27.8599 166.645 28.276C166.115 28.692 165.849 29.2825 165.849 30.0341C165.849 30.7856 166.122 31.3292 166.667 31.7385C167.212 32.1478 167.98 32.3558 168.955 32.3558V32.3625Z" fill="#1A1A1A"/>
<path d="M178.588 32.2283C178.243 31.9062 177.677 31.0205 177.39 30.3092C176.924 29.1483 176.888 28.4034 176.888 27.0278C176.888 22.297 176.859 17.3113 176.866 16.8281H178.38V23.7062C178.867 22.9479 179.492 22.3574 180.252 21.9213C181.012 21.4851 181.866 21.2704 182.827 21.2704C183.939 21.2704 184.922 21.5321 185.782 22.0622C186.643 22.5923 187.317 23.317 187.805 24.2497C188.293 25.1825 188.537 26.2494 188.537 27.464C188.537 28.6786 188.293 29.7321 187.805 30.6648C187.317 31.6043 186.643 32.3357 185.782 32.8658C185.553 33.0067 185.309 33.1342 185.058 33.2349C184.097 33.6375 183.25 33.6576 182.827 33.6576C180.869 33.6576 179.542 33.1208 178.588 32.2283ZM182.526 32.3827C183.401 32.3827 184.176 32.1746 184.85 31.7586C185.524 31.3426 186.055 30.7588 186.442 30.0206C186.83 29.2825 187.023 28.4303 187.023 27.4707C187.023 26.5111 186.837 25.6589 186.457 24.9208C186.076 24.1826 185.553 23.5988 184.879 23.1828C184.204 22.7668 183.43 22.5587 182.554 22.5587C181.744 22.5587 181.027 22.7668 180.395 23.1828C179.764 23.5988 179.269 24.1826 178.918 24.9208C178.566 25.6589 178.387 26.5111 178.387 27.4707C178.387 28.4303 178.566 29.2825 178.918 30.0206C179.269 30.7588 179.757 31.3426 180.381 31.7586C181.005 32.1746 181.722 32.3827 182.526 32.3827Z" fill="#1A1A1A"/>
<path d="M191.091 33.7049C190.768 33.7049 190.495 33.5975 190.273 33.3828C190.051 33.168 189.929 32.913 189.929 32.6177C189.929 32.3224 190.044 32.0607 190.273 31.8526C190.503 31.6446 190.775 31.5305 191.091 31.5305C191.407 31.5305 191.686 31.6379 191.909 31.8526C192.131 32.0674 192.253 32.3224 192.253 32.6177C192.253 32.913 192.138 33.1747 191.909 33.3828C191.679 33.5908 191.407 33.7049 191.091 33.7049Z" fill="#1A1A1A"/>
</svg>
