<?xml version="1.0" encoding="UTF-8"?>
<svg id="Layer_2" data-name="Layer 2" xmlns="http://www.w3.org/2000/svg" viewBox="0 0 784.12 67.09">
  <g id="_레이어_1" data-name="레이어 1">
    <g>
      <g>
        <g>
          <path d="M52.18,31.66V1.14h5.41l9.59,14.13,9.5-14.13h5.45v30.52h-5.06V9.12l-9.94,14.69-9.9-14.61v22.46h-5.06Z"/>
          <path d="M95.06,32.18c-2.62,0-4.64-.58-6.08-1.75-1.44-1.16-2.16-2.8-2.16-4.93,0-2.27.76-4,2.29-5.19,1.53-1.19,3.66-1.79,6.39-1.79h5.54c-.17-1.6-.63-2.82-1.35-3.66-.73-.84-1.8-1.26-3.23-1.26-1.05,0-1.96.22-2.75.66-.79.44-1.45,1.12-2,2.05l-4.27-1.57c.47-.96,1.08-1.85,1.85-2.68.77-.83,1.74-1.49,2.92-1.98,1.18-.49,2.59-.74,4.25-.74,2.12,0,3.89.42,5.32,1.24,1.42.83,2.48,2.01,3.16,3.55.68,1.54,1.03,3.4,1.03,5.58l-.13,11.95h-4.49l-.13-2.66c-.58,1.02-1.39,1.8-2.42,2.35-1.03.55-2.28.83-3.73.83ZM95.67,28.08c1.07,0,2.03-.24,2.86-.72.83-.48,1.47-1.13,1.92-1.94.45-.81.67-1.71.67-2.7v-.44h-4.05c-1.95,0-3.31.27-4.1.81-.79.54-1.18,1.3-1.18,2.29,0,.85.34,1.5,1.03,1.98.68.48,1.63.72,2.86.72Z"/>
          <path d="M121.2,32.18c-2.24,0-4.22-.49-5.93-1.46-1.72-.97-3.06-2.32-4.03-4.04-.98-1.71-1.46-3.69-1.46-5.93s.48-4.22,1.46-5.93c.97-1.72,2.31-3.06,4.01-4.04,1.7-.97,3.66-1.46,5.87-1.46s4.1.52,5.84,1.55c1.74,1.03,3.04,2.51,3.88,4.42l-4.53,1.74c-.47-.96-1.18-1.73-2.14-2.31-.96-.58-2.05-.87-3.27-.87s-2.25.3-3.18.89-1.65,1.41-2.18,2.44-.79,2.22-.79,3.55.27,2.52.81,3.55c.54,1.03,1.28,1.85,2.22,2.44.95.6,2.01.89,3.21.89s2.31-.31,3.27-.94,1.67-1.47,2.14-2.55l4.54,1.75c-.85,1.98-2.13,3.52-3.86,4.62s-3.68,1.66-5.87,1.66Z"/>
          <path d="M134.44,31.66V1.14h4.88v11.68c.72-1.13,1.64-2,2.74-2.59s2.35-.89,3.75-.89c1.72,0,3.2.35,4.45,1.05,1.25.7,2.2,1.78,2.86,3.25.66,1.47.98,3.38.98,5.74v12.3h-4.88v-11.16c0-1.74-.2-3.09-.61-4.03-.41-.95-.97-1.6-1.68-1.98-.71-.38-1.54-.57-2.47-.57-1.65-.03-2.93.51-3.81,1.61-.89,1.1-1.33,2.69-1.33,4.75v11.38h-4.88Z"/>
          <path d="M161.68,5.71c-.79,0-1.46-.28-2.03-.85s-.85-1.24-.85-2.03.28-1.45.85-2.01c.57-.55,1.24-.83,2.03-.83s1.46.28,2.03.83c.57.55.85,1.22.85,2.01s-.28,1.46-.85,2.03-1.24.85-2.03.85ZM159.24,31.66V9.86h4.84v21.8h-4.84Z"/>
          <path d="M169.48,31.66V9.86h4.58l.22,3.1c.7-1.16,1.6-2.06,2.73-2.68,1.12-.62,2.4-.94,3.86-.94,1.74,0,3.23.35,4.47,1.05,1.23.7,2.18,1.78,2.84,3.25.65,1.47.98,3.38.98,5.74v12.3h-4.88v-11.16c0-1.74-.2-3.09-.59-4.03-.39-.95-.94-1.6-1.65-1.98-.71-.38-1.55-.57-2.51-.57-1.63-.03-2.89.51-3.79,1.61-.9,1.1-1.35,2.69-1.35,4.75v11.38h-4.88Z"/>
          <path d="M203.93,32.18c-2.12,0-4.01-.49-5.65-1.46s-2.93-2.32-3.88-4.04c-.94-1.71-1.41-3.69-1.41-5.93s.48-4.22,1.44-5.93c.96-1.72,2.27-3.06,3.95-4.04,1.67-.97,3.58-1.46,5.73-1.46,1.95,0,3.71.5,5.28,1.51,1.57,1,2.81,2.45,3.73,4.34.92,1.89,1.37,4.14,1.37,6.76h-16.44c.14,1.83.82,3.27,2.03,4.32,1.21,1.05,2.64,1.57,4.29,1.57,1.34,0,2.44-.3,3.31-.89s1.55-1.38,2.05-2.34l4.32,1.83c-.61,1.16-1.39,2.18-2.33,3.05-.94.87-2.06,1.54-3.36,2.01s-2.77.7-4.42.7ZM198.35,18.18h10.86c-.09-1.05-.39-1.91-.92-2.59-.52-.68-1.16-1.2-1.92-1.55-.75-.35-1.55-.52-2.4-.52s-1.63.17-2.46.5-1.53.85-2.12,1.55c-.58.7-.93,1.57-1.04,2.62Z"/>
          <path d="M229.57,31.66V1.14h10.77c2.06,0,3.9.42,5.52,1.26,1.61.84,2.87,2.01,3.77,3.51s1.35,3.24,1.35,5.21-.42,3.67-1.26,5.17-2.02,2.67-3.53,3.53c-1.51.86-3.24,1.28-5.19,1.28h-6.37v10.55h-5.06ZM234.62,16.44h6.28c1.45,0,2.64-.49,3.58-1.48.93-.99,1.4-2.27,1.4-3.84s-.52-2.89-1.57-3.88c-1.04-.99-2.4-1.48-4.05-1.48h-5.62v10.68Z"/>
          <path d="M263.78,32.18c-2.12,0-4.01-.49-5.65-1.46s-2.93-2.32-3.88-4.04c-.94-1.71-1.41-3.69-1.41-5.93s.48-4.22,1.44-5.93c.96-1.72,2.27-3.06,3.95-4.04,1.67-.97,3.58-1.46,5.73-1.46,1.95,0,3.71.5,5.28,1.51,1.57,1,2.81,2.45,3.73,4.34.92,1.89,1.37,4.14,1.37,6.76h-16.44c.14,1.83.82,3.27,2.03,4.32,1.21,1.05,2.64,1.57,4.29,1.57,1.34,0,2.44-.3,3.31-.89s1.55-1.38,2.05-2.34l4.32,1.83c-.61,1.16-1.39,2.18-2.33,3.05-.94.87-2.06,1.54-3.36,2.01s-2.77.7-4.42.7ZM258.2,18.18h10.86c-.09-1.05-.39-1.91-.92-2.59-.52-.68-1.16-1.2-1.92-1.55-.75-.35-1.55-.52-2.4-.52s-1.63.17-2.46.5-1.53.85-2.12,1.55c-.58.7-.93,1.57-1.04,2.62Z"/>
          <path d="M278.1,31.66V9.86h4.88v3.97c.87-1.37,2.01-2.38,3.4-3.05s2.83-1.01,4.32-1.01v4.67c-1.34,0-2.6.18-3.77.54s-2.13.95-2.86,1.77c-.73.82-1.09,1.89-1.09,3.23v11.69h-4.88Z"/>
          <path d="M303.5,32.18c-2.24,0-4.22-.49-5.93-1.46-1.72-.97-3.06-2.32-4.03-4.04-.98-1.71-1.46-3.69-1.46-5.93s.48-4.22,1.46-5.93c.97-1.72,2.31-3.06,4.01-4.04,1.7-.97,3.66-1.46,5.87-1.46s4.1.52,5.84,1.55c1.74,1.03,3.04,2.51,3.88,4.42l-4.53,1.74c-.47-.96-1.18-1.73-2.14-2.31-.96-.58-2.05-.87-3.27-.87s-2.25.3-3.18.89-1.65,1.41-2.18,2.44-.79,2.22-.79,3.55.27,2.52.81,3.55c.54,1.03,1.28,1.85,2.22,2.44.95.6,2.01.89,3.21.89s2.31-.31,3.27-.94,1.67-1.47,2.14-2.55l4.54,1.75c-.85,1.98-2.13,3.52-3.86,4.62-1.73,1.1-3.68,1.66-5.87,1.66Z"/>
          <path d="M326.44,32.18c-2.12,0-4.01-.49-5.65-1.46s-2.93-2.32-3.88-4.04c-.94-1.71-1.41-3.69-1.41-5.93s.48-4.22,1.44-5.93c.96-1.72,2.27-3.06,3.95-4.04,1.67-.97,3.58-1.46,5.73-1.46,1.95,0,3.71.5,5.28,1.51,1.57,1,2.81,2.45,3.73,4.34.92,1.89,1.37,4.14,1.37,6.76h-16.44c.14,1.83.82,3.27,2.03,4.32,1.21,1.05,2.64,1.57,4.29,1.57,1.34,0,2.44-.3,3.31-.89s1.55-1.38,2.05-2.34l4.32,1.83c-.61,1.16-1.39,2.18-2.33,3.05-.94.87-2.06,1.54-3.36,2.01s-2.77.7-4.42.7ZM320.86,18.18h10.86c-.09-1.05-.39-1.91-.92-2.59-.52-.68-1.16-1.2-1.92-1.55-.75-.35-1.55-.52-2.4-.52s-1.63.17-2.46.5-1.53.85-2.12,1.55c-.58.7-.93,1.57-1.04,2.62Z"/>
          <path d="M340.88,40.37V9.86h4.58l.22,3.31c.76-1.22,1.72-2.16,2.9-2.84,1.18-.67,2.54-1,4.08-1,1.98,0,3.7.47,5.17,1.42,1.47.94,2.61,2.27,3.44,3.97s1.24,3.71,1.24,6.04-.42,4.3-1.24,6.02c-.83,1.72-1.98,3.05-3.44,3.99-1.47.94-3.19,1.42-5.17,1.42-1.51,0-2.85-.33-4.01-1s-2.12-1.59-2.88-2.75v11.95h-4.88ZM351.43,27.73c1.16,0,2.19-.3,3.1-.89.9-.6,1.62-1.42,2.16-2.46.54-1.05.81-2.25.81-3.62s-.26-2.57-.76-3.62c-.51-1.04-1.22-1.86-2.12-2.44-.9-.58-1.95-.87-3.14-.87-1.11,0-2.09.3-2.96.89-.87.6-1.55,1.42-2.03,2.46-.48,1.05-.72,2.24-.72,3.58s.24,2.57.72,3.62c.48,1.04,1.15,1.87,2.01,2.46s1.84.89,2.94.89Z"/>
          <path d="M374.6,32.18c-2.3,0-4.05-.57-5.25-1.72s-1.81-2.8-1.81-4.95v-11.47h-3.62v-4.19h3.62V3.05h4.84v6.8h5.89v4.19h-5.89v10.55c0,1.02.24,1.79.72,2.31.48.52,1.19.79,2.12.79.29,0,.61-.06.96-.18.35-.11.74-.33,1.18-.65l1.79,3.7c-.76.52-1.51.92-2.27,1.2-.76.28-1.51.42-2.27.42Z"/>
          <path d="M385.33,5.71c-.79,0-1.46-.28-2.03-.85s-.85-1.24-.85-2.03.28-1.45.85-2.01c.57-.55,1.24-.83,2.03-.83s1.46.28,2.03.83c.57.55.85,1.22.85,2.01s-.28,1.46-.85,2.03-1.24.85-2.03.85ZM382.89,31.66V9.86h4.84v21.8h-4.84Z"/>
          <path d="M403.17,32.18c-2.21,0-4.16-.49-5.84-1.46s-3.01-2.32-3.97-4.04c-.96-1.71-1.44-3.69-1.44-5.93s.47-4.22,1.41-5.93c.95-1.72,2.26-3.06,3.95-4.04,1.69-.97,3.6-1.46,5.75-1.46s4.16.49,5.84,1.46c1.69.98,3,2.32,3.95,4.04.94,1.71,1.41,3.69,1.41,5.93s-.47,4.22-1.41,5.93c-.95,1.72-2.25,3.06-3.92,4.04-1.67.97-3.58,1.46-5.74,1.46ZM403.17,27.69c1.22,0,2.29-.3,3.21-.89.91-.6,1.63-1.41,2.16-2.44.52-1.03.79-2.23.79-3.6s-.26-2.56-.79-3.6c-.52-1.03-1.25-1.85-2.2-2.44-.94-.6-2.03-.89-3.25-.89s-2.3.3-3.23.89-1.65,1.41-2.18,2.44-.79,2.23-.79,3.6.27,2.56.81,3.6c.54,1.03,1.28,1.85,2.22,2.44.95.6,2.03.89,3.25.89Z"/>
          <path d="M418.36,31.66V9.86h4.58l.22,3.1c.7-1.16,1.6-2.06,2.73-2.68,1.12-.62,2.4-.94,3.86-.94,1.74,0,3.23.35,4.47,1.05,1.23.7,2.18,1.78,2.84,3.25.65,1.47.98,3.38.98,5.74v12.3h-4.88v-11.16c0-1.74-.2-3.09-.59-4.03-.39-.95-.94-1.6-1.65-1.98-.71-.38-1.55-.57-2.51-.57-1.63-.03-2.89.51-3.79,1.61-.9,1.1-1.35,2.69-1.35,4.75v11.38h-4.88Z"/>
          <path d="M461.83,32.27c-1.78,0-3.34-.35-4.71-1.04s-2.44-1.66-3.23-2.88c-.79-1.22-1.18-2.61-1.18-4.19,0-1.16.22-2.23.67-3.2.45-.97,1.05-1.87,1.81-2.68.76-.81,1.61-1.54,2.57-2.18l5.01-3.45c.58-.41,1.18-.84,1.79-1.31.61-.47,1.14-1.01,1.59-1.61.45-.61.68-1.31.68-2.09,0-.96-.34-1.71-1.03-2.27-.68-.55-1.55-.83-2.59-.83-.93,0-1.72.29-2.38.87-.65.58-.98,1.31-.98,2.18,0,.78.25,1.48.74,2.09.49.61,1.07,1.34,1.75,2.18l5.62,6.76,10.77,13.04h-5.8l-8.63-10.33-5.76-6.98c-.75-.96-1.4-1.81-1.92-2.55-.52-.74-.91-1.45-1.16-2.14-.25-.68-.37-1.39-.37-2.12,0-1.34.35-2.54,1.07-3.6.71-1.06,1.66-1.9,2.86-2.51,1.19-.61,2.53-.92,4.01-.92,1.63,0,3.07.3,4.34.92,1.26.61,2.26,1.45,2.99,2.53s1.09,2.33,1.09,3.75c0,1.16-.3,2.25-.92,3.27-.61,1.02-1.47,2-2.59,2.96s-2.43,1.98-3.95,3.05l-3.14,2.14c-.55.38-1.06.8-1.53,1.27s-.84.99-1.13,1.57c-.29.58-.44,1.28-.44,2.09,0,1.16.4,2.11,1.2,2.86.8.74,1.84,1.11,3.12,1.11s2.62-.22,3.86-.66c1.23-.44,2.34-1.07,3.31-1.9.97-.83,1.74-1.84,2.29-3.03.55-1.19.83-2.54.83-4.05h4.67c0,2.68-.66,5.06-1.96,7.15-1.31,2.09-3.11,3.74-5.38,4.93-2.28,1.19-4.91,1.79-7.87,1.79Z"/>
          <path d="M492.87,31.66V1.14h10.77c2.09,0,3.94.41,5.54,1.22,1.6.82,2.85,1.94,3.75,3.38s1.35,3.1,1.35,4.99c0,2.01-.55,3.77-1.66,5.3-1.1,1.53-2.56,2.65-4.36,3.38l7.24,12.25h-5.71l-6.54-11.29c-.17.03-.36.05-.54.05h-4.78v11.25h-5.06ZM497.93,15.74h5.93c.99,0,1.87-.22,2.64-.66.77-.44,1.4-1.03,1.87-1.79.48-.76.72-1.61.72-2.57,0-1.45-.52-2.64-1.57-3.57-1.05-.93-2.4-1.4-4.05-1.4h-5.54v9.98Z"/>
          <path d="M528.51,32.18c-2.12,0-4.01-.49-5.65-1.46s-2.93-2.32-3.88-4.04c-.94-1.71-1.41-3.69-1.41-5.93s.48-4.22,1.44-5.93c.96-1.72,2.27-3.06,3.95-4.04,1.67-.97,3.58-1.46,5.73-1.46,1.95,0,3.71.5,5.28,1.51,1.57,1,2.81,2.45,3.73,4.34.92,1.89,1.37,4.14,1.37,6.76h-16.44c.14,1.83.82,3.27,2.03,4.32,1.21,1.05,2.64,1.57,4.29,1.57,1.34,0,2.44-.3,3.31-.89s1.55-1.38,2.05-2.34l4.32,1.83c-.61,1.16-1.39,2.18-2.33,3.05-.94.87-2.06,1.54-3.36,2.01s-2.77.7-4.42.7ZM522.92,18.18h10.86c-.09-1.05-.39-1.91-.92-2.59-.52-.68-1.16-1.2-1.92-1.55-.75-.35-1.55-.52-2.4-.52s-1.63.17-2.46.5-1.53.85-2.12,1.55c-.58.7-.93,1.57-1.04,2.62Z"/>
          <path d="M549.88,32.18c-2.62,0-4.64-.58-6.08-1.75-1.44-1.16-2.16-2.8-2.16-4.93,0-2.27.76-4,2.29-5.19,1.53-1.19,3.66-1.79,6.39-1.79h5.54c-.17-1.6-.63-2.82-1.35-3.66-.73-.84-1.8-1.26-3.23-1.26-1.05,0-1.96.22-2.75.66-.79.44-1.45,1.12-2,2.05l-4.27-1.57c.47-.96,1.08-1.85,1.85-2.68.77-.83,1.74-1.49,2.92-1.98,1.18-.49,2.59-.74,4.25-.74,2.12,0,3.89.42,5.32,1.24,1.42.83,2.48,2.01,3.16,3.55.68,1.54,1.03,3.4,1.03,5.58l-.13,11.95h-4.49l-.13-2.66c-.58,1.02-1.39,1.8-2.42,2.35-1.03.55-2.28.83-3.73.83ZM550.49,28.08c1.07,0,2.03-.24,2.86-.72.83-.48,1.47-1.13,1.92-1.94.45-.81.67-1.71.67-2.7v-.44h-4.05c-1.95,0-3.31.27-4.1.81-.79.54-1.18,1.3-1.18,2.29,0,.85.34,1.5,1.03,1.98.68.48,1.63.72,2.86.72Z"/>
          <path d="M573.32,32.18c-1.45,0-2.79-.22-4.01-.66-1.22-.44-2.27-1.05-3.14-1.85s-1.54-1.74-2-2.81l4.23-1.88c.44.82,1.08,1.5,1.94,2.05s1.81.83,2.86.83c1.13,0,2.04-.2,2.73-.59.68-.39,1.03-.94,1.03-1.63s-.26-1.19-.79-1.55c-.52-.36-1.26-.66-2.22-.89l-2.05-.57c-2.06-.52-3.68-1.36-4.84-2.51s-1.74-2.46-1.74-3.95c0-2.18.7-3.86,2.11-5.06,1.41-1.19,3.44-1.79,6.08-1.79,1.34,0,2.56.2,3.68.59s2.09.94,2.9,1.66c.82.71,1.38,1.55,1.7,2.51l-4.05,1.83c-.29-.72-.85-1.28-1.66-1.68-.82-.39-1.72-.59-2.71-.59s-1.76.21-2.31.63c-.55.42-.83,1.01-.83,1.77,0,.44.25.84.74,1.2.49.36,1.21.66,2.14.89l2.57.61c1.42.35,2.59.89,3.49,1.63s1.57,1.57,2,2.49c.44.91.66,1.84.66,2.77,0,1.31-.37,2.46-1.11,3.45-.74.99-1.75,1.75-3.03,2.29-1.28.54-2.73.81-4.36.81Z"/>
          <path d="M595.43,32.18c-2.21,0-4.16-.49-5.84-1.46-1.69-.97-3.01-2.32-3.97-4.04-.96-1.71-1.44-3.69-1.44-5.93s.47-4.22,1.41-5.93c.95-1.72,2.26-3.06,3.95-4.04,1.69-.97,3.6-1.46,5.75-1.46s4.16.49,5.84,1.46c1.69.98,3,2.32,3.95,4.04.94,1.71,1.41,3.69,1.41,5.93s-.47,4.22-1.41,5.93c-.95,1.72-2.25,3.06-3.92,4.04-1.67.97-3.58,1.46-5.74,1.46ZM595.43,27.69c1.22,0,2.29-.3,3.21-.89.91-.6,1.63-1.41,2.16-2.44.52-1.03.79-2.23.79-3.6s-.26-2.56-.79-3.6c-.52-1.03-1.25-1.85-2.2-2.44-.94-.6-2.03-.89-3.25-.89s-2.3.3-3.23.89-1.65,1.41-2.18,2.44-.79,2.23-.79,3.6.27,2.56.81,3.6c.54,1.03,1.28,1.85,2.22,2.44.95.6,2.03.89,3.25.89Z"/>
          <path d="M610.61,31.66V9.86h4.58l.22,3.1c.7-1.16,1.6-2.06,2.73-2.68,1.12-.62,2.4-.94,3.86-.94,1.74,0,3.23.35,4.47,1.05,1.23.7,2.18,1.78,2.84,3.25.65,1.47.98,3.38.98,5.74v12.3h-4.88v-11.16c0-1.74-.2-3.09-.59-4.03-.39-.95-.94-1.6-1.65-1.98-.71-.38-1.55-.57-2.51-.57-1.63-.03-2.89.51-3.79,1.61-.9,1.1-1.35,2.69-1.35,4.75v11.38h-4.88Z"/>
          <path d="M637.86,5.71c-.79,0-1.46-.28-2.03-.85s-.85-1.24-.85-2.03.28-1.45.85-2.01c.57-.55,1.24-.83,2.03-.83s1.46.28,2.03.83c.57.55.85,1.22.85,2.01s-.28,1.46-.85,2.03-1.24.85-2.03.85ZM635.41,31.66V9.86h4.84v21.8h-4.84Z"/>
          <path d="M645.66,31.66V9.86h4.58l.22,3.1c.7-1.16,1.6-2.06,2.73-2.68,1.12-.62,2.4-.94,3.86-.94,1.74,0,3.23.35,4.47,1.05,1.23.7,2.18,1.78,2.84,3.25.65,1.47.98,3.38.98,5.74v12.3h-4.88v-11.16c0-1.74-.2-3.09-.59-4.03-.39-.95-.94-1.6-1.65-1.98-.71-.38-1.55-.57-2.51-.57-1.63-.03-2.89.51-3.79,1.61-.9,1.1-1.35,2.69-1.35,4.75v11.38h-4.88Z"/>
          <path d="M679.76,40.94c-1.54,0-2.93-.13-4.16-.39s-2.27-.57-3.12-.92c-.84-.35-1.5-.68-1.96-1l1.88-3.92c.41.2.95.46,1.63.76.68.3,1.49.57,2.42.81s1.98.35,3.14.35c1.25,0,2.37-.26,3.36-.76.99-.51,1.76-1.29,2.31-2.34.55-1.04.83-2.38.83-4.01v-2.18c-.76,1.22-1.74,2.17-2.94,2.86-1.21.68-2.58,1.03-4.12,1.03-1.98,0-3.7-.45-5.17-1.35-1.47-.9-2.62-2.16-3.45-3.77-.83-1.61-1.24-3.48-1.24-5.6,0-2.27.41-4.23,1.24-5.89.83-1.66,1.98-2.95,3.45-3.88,1.47-.93,3.19-1.4,5.17-1.4,1.54,0,2.92.35,4.12,1.05,1.21.7,2.19,1.7,2.94,3.01v-3.53h4.88v19.53c0,2.47-.47,4.57-1.4,6.3-.93,1.73-2.24,3.04-3.92,3.92-1.69.89-3.65,1.33-5.89,1.33ZM680.37,27.08c1.1,0,2.07-.29,2.9-.87.83-.58,1.47-1.37,1.94-2.38.47-1,.7-2.16.7-3.47s-.23-2.51-.7-3.51c-.47-1.01-1.12-1.79-1.96-2.35-.84-.57-1.81-.85-2.92-.85-1.16,0-2.18.28-3.07.85-.89.57-1.59,1.35-2.09,2.35-.51,1-.76,2.17-.76,3.51s.26,2.46.76,3.47c.51,1.01,1.21,1.8,2.12,2.38.9.58,1.93.87,3.1.87Z"/>
          <path d="M707.71,31.66V1.14h5.06v25.9h13.82v4.62h-18.88Z"/>
          <path d="M737.41,32.18c-2.62,0-4.64-.58-6.08-1.75-1.44-1.16-2.16-2.8-2.16-4.93,0-2.27.76-4,2.29-5.19,1.53-1.19,3.66-1.79,6.39-1.79h5.54c-.17-1.6-.63-2.82-1.35-3.66-.73-.84-1.8-1.26-3.23-1.26-1.05,0-1.96.22-2.75.66-.79.44-1.45,1.12-2,2.05l-4.27-1.57c.47-.96,1.08-1.85,1.85-2.68.77-.83,1.74-1.49,2.92-1.98,1.18-.49,2.59-.74,4.25-.74,2.12,0,3.89.42,5.32,1.24,1.42.83,2.48,2.01,3.16,3.55.68,1.54,1.03,3.4,1.03,5.58l-.13,11.95h-4.49l-.13-2.66c-.58,1.02-1.39,1.8-2.42,2.35-1.03.55-2.28.83-3.73.83ZM738.01,28.08c1.07,0,2.03-.24,2.86-.72.83-.48,1.47-1.13,1.92-1.94.45-.81.67-1.71.67-2.7v-.44h-4.05c-1.95,0-3.31.27-4.1.81-.79.54-1.18,1.3-1.18,2.29,0,.85.34,1.5,1.03,1.98.68.48,1.63.72,2.86.72Z"/>
          <path d="M765.04,32.18c-1.54,0-2.9-.33-4.05-1-1.16-.67-2.14-1.61-2.92-2.84l-.18,3.31h-4.62V1.14h4.88v11.95c.76-1.19,1.72-2.12,2.88-2.77,1.16-.66,2.5-.98,4.01-.98,1.98,0,3.7.47,5.17,1.42,1.47.94,2.62,2.27,3.45,3.97s1.24,3.71,1.24,6.04-.41,4.3-1.24,6.02c-.83,1.72-1.98,3.05-3.45,3.99s-3.19,1.42-5.17,1.42ZM763.81,27.73c1.16,0,2.19-.3,3.1-.89.9-.6,1.62-1.42,2.16-2.46.54-1.05.81-2.25.81-3.62s-.26-2.57-.76-3.62c-.51-1.04-1.21-1.86-2.11-2.44-.9-.58-1.95-.87-3.14-.87-1.1,0-2.09.3-2.96.89s-1.55,1.42-2.03,2.46c-.48,1.05-.72,2.24-.72,3.58s.24,2.57.72,3.62c.48,1.04,1.15,1.87,2,2.46s1.84.89,2.94.89Z"/>
          <path d="M781.02,32.27c-.84,0-1.56-.3-2.16-.89-.6-.59-.89-1.31-.89-2.16s.3-1.57.89-2.18,1.32-.92,2.16-.92,1.57.31,2.18.92c.61.61.91,1.34.91,2.18s-.3,1.56-.91,2.16c-.61.6-1.34.89-2.18.89Z"/>
        </g>
        <path d="M31.9,6.58H.53c-.29,0-.53.24-.53.53v30.9c0,10.07,6.81,17.37,16.2,17.37s16.2-7.31,16.2-17.37V7.08c0-.28-.23-.51-.51-.51ZM26.22,23.96h-3.66v2h3.66v3.92h-3.66v14.53l-5.27-.09-4.16-4.16-4.2,4.2-2.74-2.86,7.01-7.02,5.3,5.15v-20.95h-7.19v-3.45h11.25v5.11h3.66v3.62Z"/>
      </g>
      <g>
        <path d="M57.03,62.4c-.86,0-1.65-.1-2.36-.3-.71-.2-1.34-.48-1.88-.85s-.99-.76-1.34-1.21c-.35-.45-.6-.91-.74-1.4l2.68-.82c.2.58.6,1.09,1.2,1.53s1.33.66,2.21.68c1.02,0,1.82-.21,2.42-.64.6-.42.89-.98.89-1.67,0-.63-.25-1.14-.75-1.54s-1.17-.71-2.02-.93l-2.02-.52c-.77-.2-1.46-.5-2.08-.89-.62-.39-1.1-.88-1.45-1.48-.35-.6-.53-1.3-.53-2.11,0-1.53.5-2.73,1.5-3.58,1-.85,2.43-1.28,4.3-1.28,1.05,0,1.97.16,2.76.48s1.44.76,1.96,1.31c.51.56.9,1.19,1.15,1.89l-2.63.85c-.24-.63-.64-1.14-1.22-1.55-.58-.41-1.3-.61-2.16-.61s-1.6.21-2.1.64-.76,1.01-.76,1.76c0,.61.2,1.08.6,1.42s.94.59,1.63.76l2.02.49c1.47.36,2.61.98,3.43,1.86.82.87,1.22,1.85,1.22,2.91,0,.94-.23,1.77-.68,2.49-.46.72-1.12,1.28-2.01,1.69-.88.41-1.96.61-3.23.61Z"/>
        <path d="M71.09,62.4c-1.14,0-2.16-.26-3.04-.79s-1.58-1.25-2.09-2.17c-.51-.92-.76-1.99-.76-3.19s.26-2.27.77-3.19c.52-.92,1.22-1.65,2.13-2.17s1.93-.79,3.09-.79c1.05,0,1.99.27,2.84.81s1.51,1.32,2.01,2.34c.49,1.02.74,2.23.74,3.64h-8.85c.08.99.44,1.76,1.09,2.33.65.56,1.42.85,2.31.85.72,0,1.31-.16,1.78-.48.47-.32.84-.74,1.1-1.25l2.33.99c-.33.63-.75,1.17-1.26,1.64-.51.47-1.11.83-1.81,1.08-.69.25-1.49.38-2.38.38ZM68.08,54.86h5.85c-.05-.56-.21-1.03-.49-1.4-.28-.37-.63-.65-1.04-.83s-.84-.28-1.29-.28-.88.09-1.33.27-.83.46-1.14.84c-.31.37-.5.85-.56,1.41Z"/>
        <path d="M84.77,62.4c-1.19,0-2.24-.26-3.14-.79-.91-.52-1.62-1.25-2.14-2.17-.51-.92-.77-1.99-.77-3.19s.25-2.27.76-3.19c.51-.92,1.22-1.65,2.12-2.17s1.94-.79,3.1-.79,2.24.26,3.14.79,1.61,1.25,2.13,2.17c.51.92.76,1.99.76,3.19s-.26,2.27-.76,3.19c-.51.92-1.22,1.65-2.11,2.17-.9.52-1.93.79-3.09.79ZM84.77,59.98c.66,0,1.23-.16,1.73-.48.49-.32.88-.76,1.16-1.32.28-.55.42-1.2.42-1.94s-.14-1.38-.42-1.94c-.28-.55-.68-.99-1.19-1.31-.51-.32-1.09-.48-1.75-.48s-1.24.16-1.74.48-.89.76-1.17,1.31c-.28.56-.42,1.2-.42,1.94s.14,1.38.43,1.94c.29.56.69,1,1.2,1.32s1.09.48,1.75.48Z"/>
        <path d="M97.72,62.4c-.92,0-1.72-.19-2.38-.56-.66-.38-1.18-.96-1.54-1.76s-.54-1.82-.54-3.08v-6.62h2.63v6.01c0,.92.11,1.64.33,2.16.22.52.52.88.9,1.08s.83.3,1.33.3c.89.02,1.58-.27,2.06-.87.49-.6.73-1.45.73-2.56v-6.13h2.6v11.74h-2.46l-.12-1.67c-.38.63-.86,1.11-1.47,1.44-.6.33-1.3.5-2.08.5Z"/>
        <path d="M107.14,62.11v-16.44h2.63v16.44h-2.63Z"/>
        <path d="M118.69,62.11v-16.44h2.82l8.74,11.88v-11.88h2.72v16.44h-2.72l-8.83-12.02v12.02h-2.72Z"/>
        <path d="M140.43,62.4c-1.41,0-2.5-.31-3.27-.94-.78-.63-1.16-1.51-1.16-2.65,0-1.22.41-2.15,1.23-2.79s1.97-.96,3.44-.96h2.98c-.09-.86-.33-1.52-.73-1.97-.39-.45-.97-.68-1.74-.68-.56,0-1.06.12-1.48.35-.42.23-.78.6-1.08,1.1l-2.3-.85c.25-.52.58-1,1-1.44.41-.45.94-.8,1.57-1.07.63-.27,1.4-.4,2.29-.4,1.14,0,2.1.22,2.86.67.77.45,1.34,1.08,1.7,1.91.37.83.55,1.83.55,3.01l-.07,6.43h-2.42l-.07-1.43c-.31.55-.75.97-1.3,1.27-.55.29-1.22.45-2.01.45ZM140.76,60.19c.58,0,1.09-.13,1.54-.39.45-.26.79-.61,1.04-1.04s.36-.92.36-1.46v-.23h-2.18c-1.05,0-1.79.14-2.21.43-.42.29-.63.7-.63,1.23,0,.45.18.81.55,1.07.37.26.88.39,1.54.39Z"/>
        <path d="M153.82,62.4c-1.24,0-2.18-.31-2.83-.93-.65-.62-.97-1.51-.97-2.67v-6.17h-1.95v-2.25h1.95v-3.66h2.6v3.66h3.17v2.25h-3.17v5.68c0,.55.13.96.39,1.24.26.28.64.42,1.14.42.16,0,.33-.03.52-.09s.4-.18.63-.35l.96,2c-.41.28-.81.49-1.22.65-.41.15-.82.22-1.22.22Z"/>
        <path d="M160.1,48.15c-.42,0-.79-.15-1.09-.46s-.46-.67-.46-1.09.15-.78.46-1.08.67-.45,1.09-.45.79.15,1.09.45.46.66.46,1.08-.15.79-.46,1.09-.67.46-1.09.46ZM158.79,62.11v-11.74h2.6v11.74h-2.6Z"/>
        <path d="M170.21,62.4c-1.19,0-2.24-.26-3.14-.79-.91-.52-1.62-1.25-2.14-2.17-.51-.92-.77-1.99-.77-3.19s.25-2.27.76-3.19c.51-.92,1.22-1.65,2.12-2.17s1.94-.79,3.1-.79,2.24.26,3.14.79,1.61,1.25,2.13,2.17c.51.92.76,1.99.76,3.19s-.26,2.27-.76,3.19c-.51.92-1.22,1.65-2.11,2.17-.9.52-1.93.79-3.09.79ZM170.21,59.98c.66,0,1.23-.16,1.73-.48.49-.32.88-.76,1.16-1.32.28-.55.42-1.2.42-1.94s-.14-1.38-.42-1.94c-.28-.55-.68-.99-1.19-1.31-.51-.32-1.09-.48-1.75-.48s-1.24.16-1.74.48-.89.76-1.17,1.31c-.28.56-.42,1.2-.42,1.94s.14,1.38.43,1.94c.29.56.69,1,1.2,1.32s1.09.48,1.75.48Z"/>
        <path d="M178.87,62.11v-11.74h2.47l.12,1.67c.38-.63.86-1.11,1.47-1.44.6-.34,1.29-.5,2.08-.5.94,0,1.74.19,2.41.56.66.37,1.17.96,1.53,1.75.35.79.53,1.82.53,3.09v6.62h-2.63v-6.01c0-.94-.1-1.66-.31-2.17-.21-.51-.51-.86-.89-1.07s-.83-.31-1.35-.31c-.88-.01-1.56.28-2.04.87-.48.59-.73,1.45-.73,2.56v6.13h-2.63Z"/>
        <path d="M196.37,62.4c-1.41,0-2.5-.31-3.27-.94-.78-.63-1.16-1.51-1.16-2.65,0-1.22.41-2.15,1.23-2.79s1.97-.96,3.44-.96h2.98c-.09-.86-.33-1.52-.73-1.97-.39-.45-.97-.68-1.74-.68-.56,0-1.06.12-1.48.35-.42.23-.78.6-1.08,1.1l-2.3-.85c.25-.52.58-1,1-1.44.41-.45.94-.8,1.57-1.07.63-.27,1.4-.4,2.29-.4,1.14,0,2.1.22,2.86.67s1.34,1.08,1.7,1.91c.37.83.55,1.83.55,3.01l-.07,6.43h-2.42l-.07-1.43c-.31.55-.75.97-1.3,1.27-.55.29-1.22.45-2.01.45ZM196.71,60.19c.58,0,1.09-.13,1.54-.39.45-.26.79-.61,1.04-1.04s.36-.92.36-1.46v-.23h-2.18c-1.05,0-1.79.14-2.21.43-.42.29-.63.7-.63,1.23,0,.45.18.81.55,1.07.37.26.88.39,1.54.39Z"/>
        <path d="M205.41,62.11v-16.44h2.63v16.44h-2.63Z"/>
        <path d="M223.23,62.44c-1.3,0-2.44-.26-3.42-.79-.98-.52-1.74-1.26-2.28-2.22-.54-.96-.81-2.07-.81-3.33v-10.43h2.73v10.43c0,.77.16,1.43.48,2.01.32.57.77,1.02,1.35,1.34s1.24.48,1.99.48,1.44-.16,2.03-.48,1.04-.77,1.35-1.34c.31-.57.47-1.24.47-2.01v-10.43h2.72v10.43c0,1.27-.27,2.38-.81,3.33-.54.95-1.31,1.69-2.3,2.22-.99.52-2.16.79-3.51.79Z"/>
        <path d="M233.33,62.11v-11.74h2.47l.12,1.67c.38-.63.86-1.11,1.47-1.44.6-.34,1.29-.5,2.08-.5.94,0,1.74.19,2.41.56.66.37,1.17.96,1.53,1.75.35.79.53,1.82.53,3.09v6.62h-2.63v-6.01c0-.94-.1-1.66-.31-2.17-.21-.51-.51-.86-.89-1.07s-.83-.31-1.35-.31c-.88-.01-1.56.28-2.04.87-.48.59-.73,1.45-.73,2.56v6.13h-2.63Z"/>
        <path d="M248.49,48.15c-.42,0-.79-.15-1.09-.46s-.46-.67-.46-1.09.15-.78.46-1.08.67-.45,1.09-.45.79.15,1.09.45.46.66.46,1.08-.15.79-.46,1.09-.67.46-1.09.46ZM247.18,62.11v-11.74h2.6v11.74h-2.6Z"/>
        <path d="M256.92,62.11l-4.86-11.74h2.7l3.48,8.73,3.45-8.73h2.73l-4.84,11.74h-2.65Z"/>
        <path d="M271.37,62.4c-1.14,0-2.16-.26-3.04-.79s-1.58-1.25-2.09-2.17c-.51-.92-.76-1.99-.76-3.19s.26-2.27.77-3.19c.52-.92,1.22-1.65,2.13-2.17s1.93-.79,3.09-.79c1.05,0,1.99.27,2.84.81s1.51,1.32,2.01,2.34c.49,1.02.74,2.23.74,3.64h-8.85c.08.99.44,1.76,1.09,2.33.65.56,1.42.85,2.31.85.72,0,1.31-.16,1.78-.48.47-.32.84-.74,1.1-1.25l2.33.99c-.33.63-.75,1.17-1.26,1.64-.51.47-1.11.83-1.81,1.08-.69.25-1.49.38-2.38.38ZM268.36,54.86h5.85c-.05-.56-.21-1.03-.49-1.4-.28-.37-.63-.65-1.04-.83s-.84-.28-1.29-.28-.88.09-1.33.27-.83.46-1.14.84c-.31.37-.5.85-.56,1.41Z"/>
        <path d="M279.56,62.11v-11.74h2.63v2.14c.47-.74,1.08-1.28,1.83-1.64.75-.36,1.53-.54,2.33-.54v2.51c-.72,0-1.4.1-2.03.29-.64.2-1.15.51-1.54.95-.39.44-.59,1.02-.59,1.74v6.29h-2.63Z"/>
        <path d="M292.84,62.4c-.78,0-1.5-.12-2.16-.35-.66-.23-1.22-.57-1.69-1-.47-.43-.83-.94-1.08-1.52l2.28-1.01c.24.44.58.81,1.04,1.1s.97.45,1.54.45c.61,0,1.1-.1,1.47-.32.37-.21.55-.5.55-.88s-.14-.64-.42-.84-.68-.36-1.2-.48l-1.1-.3c-1.11-.28-1.98-.73-2.6-1.35s-.94-1.33-.94-2.13c0-1.17.38-2.08,1.14-2.72.76-.64,1.85-.96,3.28-.96.72,0,1.38.1,1.98.32.6.21,1.12.51,1.56.89s.74.83.92,1.35l-2.18.99c-.16-.39-.46-.69-.89-.9-.44-.21-.92-.32-1.46-.32s-.95.11-1.24.34c-.3.23-.45.54-.45.95,0,.23.13.45.4.65s.65.35,1.15.48l1.39.33c.77.19,1.39.48,1.88.88.48.4.85.85,1.08,1.34.24.49.35.99.35,1.49,0,.7-.2,1.32-.6,1.85-.4.53-.94.94-1.63,1.23-.69.29-1.47.44-2.35.44Z"/>
        <path d="M301.27,48.15c-.42,0-.79-.15-1.09-.46s-.46-.67-.46-1.09.15-.78.46-1.08.67-.45,1.09-.45.79.15,1.09.45.46.66.46,1.08-.15.79-.46,1.09-.67.46-1.09.46ZM299.96,62.11v-11.74h2.6v11.74h-2.6Z"/>
        <path d="M310.67,62.4c-1.24,0-2.18-.31-2.83-.93-.65-.62-.97-1.51-.97-2.67v-6.17h-1.95v-2.25h1.95v-3.66h2.6v3.66h3.17v2.25h-3.17v5.68c0,.55.13.96.39,1.24.26.28.64.42,1.14.42.16,0,.33-.03.52-.09s.4-.18.63-.35l.96,2c-.41.28-.81.49-1.22.65-.41.15-.82.22-1.22.22Z"/>
        <path d="M317.95,67.09c-.38,0-.8-.07-1.26-.21s-.9-.32-1.33-.54l.99-2.14c.3.14.57.25.82.34.25.09.46.13.61.13.37,0,.69-.1.95-.29.26-.19.47-.48.62-.85l.63-1.5-5.21-11.64h2.87l3.57,8.64,3.5-8.64h2.87l-5.45,12.98c-.33.75-.66,1.41-1,1.97-.34.56-.76,1-1.26,1.3-.5.3-1.14.46-1.92.46Z"/>
      </g>
    </g>
  </g>
</svg>