<?xml version="1.0" encoding="UTF-8"?>
<svg id="Layer_2" data-name="Layer 2" xmlns="http://www.w3.org/2000/svg" viewBox="0 0 674.09 64.25">
  <defs>
    <style>
      .cls-1 {
        fill: #4d4d4d;
      }

      .cls-2 {
        fill: #1a1a1a;
      }
    </style>
  </defs>
  <g id="_레이어_1" data-name="레이어 1">
    <g>
      <g>
        <path class="cls-2" d="M59.61,26.58V.95h4.54l8.05,11.86,7.98-11.86h4.58v25.62h-4.25V7.65l-8.35,12.34-8.31-12.26v18.85h-4.25Z"/>
        <path class="cls-2" d="M95.62,27.02c-2.2,0-3.9-.49-5.11-1.47-1.21-.98-1.81-2.35-1.81-4.14,0-1.9.64-3.35,1.92-4.36,1.28-1,3.07-1.5,5.36-1.5h4.65c-.15-1.34-.53-2.37-1.13-3.07-.61-.71-1.52-1.06-2.71-1.06-.88,0-1.65.18-2.31.55-.66.37-1.22.94-1.68,1.72l-3.59-1.32c.39-.81.91-1.56,1.56-2.25.65-.7,1.46-1.25,2.45-1.66.99-.42,2.18-.62,3.57-.62,1.78,0,3.27.35,4.47,1.04,1.19.7,2.08,1.69,2.65,2.98.57,1.29.86,2.85.86,4.69l-.11,10.03h-3.77l-.11-2.23c-.49.86-1.17,1.51-2.03,1.98-.87.46-1.91.7-3.13.7ZM96.13,23.57c.9,0,1.7-.2,2.4-.6.7-.4,1.23-.95,1.61-1.63.38-.68.57-1.44.57-2.27v-.37h-3.4c-1.64,0-2.78.23-3.44.68-.66.45-.99,1.09-.99,1.92,0,.71.29,1.26.86,1.67.57.4,1.37.6,2.4.6Z"/>
        <path class="cls-2" d="M117.56,27.02c-1.88,0-3.54-.41-4.98-1.23-1.44-.82-2.57-1.95-3.38-3.39-.82-1.44-1.23-3.1-1.23-4.98s.41-3.54,1.23-4.98c.82-1.44,1.94-2.57,3.37-3.39,1.43-.82,3.07-1.23,4.92-1.23s3.44.43,4.91,1.3c1.46.87,2.55,2.1,3.26,3.71l-3.81,1.46c-.39-.8-.99-1.45-1.79-1.94-.81-.49-1.72-.73-2.75-.73s-1.89.25-2.67.75-1.39,1.18-1.83,2.05-.66,1.86-.66,2.98.23,2.12.68,2.98c.45.87,1.08,1.55,1.87,2.05.79.5,1.69.75,2.69.75s1.94-.26,2.74-.79,1.4-1.24,1.79-2.14l3.81,1.47c-.71,1.66-1.79,2.95-3.24,3.88-1.45.93-3.09,1.39-4.92,1.39Z"/>
        <path class="cls-2" d="M128.67,26.58V.95h4.1v9.81c.61-.95,1.38-1.68,2.3-2.18s1.98-.75,3.15-.75c1.44,0,2.68.29,3.73.88,1.05.59,1.85,1.49,2.4,2.72.55,1.23.82,2.84.82,4.81v10.32h-4.1v-9.37c0-1.46-.17-2.59-.51-3.38-.34-.79-.81-1.35-1.41-1.67-.6-.32-1.29-.48-2.07-.48-1.39-.02-2.46.43-3.2,1.36-.75.93-1.12,2.26-1.12,3.99v9.55h-4.1Z"/>
        <path class="cls-2" d="M151.54,4.8c-.66,0-1.23-.24-1.7-.71s-.71-1.04-.71-1.7.24-1.22.71-1.69c.48-.46,1.04-.7,1.7-.7s1.23.23,1.7.7c.48.46.71,1.03.71,1.69s-.24,1.23-.71,1.7-1.04.71-1.7.71ZM149.49,26.58V8.27h4.06v18.3h-4.06Z"/>
        <path class="cls-2" d="M158.09,26.58V8.27h3.84l.18,2.6c.59-.98,1.35-1.73,2.29-2.25.94-.52,2.02-.79,3.24-.79,1.46,0,2.71.29,3.75.88,1.04.59,1.83,1.49,2.38,2.72.55,1.23.82,2.84.82,4.81v10.32h-4.1v-9.37c0-1.46-.16-2.59-.49-3.38-.33-.79-.79-1.35-1.39-1.67-.6-.32-1.3-.48-2.11-.48-1.37-.02-2.43.43-3.18,1.36-.76.93-1.14,2.26-1.14,3.99v9.55h-4.1Z"/>
        <path class="cls-2" d="M187.01,27.02c-1.78,0-3.36-.41-4.74-1.23s-2.46-1.95-3.26-3.39c-.79-1.44-1.19-3.1-1.19-4.98s.4-3.54,1.21-4.98c.81-1.44,1.91-2.57,3.31-3.39,1.4-.82,3.01-1.23,4.81-1.23,1.64,0,3.11.42,4.43,1.26,1.32.84,2.36,2.05,3.13,3.64.77,1.59,1.15,3.48,1.15,5.67h-13.8c.12,1.54.69,2.75,1.7,3.62,1.01.88,2.21,1.32,3.6,1.32,1.12,0,2.05-.25,2.78-.75.73-.5,1.3-1.15,1.72-1.96l3.62,1.54c-.51.98-1.17,1.83-1.96,2.56-.79.73-1.73,1.3-2.82,1.69s-2.32.59-3.71.59ZM182.33,15.27h9.12c-.07-.88-.33-1.61-.77-2.18-.44-.57-.98-1.01-1.61-1.3-.63-.29-1.3-.44-2.01-.44s-1.37.14-2.07.42-1.29.71-1.78,1.3c-.49.59-.78,1.32-.88,2.2Z"/>
        <path class="cls-2" d="M208.53,26.58V.95h9.04c1.73,0,3.27.35,4.63,1.06,1.35.71,2.41,1.69,3.16,2.94s1.14,2.72,1.14,4.37-.35,3.08-1.06,4.34c-.71,1.26-1.7,2.24-2.96,2.96-1.27.72-2.72,1.08-4.36,1.08h-5.35v8.86h-4.25ZM212.78,13.8h5.27c1.22,0,2.22-.42,3-1.24.78-.83,1.17-1.91,1.17-3.22s-.44-2.43-1.32-3.26c-.88-.83-2.01-1.24-3.4-1.24h-4.72v8.97Z"/>
        <path class="cls-2" d="M237.25,27.02c-1.78,0-3.36-.41-4.74-1.23s-2.46-1.95-3.26-3.39c-.79-1.44-1.19-3.1-1.19-4.98s.4-3.54,1.21-4.98c.81-1.44,1.91-2.57,3.31-3.39,1.4-.82,3.01-1.23,4.81-1.23,1.64,0,3.11.42,4.43,1.26,1.32.84,2.36,2.05,3.13,3.64.77,1.59,1.15,3.48,1.15,5.67h-13.8c.12,1.54.69,2.75,1.7,3.62,1.01.88,2.21,1.32,3.6,1.32,1.12,0,2.05-.25,2.78-.75s1.3-1.15,1.72-1.96l3.62,1.54c-.51.98-1.17,1.83-1.96,2.56-.79.73-1.73,1.3-2.82,1.69s-2.32.59-3.71.59ZM232.57,15.27h9.12c-.07-.88-.33-1.61-.77-2.18-.44-.57-.98-1.01-1.61-1.3-.63-.29-1.3-.44-2.01-.44s-1.37.14-2.07.42-1.29.71-1.78,1.3c-.49.59-.78,1.32-.88,2.2Z"/>
        <path class="cls-2" d="M249.28,26.58V8.27h4.1v3.33c.73-1.15,1.69-2,2.86-2.56,1.17-.56,2.38-.84,3.62-.84v3.92c-1.12,0-2.18.15-3.17.46s-1.79.8-2.4,1.48c-.61.68-.92,1.59-.92,2.71v9.81h-4.1Z"/>
        <path class="cls-2" d="M270.6,27.02c-1.88,0-3.54-.41-4.98-1.23-1.44-.82-2.57-1.95-3.38-3.39-.82-1.44-1.23-3.1-1.23-4.98s.41-3.54,1.23-4.98c.82-1.44,1.94-2.57,3.37-3.39,1.43-.82,3.07-1.23,4.92-1.23s3.44.43,4.91,1.3c1.46.87,2.55,2.1,3.26,3.71l-3.81,1.46c-.39-.8-.99-1.45-1.79-1.94-.81-.49-1.72-.73-2.75-.73s-1.89.25-2.67.75-1.39,1.18-1.83,2.05-.66,1.86-.66,2.98.23,2.12.68,2.98c.45.87,1.08,1.55,1.87,2.05.79.5,1.69.75,2.69.75s1.94-.26,2.74-.79,1.4-1.24,1.79-2.14l3.81,1.47c-.71,1.66-1.79,2.95-3.24,3.88-1.45.93-3.09,1.39-4.92,1.39Z"/>
        <path class="cls-2" d="M289.86,27.02c-1.78,0-3.36-.41-4.74-1.23s-2.46-1.95-3.26-3.39c-.79-1.44-1.19-3.1-1.19-4.98s.4-3.54,1.21-4.98c.81-1.44,1.91-2.57,3.31-3.39,1.4-.82,3.01-1.23,4.81-1.23,1.64,0,3.11.42,4.43,1.26,1.32.84,2.36,2.05,3.13,3.64.77,1.59,1.15,3.48,1.15,5.67h-13.8c.12,1.54.69,2.75,1.7,3.62,1.01.88,2.21,1.32,3.6,1.32,1.12,0,2.05-.25,2.78-.75s1.3-1.15,1.72-1.96l3.62,1.54c-.51.98-1.17,1.83-1.96,2.56-.79.73-1.73,1.3-2.82,1.69s-2.32.59-3.71.59ZM285.17,15.27h9.12c-.07-.88-.33-1.61-.77-2.18-.44-.57-.98-1.01-1.61-1.3-.63-.29-1.3-.44-2.01-.44s-1.37.14-2.07.42-1.29.71-1.78,1.3c-.49.59-.78,1.32-.88,2.2Z"/>
        <path class="cls-2" d="M301.98,33.9V8.27h3.84l.18,2.78c.64-1.03,1.45-1.82,2.43-2.38.99-.56,2.13-.84,3.42-.84,1.66,0,3.1.4,4.34,1.19,1.23.79,2.19,1.9,2.89,3.33s1.04,3.12,1.04,5.07-.35,3.61-1.04,5.05c-.7,1.44-1.66,2.56-2.89,3.35-1.23.79-2.68,1.19-4.34,1.19-1.27,0-2.39-.28-3.37-.84s-1.78-1.33-2.41-2.31v10.03h-4.1ZM310.84,23.28c.98,0,1.84-.25,2.6-.75.76-.5,1.36-1.19,1.81-2.07.45-.88.68-1.89.68-3.04s-.21-2.16-.64-3.04c-.43-.88-1.02-1.56-1.78-2.05-.76-.49-1.63-.73-2.63-.73-.93,0-1.76.25-2.49.75-.73.5-1.3,1.19-1.7,2.07-.4.88-.6,1.88-.6,3s.2,2.16.6,3.04c.4.88.97,1.57,1.69,2.07.72.5,1.54.75,2.47.75Z"/>
        <path class="cls-2" d="M330.29,27.02c-1.93,0-3.4-.48-4.41-1.45s-1.52-2.35-1.52-4.15v-9.63h-3.04v-3.51h3.04V2.56h4.06v5.71h4.94v3.51h-4.94v8.86c0,.86.2,1.5.6,1.94.4.44,1,.66,1.78.66.24,0,.51-.05.81-.15.29-.1.62-.28.99-.55l1.5,3.11c-.64.44-1.27.78-1.9,1.01-.64.23-1.27.35-1.91.35Z"/>
        <path class="cls-2" d="M339.3,4.8c-.66,0-1.23-.24-1.7-.71s-.71-1.04-.71-1.7.24-1.22.71-1.69c.48-.46,1.04-.7,1.7-.7s1.23.23,1.7.7c.48.46.71,1.03.71,1.69s-.24,1.23-.71,1.7-1.04.71-1.7.71ZM337.25,26.58V8.27h4.06v18.3h-4.06Z"/>
        <path class="cls-2" d="M354.28,27.02c-1.85,0-3.49-.41-4.91-1.23s-2.52-1.95-3.33-3.39c-.81-1.44-1.21-3.1-1.21-4.98s.4-3.54,1.19-4.98c.79-1.44,1.9-2.57,3.31-3.39,1.42-.82,3.02-1.23,4.83-1.23s3.49.41,4.91,1.23c1.42.82,2.52,1.95,3.31,3.39.79,1.44,1.19,3.1,1.19,4.98s-.4,3.54-1.19,4.98c-.79,1.44-1.89,2.57-3.29,3.39-1.41.82-3.01,1.23-4.81,1.23ZM354.28,23.25c1.03,0,1.92-.25,2.69-.75.77-.5,1.37-1.19,1.81-2.05.44-.87.66-1.87.66-3.02s-.22-2.15-.66-3.02c-.44-.87-1.05-1.55-1.85-2.05-.79-.5-1.7-.75-2.73-.75s-1.93.25-2.71.75-1.39,1.19-1.83,2.05-.66,1.87-.66,3.02.23,2.15.68,3.02c.45.87,1.08,1.55,1.87,2.05.79.5,1.7.75,2.73.75Z"/>
        <path class="cls-2" d="M367.03,26.58V8.27h3.84l.18,2.6c.59-.98,1.35-1.73,2.29-2.25.94-.52,2.02-.79,3.24-.79,1.46,0,2.71.29,3.75.88s1.83,1.49,2.38,2.72c.55,1.23.82,2.84.82,4.81v10.32h-4.1v-9.37c0-1.46-.16-2.59-.49-3.38-.33-.79-.79-1.35-1.39-1.67-.6-.32-1.3-.48-2.11-.48-1.37-.02-2.43.43-3.18,1.36-.76.93-1.14,2.26-1.14,3.99v9.55h-4.1Z"/>
        <path class="cls-2" d="M403.52,27.09c-1.49,0-2.81-.29-3.95-.88s-2.05-1.39-2.71-2.42c-.66-1.02-.99-2.19-.99-3.51,0-.98.19-1.87.57-2.69.38-.82.89-1.57,1.52-2.25.64-.68,1.36-1.29,2.16-1.83l4.21-2.89c.49-.34.99-.71,1.5-1.1.51-.39.96-.84,1.33-1.36.38-.51.57-1.1.57-1.76,0-.81-.29-1.44-.86-1.9-.57-.46-1.3-.7-2.18-.7-.78,0-1.45.24-2,.73-.55.49-.82,1.1-.82,1.83,0,.66.21,1.24.62,1.76.42.51.9,1.12,1.47,1.83l4.72,5.68,9.04,10.94h-4.87l-7.25-8.68-4.83-5.86c-.63-.81-1.17-1.52-1.61-2.14-.44-.62-.76-1.22-.97-1.79-.21-.57-.31-1.17-.31-1.78,0-1.12.3-2.13.9-3.02.6-.89,1.4-1.59,2.4-2.1,1-.51,2.12-.77,3.37-.77,1.37,0,2.58.26,3.64.77,1.06.51,1.9,1.22,2.51,2.12s.92,1.95.92,3.15c0,.98-.26,1.89-.77,2.74-.51.86-1.24,1.68-2.18,2.49-.94.81-2.04,1.66-3.31,2.56l-2.63,1.79c-.46.32-.89.67-1.28,1.06s-.71.83-.95,1.32c-.24.49-.37,1.07-.37,1.76,0,.98.34,1.77,1.01,2.4.67.62,1.54.93,2.62.93s2.2-.18,3.24-.55c1.04-.37,1.96-.9,2.78-1.59.82-.7,1.46-1.54,1.92-2.54.46-1,.7-2.13.7-3.4h3.92c0,2.25-.55,4.25-1.65,6-1.1,1.76-2.61,3.14-4.52,4.14-1.92,1-4.12,1.5-6.61,1.5Z"/>
        <path class="cls-2" d="M429.58,26.58V.95h9.04c1.76,0,3.31.34,4.65,1.02,1.34.68,2.39,1.63,3.15,2.84s1.14,2.6,1.14,4.19c0,1.69-.46,3.17-1.39,4.45-.93,1.28-2.15,2.23-3.66,2.83l6.08,10.29h-4.8l-5.49-9.48c-.15.02-.3.04-.46.04h-4.01v9.44h-4.25ZM433.83,13.21h4.98c.83,0,1.57-.18,2.21-.55.65-.37,1.17-.86,1.57-1.5.4-.64.6-1.36.6-2.16,0-1.22-.44-2.22-1.32-3-.88-.78-2.01-1.17-3.4-1.17h-4.65v8.38Z"/>
        <path class="cls-2" d="M459.5,27.02c-1.78,0-3.36-.41-4.74-1.23s-2.46-1.95-3.26-3.39c-.79-1.44-1.19-3.1-1.19-4.98s.4-3.54,1.21-4.98c.81-1.44,1.91-2.57,3.31-3.39,1.4-.82,3.01-1.23,4.81-1.23,1.64,0,3.11.42,4.43,1.26,1.32.84,2.36,2.05,3.13,3.64.77,1.59,1.15,3.48,1.15,5.67h-13.8c.12,1.54.69,2.75,1.7,3.62,1.01.88,2.21,1.32,3.6,1.32,1.12,0,2.05-.25,2.78-.75.73-.5,1.3-1.15,1.72-1.96l3.62,1.54c-.51.98-1.17,1.83-1.96,2.56-.79.73-1.73,1.3-2.82,1.69s-2.32.59-3.71.59ZM454.81,15.27h9.12c-.07-.88-.33-1.61-.77-2.18-.44-.57-.98-1.01-1.61-1.3-.63-.29-1.3-.44-2.01-.44s-1.37.14-2.07.42-1.29.71-1.78,1.3c-.49.59-.78,1.32-.88,2.2Z"/>
        <path class="cls-2" d="M477.44,27.02c-2.2,0-3.9-.49-5.11-1.47-1.21-.98-1.81-2.35-1.81-4.14,0-1.9.64-3.35,1.92-4.36,1.28-1,3.07-1.5,5.36-1.5h4.65c-.15-1.34-.53-2.37-1.13-3.07-.61-.71-1.52-1.06-2.71-1.06-.88,0-1.65.18-2.31.55-.66.37-1.22.94-1.68,1.72l-3.59-1.32c.39-.81.91-1.56,1.56-2.25.65-.7,1.46-1.25,2.45-1.66.99-.42,2.18-.62,3.57-.62,1.78,0,3.27.35,4.47,1.04,1.19.7,2.08,1.69,2.65,2.98.57,1.29.86,2.85.86,4.69l-.11,10.03h-3.77l-.11-2.23c-.49.86-1.17,1.51-2.03,1.98-.87.46-1.91.7-3.13.7ZM477.95,23.57c.9,0,1.7-.2,2.4-.6.7-.4,1.23-.95,1.61-1.63.38-.68.57-1.44.57-2.27v-.37h-3.4c-1.64,0-2.78.23-3.44.68-.66.45-.99,1.09-.99,1.92,0,.71.29,1.26.86,1.67.57.4,1.37.6,2.4.6Z"/>
        <path class="cls-2" d="M497.12,27.02c-1.22,0-2.34-.18-3.37-.55-1.02-.37-1.9-.89-2.63-1.56s-1.3-1.46-1.68-2.36l3.55-1.58c.37.68.91,1.26,1.63,1.72s1.52.7,2.4.7c.95,0,1.72-.16,2.29-.49.57-.33.86-.79.86-1.37s-.22-1-.66-1.3c-.44-.3-1.06-.55-1.87-.75l-1.72-.48c-1.73-.44-3.09-1.14-4.06-2.1-.98-.97-1.46-2.07-1.46-3.31,0-1.83.59-3.24,1.77-4.25,1.19-1,2.89-1.5,5.11-1.5,1.12,0,2.15.16,3.09.49s1.75.79,2.43,1.39c.68.6,1.16,1.3,1.43,2.1l-3.4,1.54c-.24-.61-.71-1.08-1.39-1.41-.68-.33-1.44-.49-2.27-.49s-1.48.18-1.94.53c-.46.35-.7.85-.7,1.48,0,.37.21.7.62,1.01.42.31,1.01.56,1.8.75l2.16.51c1.2.29,2.17.75,2.93,1.37s1.32,1.32,1.68,2.09c.37.77.55,1.54.55,2.32,0,1.1-.31,2.06-.93,2.89-.62.83-1.47,1.47-2.55,1.92-1.07.45-2.29.68-3.66.68Z"/>
        <path class="cls-2" d="M515.68,27.02c-1.85,0-3.49-.41-4.91-1.23s-2.52-1.95-3.33-3.39c-.81-1.44-1.21-3.1-1.21-4.98s.4-3.54,1.19-4.98c.79-1.44,1.9-2.57,3.31-3.39,1.42-.82,3.02-1.23,4.83-1.23s3.49.41,4.91,1.23c1.42.82,2.52,1.95,3.31,3.39.79,1.44,1.19,3.1,1.19,4.98s-.4,3.54-1.19,4.98c-.79,1.44-1.89,2.57-3.29,3.39-1.41.82-3.01,1.23-4.81,1.23ZM515.68,23.25c1.03,0,1.92-.25,2.69-.75.77-.5,1.37-1.19,1.81-2.05.44-.87.66-1.87.66-3.02s-.22-2.15-.66-3.02c-.44-.87-1.05-1.55-1.85-2.05-.79-.5-1.7-.75-2.73-.75s-1.93.25-2.71.75-1.39,1.19-1.83,2.05c-.44.87-.66,1.87-.66,3.02s.23,2.15.68,3.02c.45.87,1.08,1.55,1.87,2.05.79.5,1.7.75,2.73.75Z"/>
        <path class="cls-2" d="M528.43,26.58V8.27h3.84l.18,2.6c.59-.98,1.35-1.73,2.29-2.25.94-.52,2.02-.79,3.24-.79,1.46,0,2.71.29,3.75.88,1.04.59,1.83,1.49,2.38,2.72.55,1.23.82,2.84.82,4.81v10.32h-4.1v-9.37c0-1.46-.16-2.59-.49-3.38-.33-.79-.79-1.35-1.39-1.67-.6-.32-1.3-.48-2.11-.48-1.37-.02-2.43.43-3.18,1.36-.76.93-1.14,2.26-1.14,3.99v9.55h-4.1Z"/>
        <path class="cls-2" d="M551.3,4.8c-.66,0-1.23-.24-1.7-.71s-.71-1.04-.71-1.7.24-1.22.71-1.69c.48-.46,1.04-.7,1.7-.7s1.23.23,1.7.7c.48.46.71,1.03.71,1.69s-.24,1.23-.71,1.7-1.04.71-1.7.71ZM549.25,26.58V8.27h4.06v18.3h-4.06Z"/>
        <path class="cls-2" d="M557.85,26.58V8.27h3.84l.18,2.6c.59-.98,1.35-1.73,2.29-2.25.94-.52,2.02-.79,3.24-.79,1.46,0,2.71.29,3.75.88,1.04.59,1.83,1.49,2.38,2.72.55,1.23.82,2.84.82,4.81v10.32h-4.1v-9.37c0-1.46-.16-2.59-.49-3.38-.33-.79-.79-1.35-1.39-1.67-.6-.32-1.3-.48-2.11-.48-1.37-.02-2.43.43-3.18,1.36-.76.93-1.14,2.26-1.14,3.99v9.55h-4.1Z"/>
        <path class="cls-2" d="M586.48,34.37c-1.29,0-2.46-.11-3.49-.33s-1.91-.48-2.62-.77c-.71-.29-1.26-.57-1.65-.84l1.58-3.29c.34.17.8.38,1.37.64.57.26,1.25.48,2.03.68s1.66.29,2.63.29c1.05,0,1.99-.21,2.82-.64.83-.43,1.48-1.08,1.94-1.96.46-.88.7-2,.7-3.37v-1.83c-.64,1.03-1.46,1.83-2.47,2.4-1.01.57-2.17.86-3.46.86-1.66,0-3.1-.38-4.34-1.14-1.23-.76-2.2-1.81-2.89-3.16-.7-1.36-1.04-2.92-1.04-4.7,0-1.9.35-3.55,1.04-4.94s1.66-2.48,2.89-3.26c1.23-.78,2.68-1.17,4.34-1.17,1.29,0,2.45.29,3.46.88s1.84,1.43,2.47,2.52v-2.96h4.1v16.4c0,2.07-.39,3.84-1.17,5.29-.78,1.45-1.88,2.55-3.29,3.29-1.42.75-3.06,1.12-4.94,1.12ZM586.99,22.73c.93,0,1.74-.24,2.43-.73.7-.49,1.24-1.15,1.63-2,.39-.84.59-1.81.59-2.91s-.2-2.1-.59-2.94c-.39-.84-.94-1.5-1.65-1.98-.71-.48-1.52-.71-2.45-.71-.98,0-1.83.24-2.58.71-.75.48-1.33,1.13-1.76,1.98-.43.84-.64,1.82-.64,2.94s.21,2.07.64,2.91c.43.84,1.02,1.51,1.78,2,.76.49,1.62.73,2.6.73Z"/>
        <path class="cls-2" d="M609.94,26.58V.95h4.25v21.74h11.6v3.88h-15.85Z"/>
        <path class="cls-2" d="M634.87,27.02c-2.2,0-3.9-.49-5.11-1.47-1.21-.98-1.81-2.35-1.81-4.14,0-1.9.64-3.35,1.92-4.36,1.28-1,3.07-1.5,5.36-1.5h4.65c-.15-1.34-.53-2.37-1.13-3.07-.61-.71-1.52-1.06-2.71-1.06-.88,0-1.65.18-2.31.55-.66.37-1.22.94-1.68,1.72l-3.59-1.32c.39-.81.91-1.56,1.56-2.25.65-.7,1.46-1.25,2.45-1.66.99-.42,2.18-.62,3.57-.62,1.78,0,3.27.35,4.47,1.04,1.19.7,2.08,1.69,2.65,2.98.57,1.29.86,2.85.86,4.69l-.11,10.03h-3.77l-.11-2.23c-.49.86-1.17,1.51-2.03,1.98-.87.46-1.91.7-3.13.7ZM635.38,23.57c.9,0,1.7-.2,2.4-.6.7-.4,1.23-.95,1.61-1.63.38-.68.57-1.44.57-2.27v-.37h-3.4c-1.64,0-2.78.23-3.44.68-.66.45-.99,1.09-.99,1.92,0,.71.29,1.26.86,1.67.57.4,1.37.6,2.4.6Z"/>
        <path class="cls-2" d="M658.07,27.02c-1.3,0-2.43-.28-3.4-.84-.98-.56-1.8-1.36-2.45-2.38l-.15,2.78h-3.88V.95h4.1v10.03c.64-1,1.44-1.78,2.42-2.32.98-.55,2.1-.82,3.37-.82,1.66,0,3.1.4,4.34,1.19,1.23.79,2.2,1.9,2.89,3.33.7,1.43,1.04,3.12,1.04,5.07s-.35,3.61-1.04,5.05c-.7,1.44-1.66,2.56-2.89,3.35-1.23.79-2.68,1.19-4.34,1.19ZM657.04,23.28c.98,0,1.84-.25,2.6-.75s1.36-1.19,1.81-2.07c.45-.88.68-1.89.68-3.04s-.21-2.16-.64-3.04c-.43-.88-1.02-1.56-1.77-2.05-.76-.49-1.64-.73-2.64-.73-.93,0-1.76.25-2.49.75s-1.3,1.19-1.7,2.07c-.4.88-.6,1.88-.6,3s.2,2.16.6,3.04c.4.88.96,1.57,1.68,2.07s1.54.75,2.47.75Z"/>
        <path class="cls-2" d="M671.49,27.09c-.71,0-1.31-.25-1.81-.75-.5-.5-.75-1.1-.75-1.81s.25-1.32.75-1.83,1.11-.77,1.81-.77,1.32.26,1.83.77c.51.51.77,1.12.77,1.83s-.26,1.31-.77,1.81c-.51.5-1.12.75-1.83.75Z"/>
      </g>
      <path class="cls-2" d="M39.38.48H.65c-.36,0-.65.29-.65.65v38.14c0,12.43,8.41,21.45,20,21.45s20-9.02,20-21.45V1.11c0-.35-.28-.63-.63-.63ZM32.36,21.95h-4.52v2.47h4.52v4.84h-4.52v17.94l-6.5-.11-5.13-5.14-5.18,5.18-3.39-3.53,8.66-8.66,6.54,6.35V15.44h-8.88v-4.26h13.88v6.3h4.52v4.46Z"/>
      <path class="cls-1" d="M65.19,59.19c-.93,0-1.78-.11-2.55-.33-.77-.22-1.44-.52-2.02-.91s-1.06-.82-1.44-1.31c-.38-.48-.65-.98-.8-1.5l2.89-.89c.22.62.65,1.17,1.29,1.65s1.43.72,2.38.73c1.09,0,1.97-.23,2.61-.68.64-.46.96-1.05.96-1.8,0-.67-.27-1.23-.81-1.66s-1.26-.76-2.17-1l-2.18-.56c-.83-.22-1.57-.54-2.24-.96-.67-.42-1.19-.95-1.57-1.6-.38-.64-.57-1.4-.57-2.28,0-1.65.54-2.94,1.62-3.86,1.08-.92,2.62-1.38,4.63-1.38,1.13,0,2.12.17,2.97.52.85.35,1.56.82,2.11,1.42.55.6.97,1.28,1.24,2.04l-2.83.91c-.25-.68-.69-1.23-1.32-1.67-.62-.44-1.4-.66-2.33-.66s-1.72.23-2.27.68-.82,1.09-.82,1.9c0,.66.22,1.17.65,1.53s1.02.64,1.76.82l2.18.53c1.59.39,2.82,1.06,3.69,2,.88.94,1.32,1.99,1.32,3.13,0,1.01-.24,1.91-.73,2.68-.49.78-1.21,1.38-2.16,1.82-.95.44-2.11.66-3.48.66Z"/>
      <path class="cls-1" d="M80.34,59.19c-1.23,0-2.32-.28-3.28-.85s-1.71-1.35-2.25-2.34c-.55-1-.82-2.14-.82-3.44s.28-2.45.83-3.44c.56-1,1.32-1.78,2.29-2.34s2.08-.85,3.33-.85c1.13,0,2.15.29,3.06.87s1.63,1.42,2.16,2.52c.53,1.1.8,2.4.8,3.92h-9.54c.08,1.06.48,1.9,1.18,2.51.7.61,1.53.91,2.49.91.77,0,1.42-.17,1.92-.52.51-.35.9-.8,1.19-1.35l2.51,1.06c-.35.67-.8,1.26-1.36,1.77-.55.51-1.2.9-1.95,1.17-.75.27-1.61.41-2.57.41ZM77.1,51.07h6.3c-.05-.61-.23-1.11-.53-1.51-.3-.4-.68-.7-1.12-.9s-.9-.3-1.39-.3-.95.1-1.43.29-.89.49-1.23.9c-.34.4-.54.91-.61,1.52Z"/>
      <path class="cls-1" d="M95.09,59.19c-1.28,0-2.41-.28-3.39-.85-.98-.56-1.75-1.35-2.31-2.34-.55-1-.83-2.14-.83-3.44s.27-2.45.82-3.44c.55-1,1.31-1.78,2.29-2.34s2.09-.85,3.34-.85,2.41.28,3.39.85,1.74,1.35,2.29,2.34c.55,1,.82,2.14.82,3.44s-.28,2.45-.82,3.44c-.55,1-1.31,1.78-2.28,2.34-.97.56-2.08.85-3.33.85ZM95.09,56.58c.71,0,1.33-.17,1.86-.52.53-.35.95-.82,1.25-1.42.3-.6.46-1.3.46-2.09s-.15-1.49-.46-2.09c-.3-.6-.73-1.07-1.28-1.42-.55-.35-1.18-.52-1.89-.52s-1.33.17-1.87.52-.96.82-1.26,1.42c-.3.6-.46,1.3-.46,2.09s.16,1.49.47,2.09c.31.6.74,1.07,1.29,1.42s1.18.52,1.89.52Z"/>
      <path class="cls-1" d="M109.05,59.19c-1,0-1.85-.2-2.57-.61-.72-.41-1.27-1.04-1.66-1.9-.39-.86-.58-1.97-.58-3.32v-7.13h2.83v6.48c0,1,.12,1.77.36,2.33.24.56.56.95.97,1.17s.89.33,1.43.33c.96.02,1.7-.29,2.22-.94.53-.64.79-1.56.79-2.76v-6.61h2.81v12.65h-2.65l-.13-1.8c-.41.67-.93,1.19-1.58,1.56-.65.36-1.4.54-2.24.54Z"/>
      <path class="cls-1" d="M119.2,58.89v-17.72h2.83v17.72h-2.83Z"/>
      <path class="cls-1" d="M131.65,58.89v-17.72h3.04l9.42,12.8v-12.8h2.93v17.72h-2.93l-9.52-12.96v12.96h-2.93Z"/>
      <path class="cls-1" d="M155.09,59.19c-1.52,0-2.69-.34-3.53-1.01-.84-.67-1.25-1.63-1.25-2.86,0-1.32.44-2.32,1.33-3.01.89-.69,2.12-1.04,3.71-1.04h3.21c-.1-.93-.36-1.63-.78-2.13-.42-.49-1.04-.73-1.87-.73-.61,0-1.14.13-1.6.38-.46.25-.84.65-1.16,1.19l-2.48-.91c.27-.56.63-1.08,1.08-1.56.44-.48,1.01-.86,1.69-1.15.68-.29,1.5-.43,2.47-.43,1.23,0,2.26.24,3.09.72s1.44,1.17,1.84,2.06c.4.9.59,1.97.59,3.24l-.07,6.93h-2.61l-.08-1.54c-.34.59-.8,1.04-1.41,1.37-.6.32-1.32.48-2.16.48ZM155.44,56.81c.62,0,1.18-.14,1.66-.42.48-.28.85-.65,1.12-1.13s.39-1,.39-1.57v-.25h-2.35c-1.13,0-1.92.16-2.38.47-.46.31-.68.76-.68,1.33,0,.49.2.87.59,1.15.4.28.95.42,1.66.42Z"/>
      <path class="cls-1" d="M169.51,59.19c-1.33,0-2.35-.34-3.05-1-.7-.67-1.05-1.62-1.05-2.87v-6.65h-2.1v-2.43h2.1v-3.95h2.81v3.95h3.42v2.43h-3.42v6.13c0,.59.14,1.03.42,1.34.28.3.68.46,1.23.46.17,0,.36-.03.56-.1s.43-.19.68-.38l1.04,2.15c-.44.3-.88.53-1.31.7-.44.16-.88.24-1.32.24Z"/>
      <path class="cls-1" d="M176.29,43.83c-.46,0-.85-.17-1.18-.49s-.49-.72-.49-1.18.17-.84.49-1.17.72-.48,1.18-.48.85.16,1.18.48.49.71.49,1.17-.17.85-.49,1.18-.72.49-1.18.49ZM174.87,58.89v-12.65h2.81v12.65h-2.81Z"/>
      <path class="cls-1" d="M187.18,59.19c-1.28,0-2.41-.28-3.39-.85-.98-.56-1.75-1.35-2.31-2.34-.55-1-.83-2.14-.83-3.44s.27-2.45.82-3.44c.55-1,1.31-1.78,2.29-2.34s2.09-.85,3.34-.85,2.41.28,3.39.85c.98.56,1.74,1.35,2.29,2.34.55,1,.82,2.14.82,3.44s-.28,2.45-.82,3.44c-.55,1-1.31,1.78-2.28,2.34-.97.56-2.08.85-3.33.85ZM187.18,56.58c.71,0,1.33-.17,1.86-.52.53-.35.95-.82,1.25-1.42.3-.6.46-1.3.46-2.09s-.15-1.49-.46-2.09c-.3-.6-.73-1.07-1.28-1.42-.55-.35-1.18-.52-1.89-.52s-1.33.17-1.87.52-.96.82-1.26,1.42c-.3.6-.46,1.3-.46,2.09s.16,1.49.47,2.09c.31.6.74,1.07,1.29,1.42s1.18.52,1.89.52Z"/>
      <path class="cls-1" d="M196.53,58.89v-12.65h2.66l.13,1.8c.41-.67.93-1.19,1.58-1.56s1.39-.54,2.24-.54c1.01,0,1.88.2,2.59.61.72.4,1.26,1.03,1.65,1.89.38.85.57,1.96.57,3.33v7.14h-2.83v-6.48c0-1.01-.11-1.79-.34-2.34-.23-.55-.55-.93-.96-1.15s-.9-.33-1.45-.33c-.95-.01-1.68.3-2.2.94-.52.64-.78,1.56-.78,2.76v6.61h-2.83Z"/>
      <path class="cls-1" d="M215.39,59.19c-1.52,0-2.69-.34-3.53-1.01-.84-.67-1.25-1.63-1.25-2.86,0-1.32.44-2.32,1.33-3.01.89-.69,2.12-1.04,3.71-1.04h3.21c-.1-.93-.36-1.63-.78-2.13-.42-.49-1.04-.73-1.87-.73-.61,0-1.14.13-1.6.38-.46.25-.84.65-1.16,1.19l-2.48-.91c.27-.56.63-1.08,1.08-1.56.44-.48,1.01-.86,1.69-1.15.68-.29,1.5-.43,2.47-.43,1.23,0,2.26.24,3.09.72s1.44,1.17,1.84,2.06c.4.9.59,1.97.59,3.24l-.07,6.93h-2.61l-.08-1.54c-.34.59-.8,1.04-1.41,1.37-.6.32-1.32.48-2.16.48ZM215.74,56.81c.62,0,1.18-.14,1.66-.42.48-.28.85-.65,1.12-1.13s.39-1,.39-1.57v-.25h-2.35c-1.13,0-1.92.16-2.38.47-.46.31-.68.76-.68,1.33,0,.49.2.87.59,1.15.4.28.95.42,1.66.42Z"/>
      <path class="cls-1" d="M225.13,58.89v-17.72h2.83v17.72h-2.83Z"/>
      <path class="cls-1" d="M244.33,59.24c-1.4,0-2.63-.28-3.68-.85-1.06-.56-1.87-1.36-2.45-2.39-.58-1.03-.88-2.23-.88-3.59v-11.24h2.94v11.24c0,.83.17,1.55.52,2.16.35.61.83,1.09,1.45,1.44.62.35,1.34.52,2.15.52s1.56-.17,2.19-.52c.63-.35,1.12-.83,1.45-1.44.34-.62.51-1.34.51-2.16v-11.24h2.93v11.24c0,1.37-.29,2.56-.87,3.59-.58,1.03-1.41,1.83-2.48,2.39-1.07.56-2.33.85-3.78.85Z"/>
      <path class="cls-1" d="M255.22,58.89v-12.65h2.66l.13,1.8c.41-.67.93-1.19,1.58-1.56s1.39-.54,2.24-.54c1.01,0,1.88.2,2.59.61.72.4,1.26,1.03,1.65,1.89.38.85.57,1.96.57,3.33v7.14h-2.83v-6.48c0-1.01-.11-1.79-.34-2.34-.23-.55-.55-.93-.96-1.15s-.9-.33-1.45-.33c-.95-.01-1.68.3-2.2.94-.52.64-.78,1.56-.78,2.76v6.61h-2.83Z"/>
      <path class="cls-1" d="M271.56,43.83c-.46,0-.85-.17-1.18-.49s-.49-.72-.49-1.18.17-.84.49-1.17.72-.48,1.18-.48.85.16,1.18.48.49.71.49,1.17-.17.85-.49,1.18-.72.49-1.18.49ZM270.15,58.89v-12.65h2.81v12.65h-2.81Z"/>
      <path class="cls-1" d="M280.64,58.89l-5.24-12.65h2.91l3.75,9.41,3.72-9.41h2.94l-5.21,12.65h-2.86Z"/>
      <path class="cls-1" d="M296.22,59.19c-1.23,0-2.32-.28-3.28-.85s-1.71-1.35-2.25-2.34c-.55-1-.82-2.14-.82-3.44s.28-2.45.83-3.44c.56-1,1.32-1.78,2.29-2.34s2.08-.85,3.33-.85c1.13,0,2.15.29,3.06.87s1.63,1.42,2.16,2.52c.53,1.1.8,2.4.8,3.92h-9.54c.08,1.06.48,1.9,1.18,2.51.7.61,1.53.91,2.49.91.77,0,1.42-.17,1.92-.52.51-.35.9-.8,1.19-1.35l2.51,1.06c-.35.67-.8,1.26-1.36,1.77-.55.51-1.2.9-1.95,1.17-.75.27-1.61.41-2.57.41ZM292.98,51.07h6.3c-.05-.61-.23-1.11-.53-1.51-.3-.4-.68-.7-1.12-.9-.44-.2-.9-.3-1.39-.3s-.95.1-1.43.29-.89.49-1.23.9c-.34.4-.54.91-.61,1.52Z"/>
      <path class="cls-1" d="M305.06,58.89v-12.65h2.83v2.3c.51-.79,1.17-1.38,1.97-1.77.81-.39,1.65-.58,2.51-.58v2.71c-.78,0-1.51.11-2.19.32-.68.21-1.24.55-1.66,1.02-.42.47-.63,1.1-.63,1.87v6.78h-2.83Z"/>
      <path class="cls-1" d="M319.37,59.19c-.84,0-1.62-.13-2.33-.38-.71-.25-1.32-.61-1.83-1.07-.5-.47-.89-1.01-1.16-1.63l2.45-1.09c.25.47.63.87,1.13,1.19s1.05.48,1.66.48c.66,0,1.19-.11,1.58-.34.4-.23.6-.54.6-.95s-.15-.69-.46-.9-.73-.38-1.29-.52l-1.19-.33c-1.2-.3-2.13-.79-2.81-1.45-.67-.67-1.01-1.43-1.01-2.29,0-1.26.41-2.24,1.23-2.93.82-.69,1.99-1.04,3.53-1.04.77,0,1.49.11,2.14.34.65.23,1.21.55,1.68.96s.8.9.99,1.45l-2.35,1.06c-.17-.42-.49-.74-.96-.97-.47-.23-1-.34-1.57-.34s-1.02.12-1.34.37c-.32.25-.48.59-.48,1.03,0,.25.14.48.43.7s.7.38,1.24.52l1.49.35c.83.2,1.5.52,2.03.95.52.43.91.91,1.16,1.44.25.53.38,1.07.38,1.61,0,.76-.22,1.42-.65,2-.43.57-1.02,1.02-1.76,1.33-.74.31-1.59.47-2.53.47Z"/>
      <path class="cls-1" d="M328.45,43.83c-.46,0-.85-.17-1.18-.49s-.49-.72-.49-1.18.17-.84.49-1.17.72-.48,1.18-.48.85.16,1.18.48.49.71.49,1.17-.17.85-.49,1.18-.72.49-1.18.49ZM327.04,58.89v-12.65h2.81v12.65h-2.81Z"/>
      <path class="cls-1" d="M338.59,59.19c-1.33,0-2.35-.34-3.05-1-.7-.67-1.05-1.62-1.05-2.87v-6.65h-2.1v-2.43h2.1v-3.95h2.81v3.95h3.42v2.43h-3.42v6.13c0,.59.14,1.03.42,1.34.28.3.68.46,1.23.46.17,0,.36-.03.56-.1s.43-.19.68-.38l1.04,2.15c-.44.3-.88.53-1.31.7-.44.16-.88.24-1.32.24Z"/>
      <path class="cls-1" d="M346.43,64.25c-.41,0-.86-.07-1.36-.23s-.97-.35-1.43-.58l1.06-2.3c.32.15.62.27.89.37.27.09.49.14.66.14.4,0,.74-.11,1.02-.32.28-.21.5-.52.67-.92l.68-1.62-5.62-12.55h3.09l3.84,9.31,3.77-9.31h3.09l-5.87,13.99c-.36.81-.71,1.52-1.08,2.13-.36.61-.82,1.07-1.36,1.41-.54.33-1.23.49-2.07.49Z"/>
    </g>
  </g>
</svg>