<?xml version="1.0" encoding="UTF-8"?>
<svg id="_레이어_1" data-name="레이어_1" xmlns="http://www.w3.org/2000/svg" viewBox="0 0 1166.12 309.34">
  <defs>
    <style>
      .cls-1 {
        fill: #231815;
      }
    </style>
  </defs>
  <g>
    <path class="cls-1" d="M153.75,82.69V2.97h14.12l25.05,36.9L217.75,2.97h14.24v79.72h-13.21V23.81l-25.96,38.38-25.85-38.16v58.65h-13.21Z"/>
    <path class="cls-1" d="M265.76,84.05c-6.84,0-12.13-1.52-15.89-4.56-3.76-3.04-5.64-7.32-5.64-12.87,0-5.92,1.99-10.44,5.97-13.55,3.99-3.11,9.55-4.67,16.69-4.67h14.46c-.45-4.17-1.63-7.37-3.52-9.56-1.9-2.2-4.71-3.3-8.43-3.3-2.74,0-5.12.56-7.18,1.71-2.05,1.14-3.8,2.92-5.24,5.35l-11.16-4.1c1.21-2.51,2.82-4.84,4.84-7.01,2.01-2.16,4.55-3.88,7.63-5.18,3.07-1.29,6.78-1.94,11.1-1.94,5.54,0,10.17,1.09,13.89,3.25,3.71,2.16,6.47,5.25,8.26,9.28,1.78,4.02,2.68,8.88,2.68,14.58l-.34,31.2h-11.73l-.34-6.95c-1.52,2.66-3.63,4.71-6.32,6.15-2.69,1.44-5.95,2.16-9.74,2.16ZM267.36,73.34c2.81,0,5.3-.62,7.46-1.87,2.16-1.26,3.83-2.94,5.01-5.07,1.17-2.12,1.76-4.47,1.76-7.06v-1.14h-10.59c-5.09,0-8.66.7-10.7,2.1-2.05,1.41-3.08,3.4-3.08,5.98,0,2.21.89,3.93,2.68,5.18,1.78,1.25,4.27,1.87,7.46,1.87Z"/>
    <path class="cls-1" d="M334.04,84.05c-5.84,0-11.01-1.27-15.48-3.82-4.48-2.54-7.99-6.06-10.53-10.54-2.55-4.47-3.82-9.64-3.82-15.48s1.27-11.01,3.82-15.48c2.54-4.48,6.03-7.99,10.47-10.54,4.44-2.54,9.55-3.82,15.32-3.82s10.7,1.35,15.26,4.05c4.55,2.69,7.93,6.54,10.13,11.56l-11.84,4.55c-1.21-2.5-3.08-4.51-5.58-6.03-2.51-1.51-5.36-2.28-8.55-2.28s-5.89.78-8.32,2.34-4.32,3.68-5.69,6.37-2.05,5.79-2.05,9.28.7,6.59,2.1,9.28c1.41,2.69,3.35,4.83,5.81,6.37,2.47,1.56,5.26,2.34,8.38,2.34s6.03-.81,8.54-2.45,4.36-3.85,5.58-6.66l11.85,4.56c-2.21,5.16-5.56,9.19-10.08,12.07-4.52,2.88-9.62,4.33-15.32,4.33Z"/>
    <path class="cls-1" d="M368.61,82.69V2.97h12.76v30.52c1.89-2.96,4.29-5.22,7.17-6.78s6.15-2.34,9.8-2.34c4.48,0,8.35.92,11.62,2.74,3.26,1.82,5.75,4.65,7.46,8.48,1.71,3.84,2.56,8.83,2.56,14.98v32.12h-12.76v-29.16c0-4.55-.53-8.07-1.59-10.53-1.06-2.47-2.52-4.19-4.38-5.18-1.87-.98-4.01-1.48-6.44-1.48-4.32-.08-7.65,1.33-9.96,4.22-2.32,2.88-3.47,7.02-3.47,12.41v29.72h-12.76Z"/>
    <path class="cls-1" d="M439.76,14.92c-2.05,0-3.82-.74-5.3-2.22s-2.22-3.25-2.22-5.3.74-3.8,2.22-5.24c1.48-1.44,3.24-2.16,5.3-2.16s3.82.73,5.3,2.16c1.48,1.45,2.22,3.19,2.22,5.24s-.74,3.82-2.22,5.3-3.24,2.22-5.3,2.22ZM433.39,82.69V25.74h12.64v56.94h-12.64Z"/>
    <path class="cls-1" d="M460.15,82.69V25.74h11.96l.57,8.08c1.82-3.04,4.19-5.37,7.12-7.01,2.92-1.63,6.28-2.45,10.08-2.45,4.55,0,8.44.92,11.67,2.74s5.7,4.65,7.41,8.48c1.7,3.84,2.56,8.83,2.56,14.98v32.12h-12.76v-29.16c0-4.55-.51-8.07-1.54-10.53-1.02-2.47-2.46-4.19-4.32-5.18-1.87-.98-4.05-1.48-6.55-1.48-4.25-.08-7.55,1.33-9.91,4.22-2.35,2.88-3.53,7.02-3.53,12.41v29.72h-12.76Z"/>
    <path class="cls-1" d="M550.13,84.05c-5.54,0-10.46-1.27-14.75-3.82s-7.67-6.06-10.14-10.54c-2.46-4.47-3.7-9.64-3.7-15.48s1.25-11.01,3.76-15.48c2.51-4.48,5.94-7.99,10.31-10.54,4.36-2.54,9.35-3.82,14.97-3.82,5.09,0,9.68,1.31,13.78,3.94,4.1,2.62,7.35,6.39,9.74,11.33,2.4,4.94,3.58,10.82,3.58,17.65h-42.93c.38,4.79,2.14,8.55,5.3,11.28,3.15,2.74,6.89,4.11,11.22,4.11,3.49,0,6.38-.78,8.66-2.34s4.06-3.59,5.35-6.1l11.28,4.79c-1.59,3.04-3.63,5.69-6.09,7.96-2.46,2.28-5.39,4.03-8.77,5.24s-7.23,1.82-11.56,1.82ZM535.55,47.5h28.36c-.23-2.74-1.03-5-2.4-6.78-1.37-1.79-3.04-3.14-5.01-4.05-1.97-.92-4.06-1.37-6.26-1.37s-4.27.44-6.43,1.31-4,2.22-5.53,4.05c-1.51,1.82-2.43,4.1-2.73,6.84Z"/>
  </g>
  <g>
    <path class="cls-1" d="M621.64,82.69V2.97h28.13c5.39,0,10.19,1.1,14.41,3.3,4.21,2.2,7.49,5.25,9.85,9.16,2.35,3.91,3.53,8.45,3.53,13.61s-1.1,9.59-3.3,13.5c-2.2,3.91-5.28,6.98-9.22,9.22-3.95,2.24-8.47,3.35-13.55,3.35h-16.63v27.56h-13.21ZM634.85,42.94h16.4c3.8,0,6.9-1.29,9.34-3.87,2.43-2.58,3.64-5.93,3.64-10.03s-1.37-7.55-4.11-10.14c-2.73-2.58-6.26-3.87-10.59-3.87h-14.69v27.9Z"/>
    <path class="cls-1" d="M711,84.05c-5.54,0-10.46-1.27-14.75-3.82s-7.67-6.06-10.14-10.54c-2.46-4.47-3.7-9.64-3.7-15.48s1.25-11.01,3.76-15.48c2.51-4.48,5.94-7.99,10.31-10.54,4.36-2.54,9.35-3.82,14.97-3.82,5.09,0,9.68,1.31,13.78,3.94,4.1,2.62,7.35,6.39,9.74,11.33,2.4,4.94,3.58,10.82,3.58,17.65h-42.93c.38,4.79,2.14,8.55,5.3,11.28,3.15,2.74,6.89,4.11,11.22,4.11,3.49,0,6.38-.78,8.66-2.34s4.06-3.59,5.35-6.1l11.28,4.79c-1.59,3.04-3.63,5.69-6.09,7.96-2.46,2.28-5.39,4.03-8.77,5.24s-7.23,1.82-11.56,1.82ZM696.42,47.5h28.36c-.23-2.74-1.03-5-2.4-6.78-1.37-1.79-3.04-3.14-5.01-4.05-1.97-.92-4.06-1.37-6.26-1.37s-4.27.44-6.43,1.31-4,2.22-5.53,4.05c-1.51,1.82-2.43,4.1-2.73,6.84Z"/>
    <path class="cls-1" d="M748.42,82.69V25.74h12.76v10.36c2.28-3.57,5.24-6.22,8.89-7.96s7.4-2.63,11.28-2.63v12.19c-3.5,0-6.78.47-9.86,1.42s-5.56,2.49-7.46,4.61c-1.9,2.13-2.85,4.94-2.85,8.43v30.52h-12.76Z"/>
    <path class="cls-1" d="M814.76,84.05c-5.84,0-11.01-1.27-15.48-3.82-4.48-2.54-7.99-6.06-10.53-10.54-2.55-4.47-3.82-9.64-3.82-15.48s1.27-11.01,3.82-15.48c2.54-4.48,6.03-7.99,10.47-10.54,4.44-2.54,9.55-3.82,15.32-3.82s10.7,1.35,15.26,4.05c4.55,2.69,7.93,6.54,10.13,11.56l-11.84,4.55c-1.21-2.5-3.08-4.51-5.58-6.03-2.51-1.51-5.36-2.28-8.55-2.28s-5.89.78-8.32,2.34-4.32,3.68-5.69,6.37-2.05,5.79-2.05,9.28.7,6.59,2.1,9.28c1.41,2.69,3.35,4.83,5.81,6.37,2.47,1.56,5.26,2.34,8.38,2.34s6.03-.81,8.54-2.45,4.36-3.85,5.58-6.66l11.85,4.56c-2.21,5.16-5.56,9.19-10.08,12.07s-9.62,4.33-15.32,4.33Z"/>
    <path class="cls-1" d="M874.67,84.05c-5.54,0-10.46-1.27-14.75-3.82s-7.67-6.06-10.14-10.54c-2.46-4.47-3.7-9.64-3.7-15.48s1.25-11.01,3.76-15.48c2.51-4.48,5.94-7.99,10.31-10.54,4.36-2.54,9.35-3.82,14.97-3.82,5.09,0,9.68,1.31,13.78,3.94,4.1,2.62,7.35,6.39,9.74,11.33,2.4,4.94,3.58,10.82,3.58,17.65h-42.93c.38,4.79,2.14,8.55,5.3,11.28,3.15,2.74,6.89,4.11,11.22,4.11,3.49,0,6.38-.78,8.66-2.34s4.06-3.59,5.35-6.1l11.28,4.79c-1.59,3.04-3.63,5.69-6.09,7.96-2.46,2.28-5.39,4.03-8.77,5.24s-7.23,1.82-11.56,1.82ZM860.09,47.5h28.36c-.23-2.74-1.03-5-2.4-6.78-1.37-1.79-3.04-3.14-5.01-4.05-1.97-.92-4.06-1.37-6.26-1.37s-4.27.44-6.43,1.31-4,2.22-5.53,4.05c-1.51,1.82-2.43,4.1-2.73,6.84Z"/>
    <path class="cls-1" d="M912.38,105.46V25.74h11.96l.56,8.66c1.98-3.19,4.5-5.65,7.57-7.41,3.08-1.75,6.63-2.62,10.65-2.62,5.17,0,9.66,1.24,13.5,3.7,3.83,2.46,6.83,5.92,8.99,10.36s3.25,9.7,3.25,15.78-1.09,11.24-3.25,15.72c-2.16,4.48-5.16,7.96-8.99,10.42-3.84,2.46-8.33,3.7-13.5,3.7-3.94,0-7.44-.87-10.48-2.62s-5.54-4.14-7.51-7.18v31.2h-12.76ZM939.93,72.44c3.04,0,5.73-.78,8.09-2.34,2.35-1.56,4.23-3.7,5.64-6.43,1.4-2.74,2.1-5.89,2.1-9.45s-.67-6.72-1.99-9.45c-1.33-2.73-3.17-4.86-5.53-6.37-2.35-1.52-5.08-2.28-8.2-2.28-2.89,0-5.47.78-7.74,2.34-2.28,1.56-4.05,3.7-5.3,6.43-1.25,2.74-1.87,5.85-1.87,9.34s.62,6.72,1.87,9.45c1.26,2.73,3,4.88,5.24,6.43s4.8,2.34,7.68,2.34Z"/>
    <path class="cls-1" d="M1000.47,84.05c-6,0-10.57-1.5-13.72-4.5s-4.72-7.31-4.72-12.93v-29.95h-9.45v-10.93h9.45V7.97h12.64v17.77h15.37v10.93h-15.37v27.56c0,2.66.62,4.67,1.87,6.04,1.26,1.37,3.1,2.05,5.53,2.05.75,0,1.59-.15,2.51-.46.91-.3,1.93-.87,3.07-1.7l4.67,9.68c-1.98,1.37-3.95,2.41-5.92,3.13-1.98.73-3.95,1.09-5.93,1.09Z"/>
    <path class="cls-1" d="M1028.51,14.92c-2.05,0-3.82-.74-5.3-2.22s-2.22-3.25-2.22-5.3.74-3.8,2.22-5.24c1.48-1.44,3.24-2.16,5.3-2.16s3.82.73,5.3,2.16c1.48,1.45,2.22,3.19,2.22,5.24s-.74,3.82-2.22,5.3-3.24,2.22-5.3,2.22ZM1022.13,82.69V25.74h12.64v56.94h-12.64Z"/>
    <path class="cls-1" d="M1075.1,84.05c-5.77,0-10.86-1.27-15.26-3.82-4.41-2.54-7.85-6.06-10.36-10.54-2.51-4.47-3.76-9.64-3.76-15.48s1.23-11.01,3.7-15.48c2.47-4.48,5.9-7.99,10.31-10.54,4.41-2.54,9.41-3.82,15.03-3.82s10.86,1.27,15.26,3.82c4.41,2.55,7.84,6.06,10.31,10.54,2.46,4.47,3.7,9.64,3.7,15.48s-1.23,11.01-3.7,15.48c-2.47,4.48-5.89,8-10.25,10.54-4.37,2.54-9.36,3.82-14.98,3.82ZM1075.1,72.33c3.19,0,5.98-.78,8.38-2.34,2.39-1.56,4.27-3.69,5.63-6.38,1.37-2.69,2.05-5.83,2.05-9.39s-.68-6.7-2.05-9.39c-1.36-2.69-3.28-4.83-5.75-6.38-2.46-1.56-5.3-2.34-8.49-2.34s-6,.78-8.43,2.34-4.32,3.69-5.69,6.38-2.05,5.83-2.05,9.39.7,6.7,2.1,9.39c1.41,2.69,3.35,4.83,5.81,6.38,2.47,1.56,5.3,2.34,8.49,2.34Z"/>
    <path class="cls-1" d="M1114.76,82.69V25.74h11.96l.57,8.08c1.82-3.04,4.19-5.37,7.12-7.01,2.92-1.63,6.28-2.45,10.08-2.45,4.55,0,8.44.92,11.67,2.74s5.7,4.65,7.41,8.48c1.7,3.84,2.56,8.83,2.56,14.98v32.12h-12.76v-29.16c0-4.55-.51-8.07-1.54-10.53-1.02-2.47-2.46-4.19-4.32-5.18-1.87-.98-4.05-1.48-6.55-1.48-4.25-.08-7.55,1.33-9.91,4.22-2.35,2.88-3.53,7.02-3.53,12.41v29.72h-12.76Z"/>
  </g>
  <path class="cls-1" d="M163.21,205.05c-4.64,0-8.73-.91-12.3-2.73s-6.37-4.33-8.43-7.52c-2.05-3.18-3.07-6.83-3.07-10.93,0-3.04.58-5.83,1.76-8.37,1.17-2.54,2.75-4.88,4.72-7.01,1.98-2.12,4.22-4.02,6.72-5.69l13.1-9c1.51-1.06,3.07-2.2,4.67-3.41,1.59-1.21,2.98-2.63,4.15-4.22,1.18-1.59,1.77-3.41,1.77-5.47,0-2.51-.9-4.47-2.68-5.92-1.79-1.45-4.05-2.16-6.78-2.16-2.43,0-4.5.76-6.21,2.28-1.7,1.52-2.56,3.42-2.56,5.7,0,2.04.64,3.87,1.93,5.47,1.29,1.59,2.81,3.49,4.56,5.69l14.69,17.66,28.13,34.05h-15.15l-22.54-26.99-15.04-18.22c-1.97-2.51-3.64-4.72-5-6.66-1.37-1.93-2.38-3.79-3.02-5.58-.65-1.78-.97-3.63-.97-5.53,0-3.49.92-6.62,2.79-9.39,1.86-2.77,4.35-4.95,7.46-6.54,3.11-1.6,6.6-2.4,10.48-2.4,4.25,0,8.02.8,11.33,2.4,3.3,1.59,5.9,3.8,7.8,6.6s2.85,6.07,2.85,9.8c0,3.04-.8,5.89-2.4,8.54-1.59,2.66-3.85,5.24-6.78,7.74s-6.36,5.17-10.31,7.97l-8.2,5.58c-1.45.99-2.77,2.1-3.99,3.31s-2.2,2.58-2.96,4.1c-.76,1.51-1.14,3.34-1.14,5.47,0,3.04,1.04,5.52,3.13,7.46,2.09,1.93,4.8,2.9,8.14,2.9s6.85-.56,10.08-1.71c3.23-1.14,6.11-2.79,8.66-4.95,2.54-2.16,4.53-4.8,5.97-7.91,1.45-3.11,2.16-6.64,2.16-10.59h12.19c0,6.99-1.71,13.21-5.12,18.68-3.42,5.47-8.11,9.76-14.06,12.88-5.96,3.11-12.82,4.66-20.56,4.66Z"/>
  <g>
    <path class="cls-1" d="M236.1,203.46v-79.72h28.13c5.47,0,10.28,1.06,14.47,3.18,4.17,2.13,7.43,5.07,9.79,8.83s3.53,8.1,3.53,13.04c0,5.24-1.45,9.86-4.33,13.84s-6.68,6.93-11.39,8.82l18.91,32h-14.92l-17.08-29.5c-.45.08-.93.12-1.42.12h-12.47v29.38h-13.21ZM249.31,161.89h15.49c2.58,0,4.88-.56,6.89-1.71,2.01-1.14,3.64-2.69,4.89-4.66,1.26-1.98,1.88-4.22,1.88-6.72,0-3.79-1.37-6.9-4.1-9.33-2.74-2.43-6.26-3.64-10.59-3.64h-14.47v26.08Z"/>
    <path class="cls-1" d="M329.18,204.83c-5.54,0-10.46-1.27-14.75-3.82s-7.67-6.06-10.14-10.54c-2.46-4.47-3.7-9.64-3.7-15.48s1.25-11.01,3.76-15.48c2.51-4.48,5.94-7.99,10.31-10.54,4.36-2.54,9.35-3.82,14.97-3.82,5.09,0,9.68,1.31,13.78,3.94,4.1,2.62,7.35,6.39,9.74,11.33,2.4,4.94,3.58,10.82,3.58,17.65h-42.93c.38,4.79,2.14,8.55,5.3,11.28,3.15,2.74,6.89,4.11,11.22,4.11,3.49,0,6.38-.78,8.66-2.34s4.06-3.59,5.35-6.1l11.28,4.79c-1.59,3.04-3.63,5.69-6.09,7.96-2.46,2.28-5.39,4.03-8.77,5.24s-7.23,1.82-11.56,1.82ZM314.61,168.27h28.36c-.23-2.74-1.03-5-2.4-6.78-1.37-1.79-3.04-3.14-5.01-4.05-1.97-.92-4.06-1.37-6.26-1.37s-4.27.44-6.43,1.31-4,2.22-5.53,4.05c-1.51,1.82-2.43,4.1-2.73,6.84Z"/>
    <path class="cls-1" d="M385.01,204.83c-6.84,0-12.13-1.52-15.89-4.56-3.76-3.04-5.64-7.32-5.64-12.87,0-5.92,1.99-10.44,5.97-13.55,3.99-3.11,9.55-4.67,16.69-4.67h14.46c-.45-4.17-1.63-7.37-3.52-9.56-1.9-2.2-4.71-3.3-8.43-3.3-2.74,0-5.12.56-7.18,1.71-2.05,1.14-3.8,2.92-5.24,5.35l-11.16-4.1c1.21-2.51,2.82-4.84,4.84-7.01,2.01-2.16,4.55-3.88,7.63-5.18,3.07-1.29,6.78-1.94,11.1-1.94,5.54,0,10.17,1.09,13.89,3.25,3.71,2.16,6.47,5.25,8.26,9.28,1.78,4.02,2.68,8.88,2.68,14.58l-.34,31.2h-11.73l-.34-6.95c-1.52,2.66-3.63,4.71-6.32,6.15-2.69,1.44-5.95,2.16-9.74,2.16ZM386.6,194.11c2.81,0,5.3-.62,7.46-1.87,2.16-1.26,3.83-2.94,5.01-5.07,1.17-2.12,1.76-4.47,1.76-7.06v-1.14h-10.59c-5.09,0-8.66.7-10.7,2.1-2.05,1.41-3.08,3.4-3.08,5.98,0,2.21.89,3.93,2.68,5.18,1.78,1.25,4.27,1.87,7.46,1.87Z"/>
    <path class="cls-1" d="M446.25,204.83c-3.8,0-7.29-.57-10.48-1.71-3.18-1.14-5.92-2.75-8.2-4.84s-4.03-4.53-5.24-7.34l11.04-4.9c1.14,2.13,2.82,3.91,5.06,5.36s4.73,2.16,7.46,2.16c2.96,0,5.34-.51,7.12-1.54,1.79-1.03,2.68-2.45,2.68-4.27s-.68-3.1-2.05-4.05c-1.36-.94-3.3-1.72-5.81-2.34l-5.35-1.48c-5.39-1.36-9.61-3.54-12.64-6.54s-4.55-6.43-4.55-10.31c0-5.69,1.84-10.1,5.52-13.21,3.69-3.11,8.98-4.67,15.89-4.67,3.49,0,6.7.51,9.62,1.54s5.45,2.46,7.57,4.33c2.13,1.86,3.61,4.04,4.45,6.54l-10.59,4.78c-.76-1.89-2.21-3.35-4.33-4.38-2.13-1.03-4.48-1.54-7.07-1.54s-4.59.56-6.03,1.65c-1.45,1.1-2.16,2.64-2.16,4.61,0,1.14.64,2.19,1.93,3.13,1.29.95,3.15,1.73,5.59,2.34l6.72,1.6c3.72.91,6.76,2.34,9.11,4.27s4.1,4.1,5.24,6.49c1.14,2.39,1.71,4.8,1.71,7.23,0,3.41-.97,6.42-2.9,9-1.94,2.58-4.58,4.57-7.92,5.97-3.34,1.41-7.13,2.11-11.39,2.11Z"/>
    <path class="cls-1" d="M503.98,204.83c-5.77,0-10.86-1.27-15.26-3.82-4.41-2.54-7.85-6.06-10.36-10.54-2.51-4.47-3.76-9.64-3.76-15.48s1.23-11.01,3.7-15.48c2.47-4.48,5.9-7.99,10.31-10.54,4.41-2.54,9.41-3.82,15.03-3.82s10.86,1.27,15.26,3.82c4.41,2.55,7.84,6.06,10.31,10.54,2.46,4.47,3.7,9.64,3.7,15.48s-1.23,11.01-3.7,15.48c-2.47,4.48-5.89,8-10.25,10.54-4.37,2.54-9.36,3.82-14.98,3.82ZM503.98,193.1c3.19,0,5.98-.78,8.38-2.34,2.39-1.56,4.27-3.69,5.63-6.38,1.37-2.69,2.05-5.83,2.05-9.39s-.68-6.7-2.05-9.39c-1.36-2.69-3.28-4.83-5.75-6.38-2.46-1.56-5.3-2.34-8.49-2.34s-6,.78-8.43,2.34-4.32,3.69-5.69,6.38-2.05,5.83-2.05,9.39.7,6.7,2.1,9.39c1.41,2.69,3.35,4.83,5.81,6.38,2.47,1.56,5.3,2.34,8.49,2.34Z"/>
    <path class="cls-1" d="M543.64,203.46v-56.94h11.96l.57,8.08c1.82-3.04,4.19-5.37,7.12-7.01,2.92-1.63,6.28-2.45,10.08-2.45,4.55,0,8.44.92,11.67,2.74s5.7,4.65,7.41,8.48c1.7,3.84,2.56,8.83,2.56,14.98v32.12h-12.76v-29.16c0-4.55-.51-8.07-1.54-10.53-1.02-2.47-2.46-4.19-4.32-5.18-1.87-.98-4.05-1.48-6.55-1.48-4.25-.08-7.55,1.33-9.91,4.22-2.35,2.88-3.53,7.02-3.53,12.41v29.72h-12.76Z"/>
    <path class="cls-1" d="M614.81,135.69c-2.05,0-3.82-.74-5.3-2.22s-2.22-3.25-2.22-5.3.74-3.8,2.22-5.24c1.48-1.44,3.24-2.16,5.3-2.16s3.82.73,5.3,2.16c1.48,1.45,2.22,3.19,2.22,5.24s-.74,3.82-2.22,5.3-3.24,2.22-5.3,2.22ZM608.43,203.46v-56.94h12.64v56.94h-12.64Z"/>
    <path class="cls-1" d="M635.18,203.46v-56.94h11.96l.57,8.08c1.82-3.04,4.19-5.37,7.12-7.01,2.92-1.63,6.28-2.45,10.08-2.45,4.55,0,8.44.92,11.67,2.74s5.7,4.65,7.41,8.48c1.7,3.84,2.56,8.83,2.56,14.98v32.12h-12.76v-29.16c0-4.55-.51-8.07-1.54-10.53-1.02-2.47-2.46-4.19-4.32-5.18-1.87-.98-4.05-1.48-6.55-1.48-4.25-.08-7.55,1.33-9.91,4.22-2.35,2.88-3.53,7.02-3.53,12.41v29.72h-12.76Z"/>
    <path class="cls-1" d="M724.26,227.71c-4.02,0-7.65-.33-10.87-1.02s-5.94-1.48-8.14-2.4c-2.2-.91-3.91-1.79-5.12-2.62l4.9-10.25c1.06.53,2.48,1.2,4.27,1.99,1.78.8,3.89,1.5,6.32,2.1s5.16.92,8.2.92c3.27,0,6.19-.67,8.77-1.99,2.58-1.33,4.59-3.36,6.04-6.1,1.44-2.73,2.16-6.22,2.16-10.47v-5.7c-1.98,3.19-4.54,5.68-7.69,7.46-3.15,1.79-6.74,2.68-10.76,2.68-5.16,0-9.66-1.18-13.49-3.53-3.84-2.35-6.84-5.64-9-9.85-2.16-4.22-3.24-9.09-3.24-14.64,0-5.92,1.08-11.04,3.24-15.37,2.16-4.33,5.16-7.71,9-10.14,3.83-2.43,8.33-3.64,13.49-3.64,4.02,0,7.61.92,10.76,2.74s5.71,4.44,7.69,7.85v-9.22h12.76v51.02c0,6.45-1.21,11.93-3.64,16.45-2.44,4.52-5.85,7.94-10.25,10.25-4.41,2.32-9.53,3.47-15.38,3.47ZM725.86,191.5c2.88,0,5.41-.75,7.57-2.28,2.16-1.51,3.85-3.58,5.06-6.21,1.21-2.62,1.82-5.63,1.82-9.05s-.61-6.54-1.82-9.16c-1.21-2.63-2.92-4.67-5.12-6.15-2.2-1.48-4.74-2.22-7.63-2.22-3.04,0-5.71.74-8.02,2.22s-4.14,3.52-5.47,6.15c-1.33,2.62-1.99,5.67-1.99,9.16s.67,6.43,1.99,9.05c1.33,2.63,3.17,4.7,5.53,6.21,2.35,1.52,5.05,2.28,8.08,2.28Z"/>
  </g>
  <g>
    <path class="cls-1" d="M793.38,203.41v-79.72h13.21v67.65h36.1v12.07h-49.31Z"/>
    <path class="cls-1" d="M870.95,204.77c-6.84,0-12.13-1.52-15.89-4.56-3.76-3.04-5.64-7.32-5.64-12.87,0-5.92,1.99-10.44,5.97-13.55,3.99-3.11,9.55-4.67,16.69-4.67h14.46c-.45-4.17-1.63-7.37-3.52-9.56-1.9-2.2-4.71-3.3-8.43-3.3-2.74,0-5.12.56-7.18,1.71-2.05,1.14-3.8,2.92-5.24,5.35l-11.16-4.1c1.21-2.51,2.82-4.84,4.84-7.01,2.01-2.16,4.55-3.88,7.63-5.18,3.07-1.29,6.78-1.94,11.1-1.94,5.54,0,10.17,1.09,13.89,3.25,3.71,2.16,6.47,5.25,8.26,9.28,1.78,4.02,2.68,8.88,2.68,14.58l-.34,31.2h-11.73l-.34-6.95c-1.52,2.66-3.63,4.71-6.32,6.15-2.69,1.44-5.95,2.16-9.74,2.16ZM872.54,194.06c2.81,0,5.3-.62,7.46-1.87,2.16-1.26,3.83-2.94,5.01-5.07,1.17-2.12,1.76-4.47,1.76-7.06v-1.14h-10.59c-5.09,0-8.66.7-10.7,2.1-2.05,1.41-3.08,3.4-3.08,5.98,0,2.21.89,3.93,2.68,5.18,1.78,1.25,4.27,1.87,7.46,1.87Z"/>
    <path class="cls-1" d="M943.12,204.77c-4.03,0-7.56-.87-10.59-2.62-3.04-1.75-5.59-4.22-7.63-7.41l-.46,8.66h-12.07v-79.72h12.76v31.2c1.98-3.11,4.48-5.53,7.52-7.23,3.04-1.71,6.53-2.57,10.48-2.57,5.16,0,9.66,1.24,13.49,3.7,3.83,2.46,6.84,5.92,9,10.36,2.16,4.44,3.24,9.7,3.24,15.78s-1.08,11.24-3.24,15.72c-2.16,4.48-5.17,7.96-9,10.42s-8.33,3.7-13.49,3.7ZM939.93,193.16c3.04,0,5.73-.78,8.08-2.34,2.35-1.56,4.23-3.7,5.64-6.43,1.4-2.74,2.1-5.89,2.1-9.45s-.67-6.72-1.99-9.45c-1.33-2.73-3.17-4.86-5.52-6.37-2.36-1.52-5.09-2.28-8.2-2.28-2.88,0-5.47.78-7.74,2.34s-4.05,3.7-5.3,6.43c-1.25,2.74-1.88,5.85-1.88,9.34s.63,6.72,1.88,9.45c1.25,2.73,2.99,4.88,5.24,6.43,2.24,1.56,4.8,2.34,7.69,2.34Z"/>
    <path class="cls-1" d="M984.87,205c-2.2,0-4.08-.78-5.64-2.34-1.56-1.55-2.34-3.43-2.34-5.63s.78-4.11,2.34-5.7,3.44-2.4,5.64-2.4,4.1.8,5.7,2.4c1.59,1.59,2.39,3.49,2.39,5.7s-.8,4.08-2.39,5.63c-1.6,1.56-3.5,2.34-5.7,2.34Z"/>
  </g>
  <path class="cls-1" d="M93.96,1.39H1.55c-.86,0-1.55.7-1.55,1.55v91.02c0,29.66,20.07,51.18,47.73,51.18s47.73-21.52,47.73-51.18V2.88c0-.82-.67-1.49-1.49-1.49ZM77.23,52.61h-10.78v5.9h10.78v11.55h-10.78v42.8l-15.52-.27-12.24-12.26-12.37,12.37-8.08-8.41,20.66-20.67,15.61,15.16v-61.7h-21.18v-10.18h33.12v15.04h10.78v10.65Z"/>
  <g>
    <path class="cls-1" d="M148.7,298.85c-1.93,0-3.68-.23-5.28-.68-1.59-.45-2.99-1.08-4.2-1.89-1.21-.81-2.2-1.71-2.99-2.71-.78-1-1.34-2.04-1.65-3.12l5.99-1.84c.45,1.3,1.34,2.43,2.67,3.41,1.33.98,2.97,1.49,4.94,1.52,2.27,0,4.08-.48,5.4-1.42,1.33-.94,2-2.18,2-3.73,0-1.4-.56-2.54-1.68-3.43-1.12-.89-2.62-1.58-4.51-2.07l-4.52-1.16c-1.71-.45-3.26-1.12-4.64-1.99-1.38-.88-2.47-1.98-3.25-3.31-.79-1.33-1.19-2.91-1.19-4.72,0-3.43,1.12-6.1,3.36-8,2.24-1.91,5.44-2.86,9.61-2.86,2.34,0,4.4.36,6.17,1.08,1.76.72,3.23,1.7,4.39,2.94,1.15,1.24,2.01,2.65,2.57,4.23l-5.88,1.89c-.53-1.41-1.44-2.56-2.73-3.47-1.3-.91-2.91-1.36-4.83-1.36s-3.57.48-4.7,1.42c-1.13.94-1.71,2.26-1.71,3.93,0,1.37.45,2.42,1.34,3.18.89.75,2.11,1.32,3.65,1.71l4.52,1.1c3.29.81,5.84,2.19,7.66,4.15,1.82,1.96,2.73,4.13,2.73,6.5,0,2.1-.51,3.96-1.52,5.56-1.02,1.61-2.51,2.87-4.49,3.78-1.98.92-4.38,1.37-7.21,1.37Z"/>
    <path class="cls-1" d="M180.12,298.85c-2.56,0-4.82-.59-6.8-1.76s-3.54-2.79-4.67-4.85c-1.14-2.06-1.71-4.44-1.71-7.14s.58-5.07,1.73-7.14c1.16-2.06,2.74-3.68,4.75-4.85,2.01-1.17,4.31-1.76,6.9-1.76,2.34,0,4.46.6,6.35,1.81s3.38,2.95,4.49,5.22c1.1,2.28,1.65,4.99,1.65,8.14h-19.79c.18,2.2.99,3.94,2.45,5.2,1.45,1.26,3.17,1.89,5.17,1.89,1.6,0,2.94-.36,3.98-1.08,1.05-.72,1.87-1.65,2.47-2.8l5.2,2.2c-.73,1.4-1.67,2.62-2.81,3.67-1.13,1.05-2.48,1.86-4.04,2.42-1.55.56-3.33.84-5.32.84ZM173.4,282h13.07c-.1-1.26-.47-2.3-1.1-3.13-.63-.82-1.41-1.44-2.31-1.86s-1.87-.63-2.89-.63-1.97.2-2.97.6c-1,.4-1.85,1.03-2.55,1.87-.7.83-1.12,1.89-1.26,3.15Z"/>
    <path class="cls-1" d="M210.7,298.85c-2.66,0-5-.59-7.03-1.76-2.04-1.17-3.62-2.79-4.78-4.85-1.15-2.06-1.73-4.44-1.73-7.14s.56-5.07,1.71-7.14c1.13-2.06,2.72-3.68,4.74-4.85s4.34-1.76,6.93-1.76,5,.59,7.03,1.76,3.61,2.79,4.75,4.85c1.13,2.06,1.71,4.44,1.71,7.14s-.57,5.07-1.71,7.14c-1.14,2.06-2.72,3.68-4.72,4.85-2.01,1.17-4.31,1.76-6.9,1.76ZM210.7,293.44c1.47,0,2.75-.35,3.86-1.07,1.1-.72,1.97-1.7,2.6-2.94.63-1.24.94-2.69.94-4.33s-.31-3.09-.94-4.33c-.63-1.24-1.52-2.22-2.65-2.94-1.14-.72-2.45-1.08-3.91-1.08s-2.77.36-3.89,1.08c-1.12.72-1.99,1.7-2.62,2.94-.63,1.24-.94,2.69-.94,4.33s.32,3.09.97,4.33c.65,1.24,1.55,2.23,2.68,2.94,1.13.72,2.44,1.07,3.91,1.07Z"/>
    <path class="cls-1" d="M239.67,298.85c-2.06,0-3.84-.42-5.32-1.26-1.49-.84-2.64-2.15-3.44-3.94-.81-1.79-1.2-4.08-1.2-6.88v-14.8h5.87v13.44c0,2.06.25,3.68.74,4.83.49,1.16,1.16,1.96,2.02,2.42.86.45,1.85.68,2.97.68,1.99.04,3.53-.61,4.61-1.94,1.09-1.33,1.63-3.24,1.63-5.72v-13.7h5.82v26.24h-5.51l-.26-3.73c-.84,1.4-1.93,2.47-3.28,3.23-1.35.75-2.9,1.13-4.65,1.13Z"/>
    <path class="cls-1" d="M260.72,298.22v-36.74h5.88v36.74h-5.88Z"/>
    <path class="cls-1" d="M286.54,298.22v-36.74h6.3l19.53,26.56v-26.56h6.08v36.74h-6.08l-19.74-26.87v26.87h-6.08Z"/>
    <path class="cls-1" d="M335.14,298.85c-3.15,0-5.59-.7-7.32-2.1-1.74-1.4-2.6-3.38-2.6-5.93,0-2.73.92-4.81,2.75-6.25,1.84-1.44,4.4-2.15,7.69-2.15h6.66c-.21-1.93-.75-3.39-1.63-4.41-.87-1.01-2.17-1.52-3.88-1.52-1.26,0-2.37.26-3.31.79-.94.52-1.75,1.35-2.41,2.47l-5.15-1.89c.56-1.16,1.3-2.23,2.23-3.23.92-1,2.09-1.79,3.51-2.39,1.41-.6,3.12-.89,5.12-.89,2.56,0,4.69.5,6.4,1.49s2.99,2.42,3.81,4.28c.82,1.86,1.23,4.09,1.23,6.72l-.15,14.38h-5.4l-.16-3.2c-.7,1.22-1.67,2.17-2.91,2.83-1.24.66-2.74,1-4.49,1ZM335.88,293.91c1.3,0,2.44-.29,3.43-.86,1-.58,1.77-1.35,2.31-2.34.54-.98.81-2.06.81-3.26v-.52h-4.88c-2.34,0-3.99.32-4.94.97-.94.65-1.41,1.57-1.41,2.76,0,1.01.41,1.81,1.23,2.39.83.58,1.97.86,3.44.86Z"/>
    <path class="cls-1" d="M365.07,298.85c-2.77,0-4.88-.7-6.33-2.07-1.45-1.38-2.17-3.37-2.17-5.96v-13.8h-4.36v-5.04h4.36v-8.19h5.82v8.19h7.09v5.04h-7.09v12.7c0,1.22.29,2.15.87,2.78.57.63,1.42.94,2.54.94.35,0,.74-.07,1.16-.21s.89-.4,1.41-.79l2.15,4.47c-.91.63-1.82,1.11-2.72,1.44-.92.33-1.82.5-2.73.5Z"/>
    <path class="cls-1" d="M379.12,266.99c-.94,0-1.76-.34-2.44-1.03-.68-.68-1.03-1.49-1.03-2.44s.34-1.75,1.03-2.42c.68-.67,1.49-1,2.44-1s1.76.33,2.44,1c.68.67,1.03,1.47,1.03,2.42s-.34,1.76-1.03,2.44c-.68.68-1.49,1.03-2.44,1.03ZM376.18,298.22v-26.24h5.82v26.24h-5.82Z"/>
    <path class="cls-1" d="M401.72,298.85c-2.66,0-5-.59-7.03-1.76-2.04-1.17-3.62-2.79-4.78-4.85-1.15-2.06-1.73-4.44-1.73-7.14s.56-5.07,1.71-7.14c1.13-2.06,2.72-3.68,4.74-4.85,2.03-1.17,4.34-1.76,6.93-1.76s5,.59,7.03,1.76c2.03,1.17,3.61,2.79,4.75,4.85,1.13,2.06,1.71,4.44,1.71,7.14s-.57,5.07-1.71,7.14c-1.14,2.06-2.72,3.68-4.72,4.85-2.01,1.17-4.31,1.76-6.9,1.76ZM401.72,293.44c1.47,0,2.75-.35,3.86-1.07,1.1-.72,1.97-1.7,2.6-2.94.63-1.24.94-2.69.94-4.33s-.31-3.09-.94-4.33c-.63-1.24-1.52-2.22-2.65-2.94-1.14-.72-2.45-1.08-3.91-1.08s-2.77.36-3.89,1.08-1.99,1.7-2.62,2.94c-.63,1.24-.94,2.69-.94,4.33s.32,3.09.97,4.33c.65,1.24,1.55,2.23,2.68,2.94s2.44,1.07,3.91,1.07Z"/>
    <path class="cls-1" d="M421.09,298.22v-26.24h5.51l.26,3.73c.84-1.4,1.93-2.47,3.28-3.23,1.35-.75,2.89-1.13,4.64-1.13,2.1,0,3.9.42,5.38,1.26,1.49.83,2.62,2.15,3.41,3.91.78,1.76,1.18,4.06,1.18,6.9v14.81h-5.88v-13.44c0-2.1-.23-3.72-.7-4.85-.48-1.14-1.14-1.93-2-2.39-.86-.45-1.86-.69-3.02-.69-1.96-.03-3.48.62-4.57,1.95-1.08,1.33-1.63,3.24-1.63,5.72v13.7h-5.88Z"/>
    <path class="cls-1" d="M460.22,298.85c-3.15,0-5.59-.7-7.32-2.1-1.74-1.4-2.6-3.38-2.6-5.93,0-2.73.92-4.81,2.75-6.25,1.84-1.44,4.4-2.15,7.69-2.15h6.66c-.21-1.93-.75-3.39-1.63-4.41-.87-1.01-2.17-1.52-3.88-1.52-1.26,0-2.37.26-3.31.79-.94.52-1.75,1.35-2.41,2.47l-5.15-1.89c.56-1.16,1.3-2.23,2.23-3.23.92-1,2.09-1.79,3.51-2.39,1.41-.6,3.12-.89,5.12-.89,2.56,0,4.69.5,6.4,1.49,1.71,1,2.99,2.42,3.81,4.28.82,1.86,1.23,4.09,1.23,6.72l-.15,14.38h-5.4l-.16-3.2c-.7,1.22-1.67,2.17-2.91,2.83-1.24.66-2.74,1-4.49,1ZM460.96,293.91c1.3,0,2.44-.29,3.43-.86,1-.58,1.77-1.35,2.31-2.34s.81-2.06.81-3.26v-.52h-4.88c-2.34,0-3.99.32-4.94.97-.94.65-1.41,1.57-1.41,2.76,0,1.01.41,1.81,1.23,2.39.83.58,1.97.86,3.44.86Z"/>
    <path class="cls-1" d="M480.41,298.22v-36.74h5.88v36.74h-5.88Z"/>
    <path class="cls-1" d="M520.25,298.95c-2.91,0-5.46-.59-7.64-1.76-2.19-1.17-3.89-2.83-5.09-4.96-1.21-2.14-1.82-4.62-1.82-7.45v-23.31h6.09v23.31c0,1.71.36,3.21,1.08,4.49.72,1.27,1.72,2.27,3.02,2.99,1.3.72,2.78,1.08,4.46,1.08s3.23-.36,4.54-1.08,2.32-1.71,3.02-2.99c.7-1.28,1.05-2.78,1.05-4.49v-23.31h6.08v23.31c0,2.83-.6,5.32-1.81,7.45-1.21,2.13-2.92,3.79-5.15,4.96-2.22,1.17-4.83,1.76-7.84,1.76Z"/>
    <path class="cls-1" d="M542.83,298.22v-26.24h5.51l.26,3.73c.84-1.4,1.93-2.47,3.28-3.23,1.35-.75,2.89-1.13,4.64-1.13,2.1,0,3.9.42,5.38,1.26,1.49.83,2.62,2.15,3.41,3.91.78,1.76,1.18,4.06,1.18,6.9v14.81h-5.88v-13.44c0-2.1-.23-3.72-.7-4.85-.48-1.14-1.14-1.93-2-2.39s-1.86-.69-3.02-.69c-1.96-.03-3.48.62-4.57,1.95-1.08,1.33-1.63,3.24-1.63,5.72v13.7h-5.88Z"/>
    <path class="cls-1" d="M576.73,266.99c-.94,0-1.76-.34-2.44-1.03-.68-.68-1.03-1.49-1.03-2.44s.34-1.75,1.03-2.42c.68-.67,1.49-1,2.44-1s1.76.33,2.44,1c.68.67,1.03,1.47,1.03,2.42s-.34,1.76-1.03,2.44c-.68.68-1.49,1.03-2.44,1.03ZM573.79,298.22v-26.24h5.82v26.24h-5.82Z"/>
    <path class="cls-1" d="M595.56,298.22l-10.87-26.24h6.04l7.77,19.52,7.71-19.52h6.09l-10.82,26.24h-5.93Z"/>
    <path class="cls-1" d="M627.87,298.85c-2.56,0-4.82-.59-6.8-1.76-1.98-1.17-3.54-2.79-4.67-4.85-1.14-2.06-1.71-4.44-1.71-7.14s.58-5.07,1.73-7.14c1.16-2.06,2.74-3.68,4.75-4.85s4.31-1.76,6.9-1.76c2.34,0,4.46.6,6.35,1.81,1.89,1.21,3.38,2.95,4.49,5.22,1.1,2.28,1.65,4.99,1.65,8.14h-19.79c.18,2.2.99,3.94,2.45,5.2,1.45,1.26,3.17,1.89,5.17,1.89,1.6,0,2.94-.36,3.98-1.08,1.05-.72,1.87-1.65,2.47-2.8l5.2,2.2c-.73,1.4-1.67,2.62-2.81,3.67-1.13,1.05-2.48,1.86-4.04,2.42-1.55.56-3.33.84-5.32.84ZM621.15,282h13.07c-.1-1.26-.47-2.3-1.1-3.13-.63-.82-1.41-1.44-2.31-1.86s-1.87-.63-2.89-.63-1.97.2-2.97.6c-1,.4-1.85,1.03-2.55,1.87-.7.83-1.12,1.89-1.26,3.15Z"/>
    <path class="cls-1" d="M646.2,298.22v-26.24h5.88v4.77c1.05-1.65,2.42-2.87,4.09-3.68,1.68-.81,3.41-1.21,5.2-1.21v5.62c-1.61,0-3.13.22-4.54.66-1.42.44-2.56,1.15-3.44,2.12-.87.98-1.31,2.28-1.31,3.89v14.07h-5.88Z"/>
    <path class="cls-1" d="M675.87,298.85c-1.75,0-3.36-.26-4.83-.79-1.47-.52-2.73-1.27-3.79-2.23-1.05-.97-1.85-2.09-2.41-3.39l5.09-2.26c.53.98,1.3,1.8,2.34,2.47,1.03.67,2.17,1,3.43,1,1.37,0,2.46-.23,3.28-.71.83-.47,1.24-1.13,1.24-1.96s-.31-1.43-.94-1.87c-.63-.44-1.52-.8-2.68-1.08l-2.47-.68c-2.48-.63-4.42-1.63-5.82-3.02-1.4-1.38-2.1-2.97-2.1-4.75,0-2.62.85-4.65,2.55-6.08,1.69-1.44,4.14-2.15,7.32-2.15,1.6,0,3.08.23,4.43.71,1.35.47,2.51,1.13,3.49,1.99.98.86,1.66,1.86,2.05,3.02l-4.88,2.2c-.35-.87-1.02-1.55-1.99-2.02-.98-.47-2.06-.71-3.26-.71s-2.12.26-2.78.76c-.67.51-1,1.22-1,2.13,0,.52.3,1,.89,1.44s1.45.79,2.57,1.08l3.1.73c1.71.42,3.11,1.08,4.2,1.97,1.08.89,1.89,1.89,2.41,2.99.53,1.11.79,2.22.79,3.34,0,1.57-.45,2.95-1.34,4.14-.89,1.19-2.11,2.11-3.65,2.75-1.55.65-3.29.97-5.25.97Z"/>
    <path class="cls-1" d="M694.72,266.99c-.94,0-1.76-.34-2.44-1.03-.68-.68-1.03-1.49-1.03-2.44s.34-1.75,1.03-2.42c.68-.67,1.49-1,2.44-1s1.76.33,2.44,1c.68.67,1.03,1.47,1.03,2.42s-.34,1.76-1.03,2.44-1.49,1.03-2.44,1.03ZM691.79,298.22v-26.24h5.82v26.24h-5.82Z"/>
    <path class="cls-1" d="M715.74,298.85c-2.77,0-4.88-.7-6.33-2.07-1.45-1.38-2.17-3.37-2.17-5.96v-13.8h-4.36v-5.04h4.36v-8.19h5.82v8.19h7.09v5.04h-7.09v12.7c0,1.22.29,2.15.87,2.78.57.63,1.42.94,2.54.94.35,0,.74-.07,1.16-.21s.89-.4,1.41-.79l2.15,4.47c-.91.63-1.82,1.11-2.72,1.44-.92.33-1.82.5-2.73.5Z"/>
    <path class="cls-1" d="M732.02,309.34c-.84,0-1.78-.15-2.81-.47s-2.02-.72-2.97-1.21l2.2-4.77c.67.31,1.28.56,1.84.76.56.19,1.02.29,1.37.29.83,0,1.55-.22,2.12-.66.58-.43,1.04-1.07,1.39-1.91l1.41-3.36-11.65-26.03h6.41l7.97,19.32,7.82-19.32h6.41l-12.18,29.03c-.74,1.68-1.48,3.15-2.23,4.41-.75,1.26-1.69,2.23-2.81,2.91-1.12.68-2.55,1.02-4.3,1.02Z"/>
  </g>
</svg>