<?xml version="1.0" encoding="UTF-8"?>
<svg id="_레이어_1" data-name="레이어_1" xmlns="http://www.w3.org/2000/svg" viewBox="0 0 1258.46 72.66">
  <g>
    <path d="M83.13,57.75V8.75h8.68l15.4,22.68,15.26-22.68h8.75v49.01h-8.12V21.56l-15.96,23.59-15.89-23.46v36.06h-8.12Z"/>
    <path d="M151.99,58.6c-4.2,0-7.46-.94-9.77-2.8-2.31-1.87-3.47-4.5-3.47-7.91,0-3.64,1.23-6.42,3.67-8.33,2.45-1.91,5.87-2.87,10.26-2.87h8.89c-.28-2.57-1-4.53-2.17-5.88-1.17-1.35-2.9-2.03-5.18-2.03-1.68,0-3.15.35-4.41,1.05-1.26.7-2.34,1.79-3.22,3.29l-6.86-2.52c.75-1.54,1.74-2.98,2.98-4.31,1.24-1.33,2.8-2.39,4.69-3.18,1.89-.79,4.17-1.19,6.83-1.19,3.4,0,6.25.67,8.54,2,2.28,1.33,3.98,3.23,5.08,5.71,1.09,2.47,1.65,5.46,1.65,8.96l-.21,19.18h-7.21l-.21-4.27c-.94,1.64-2.23,2.89-3.89,3.78-1.66.88-3.66,1.33-5.99,1.33ZM152.97,52.01c1.73,0,3.26-.38,4.59-1.15,1.33-.77,2.36-1.81,3.08-3.12.72-1.3,1.08-2.75,1.08-4.34v-.7h-6.51c-3.13,0-5.32.43-6.58,1.29-1.26.87-1.89,2.09-1.89,3.68,0,1.36.55,2.41,1.65,3.19,1.09.77,2.62,1.15,4.59,1.15Z"/>
    <path d="M193.97,58.6c-3.59,0-6.77-.78-9.52-2.35-2.76-1.56-4.91-3.72-6.47-6.48-1.57-2.75-2.35-5.93-2.35-9.52s.78-6.77,2.35-9.52c1.56-2.76,3.71-4.91,6.44-6.48,2.73-1.56,5.87-2.35,9.42-2.35s6.58.83,9.38,2.49c2.8,1.66,4.88,4.02,6.23,7.11l-7.28,2.8c-.75-1.54-1.89-2.77-3.43-3.71-1.54-.93-3.29-1.4-5.25-1.4s-3.62.48-5.11,1.44c-1.49.96-2.66,2.26-3.5,3.92s-1.26,3.56-1.26,5.71.43,4.05,1.29,5.71c.87,1.66,2.06,2.97,3.57,3.92,1.52.96,3.23,1.44,5.15,1.44s3.71-.5,5.25-1.5c1.54-1,2.68-2.37,3.43-4.1l7.28,2.8c-1.36,3.17-3.42,5.65-6.2,7.42s-5.92,2.66-9.42,2.66Z"/>
    <path d="M215.22,57.75V8.75h7.84v18.76c1.16-1.82,2.63-3.21,4.41-4.17s3.78-1.44,6.02-1.44c2.76,0,5.13.56,7.14,1.68,2,1.12,3.53,2.86,4.59,5.21,1.05,2.36,1.57,5.43,1.57,9.21v19.74h-7.84v-17.92c0-2.8-.33-4.96-.98-6.47-.65-1.52-1.55-2.58-2.69-3.19-1.15-.6-2.47-.91-3.96-.91-2.66-.05-4.7.82-6.12,2.59-1.43,1.77-2.14,4.32-2.14,7.63v18.27h-7.84Z"/>
    <path d="M258.96,16.09c-1.26,0-2.35-.45-3.26-1.36s-1.37-2-1.37-3.26.46-2.34,1.37-3.22c.91-.88,1.99-1.33,3.26-1.33s2.35.45,3.26,1.33c.91.89,1.37,1.96,1.37,3.22s-.46,2.35-1.37,3.26-1.99,1.36-3.26,1.36ZM255.04,57.75V22.75h7.77v35.01h-7.77Z"/>
    <path d="M271.49,57.75V22.75h7.35l.35,4.97c1.12-1.87,2.58-3.3,4.38-4.31,1.79-1,3.86-1.5,6.2-1.5,2.8,0,5.19.56,7.17,1.68,1.98,1.12,3.5,2.86,4.55,5.21,1.05,2.36,1.57,5.43,1.57,9.21v19.74h-7.84v-17.92c0-2.8-.32-4.96-.95-6.47-.63-1.52-1.51-2.58-2.66-3.19-1.15-.6-2.49-.91-4.03-.91-2.61-.05-4.64.82-6.09,2.59-1.45,1.77-2.17,4.32-2.17,7.63v18.27h-7.84Z"/>
    <path d="M326.81,58.6c-3.41,0-6.43-.78-9.07-2.35-2.63-1.56-4.71-3.72-6.23-6.48-1.51-2.75-2.27-5.93-2.27-9.52s.77-6.77,2.31-9.52c1.54-2.76,3.65-4.91,6.34-6.48,2.68-1.56,5.75-2.35,9.2-2.35,3.13,0,5.95.8,8.47,2.42,2.52,1.61,4.52,3.93,5.99,6.96,1.47,3.03,2.2,6.65,2.2,10.85h-26.39c.23,2.95,1.31,5.25,3.26,6.93,1.94,1.68,4.23,2.52,6.9,2.52,2.15,0,3.92-.48,5.32-1.44,1.4-.96,2.49-2.21,3.29-3.75l6.93,2.95c-.98,1.87-2.23,3.5-3.74,4.9-1.51,1.4-3.31,2.48-5.39,3.22s-4.44,1.12-7.11,1.12ZM317.85,36.12h17.44c-.14-1.68-.63-3.07-1.47-4.17-.84-1.1-1.87-1.93-3.08-2.49-1.21-.56-2.49-.84-3.85-.84s-2.62.27-3.96.8c-1.33.54-2.46,1.37-3.4,2.49-.93,1.12-1.49,2.52-1.68,4.2Z"/>
    <path d="M367.98,57.75V8.75h17.29c3.31,0,6.26.67,8.86,2.03,2.59,1.35,4.61,3.23,6.05,5.63,1.45,2.4,2.17,5.2,2.17,8.37s-.68,5.9-2.03,8.3-3.25,4.29-5.67,5.67c-2.43,1.38-5.21,2.06-8.33,2.06h-10.22v16.95h-8.12ZM376.1,33.32h10.08c2.34,0,4.24-.79,5.74-2.38,1.49-1.59,2.24-3.64,2.24-6.16s-.84-4.64-2.52-6.23c-1.68-1.58-3.85-2.38-6.51-2.38h-9.03v17.15Z"/>
    <path d="M422.91,58.6c-3.41,0-6.43-.78-9.07-2.35-2.63-1.56-4.71-3.72-6.23-6.48-1.51-2.75-2.27-5.93-2.27-9.52s.77-6.77,2.31-9.52c1.54-2.76,3.65-4.91,6.34-6.48,2.68-1.56,5.75-2.35,9.2-2.35,3.13,0,5.95.8,8.47,2.42,2.52,1.61,4.52,3.93,5.99,6.96,1.47,3.03,2.2,6.65,2.2,10.85h-26.39c.23,2.95,1.31,5.25,3.26,6.93,1.94,1.68,4.23,2.52,6.9,2.52,2.15,0,3.92-.48,5.32-1.44s2.49-2.21,3.29-3.75l6.93,2.95c-.98,1.87-2.23,3.5-3.74,4.9-1.51,1.4-3.31,2.48-5.39,3.22-2.08.75-4.44,1.12-7.11,1.12ZM413.95,36.12h17.44c-.14-1.68-.63-3.07-1.47-4.17-.84-1.1-1.87-1.93-3.08-2.49-1.21-.56-2.49-.84-3.85-.84s-2.62.27-3.96.8-2.46,1.37-3.4,2.49c-.93,1.12-1.49,2.52-1.68,4.2Z"/>
    <path d="M445.92,57.75V22.75h7.84v6.37c1.4-2.19,3.22-3.82,5.46-4.9s4.55-1.61,6.93-1.61v7.49c-2.15,0-4.17.29-6.06.87-1.89.58-3.42,1.53-4.59,2.83-1.17,1.31-1.75,3.03-1.75,5.18v18.77h-7.84Z"/>
    <path d="M486.7,58.6c-3.59,0-6.77-.78-9.52-2.35-2.76-1.56-4.91-3.72-6.47-6.48-1.57-2.75-2.35-5.93-2.35-9.52s.78-6.77,2.35-9.52c1.56-2.76,3.71-4.91,6.44-6.48,2.73-1.56,5.87-2.35,9.42-2.35s6.58.83,9.38,2.49c2.8,1.66,4.88,4.02,6.23,7.11l-7.28,2.8c-.75-1.54-1.89-2.77-3.43-3.71-1.54-.93-3.29-1.4-5.25-1.4s-3.62.48-5.11,1.44c-1.49.96-2.66,2.26-3.5,3.92s-1.26,3.56-1.26,5.71.43,4.05,1.29,5.71c.87,1.66,2.06,2.97,3.57,3.92,1.52.96,3.23,1.44,5.15,1.44s3.71-.5,5.25-1.5c1.54-1,2.68-2.37,3.43-4.1l7.28,2.8c-1.36,3.17-3.42,5.65-6.2,7.42-2.78,1.77-5.92,2.66-9.42,2.66Z"/>
    <path d="M523.53,58.6c-3.41,0-6.43-.78-9.07-2.35-2.63-1.56-4.71-3.72-6.23-6.48-1.51-2.75-2.27-5.93-2.27-9.52s.77-6.77,2.31-9.52c1.54-2.76,3.65-4.91,6.34-6.48,2.68-1.56,5.75-2.35,9.2-2.35,3.13,0,5.95.8,8.47,2.42,2.52,1.61,4.52,3.93,5.99,6.96,1.47,3.03,2.2,6.65,2.2,10.85h-26.39c.23,2.95,1.31,5.25,3.26,6.93,1.94,1.68,4.23,2.52,6.9,2.52,2.15,0,3.92-.48,5.32-1.44s2.49-2.21,3.29-3.75l6.93,2.95c-.98,1.87-2.23,3.5-3.74,4.9-1.51,1.4-3.31,2.48-5.39,3.22s-4.44,1.12-7.11,1.12ZM514.57,36.12h17.44c-.14-1.68-.63-3.07-1.47-4.17-.84-1.1-1.87-1.93-3.08-2.49-1.21-.56-2.49-.84-3.85-.84s-2.62.27-3.96.8-2.46,1.37-3.4,2.49c-.93,1.12-1.49,2.52-1.68,4.2Z"/>
    <path d="M546.71,71.75V22.75h7.35l.35,5.32c1.21-1.96,2.77-3.48,4.65-4.55,1.89-1.07,4.08-1.61,6.55-1.61,3.18,0,5.94.76,8.3,2.28,2.36,1.51,4.2,3.64,5.53,6.37,1.33,2.73,2,5.96,2,9.7s-.67,6.91-2,9.66c-1.33,2.76-3.17,4.89-5.53,6.41-2.36,1.51-5.12,2.28-8.3,2.28-2.42,0-4.58-.54-6.44-1.61-1.87-1.07-3.4-2.55-4.62-4.41v19.18h-7.84ZM563.66,51.45c1.87,0,3.52-.48,4.98-1.44,1.45-.96,2.6-2.28,3.47-3.96.86-1.68,1.29-3.62,1.29-5.81s-.41-4.13-1.23-5.81c-.82-1.68-1.95-2.99-3.4-3.92-1.45-.94-3.12-1.4-5.04-1.4-1.78,0-3.36.48-4.76,1.44-1.4.96-2.49,2.28-3.26,3.96-.77,1.68-1.15,3.6-1.15,5.74s.38,4.13,1.15,5.81c.77,1.68,1.85,3,3.22,3.96s2.95,1.44,4.72,1.44Z"/>
    <path d="M600.87,58.6c-3.69,0-6.5-.92-8.44-2.77s-2.9-4.49-2.9-7.95v-18.41h-5.81v-6.72h5.81v-10.92h7.77v10.92h9.45v6.72h-9.45v16.94c0,1.64.38,2.87,1.15,3.71.77.84,1.9,1.26,3.4,1.26.46,0,.98-.09,1.54-.28.56-.18,1.19-.54,1.89-1.05l2.87,5.95c-1.21.84-2.43,1.48-3.64,1.92-1.21.45-2.43.67-3.64.67Z"/>
    <path d="M618.11,16.09c-1.26,0-2.35-.45-3.26-1.36-.91-.91-1.37-2-1.37-3.26s.46-2.34,1.37-3.22c.91-.88,1.99-1.33,3.26-1.33s2.35.45,3.26,1.33c.91.89,1.37,1.96,1.37,3.22s-.46,2.35-1.37,3.26-1.99,1.36-3.26,1.36ZM614.19,57.75V22.75h7.77v35.01h-7.77Z"/>
    <path d="M646.75,58.6c-3.54,0-6.67-.78-9.38-2.35s-4.83-3.72-6.37-6.48c-1.54-2.75-2.31-5.93-2.31-9.52s.76-6.77,2.27-9.52c1.52-2.76,3.63-4.91,6.34-6.48,2.71-1.56,5.79-2.35,9.24-2.35s6.67.78,9.38,2.35c2.71,1.57,4.82,3.72,6.34,6.48,1.51,2.75,2.27,5.93,2.27,9.52s-.76,6.77-2.27,9.52c-1.52,2.76-3.62,4.92-6.3,6.48-2.69,1.56-5.75,2.35-9.21,2.35ZM646.75,51.39c1.96,0,3.68-.48,5.15-1.44,1.47-.96,2.62-2.27,3.46-3.92.84-1.66,1.26-3.58,1.26-5.77s-.42-4.12-1.26-5.77c-.84-1.66-2.01-2.97-3.53-3.92-1.51-.96-3.26-1.44-5.22-1.44s-3.69.48-5.18,1.44-2.66,2.27-3.5,3.92-1.26,3.58-1.26,5.77.43,4.12,1.29,5.77c.87,1.66,2.06,2.97,3.57,3.92,1.52.96,3.26,1.44,5.22,1.44Z"/>
    <path d="M671.13,57.75V22.75h7.35l.35,4.97c1.12-1.87,2.58-3.3,4.38-4.31,1.79-1,3.86-1.5,6.2-1.5,2.8,0,5.19.56,7.17,1.68,1.98,1.12,3.5,2.86,4.55,5.21,1.05,2.36,1.57,5.43,1.57,9.21v19.74h-7.84v-17.92c0-2.8-.32-4.96-.95-6.47-.63-1.52-1.51-2.58-2.66-3.19-1.15-.6-2.49-.91-4.03-.91-2.61-.05-4.64.82-6.09,2.59-1.45,1.77-2.17,4.32-2.17,7.63v18.27h-7.84Z"/>
    <path d="M740.94,58.73c-2.85,0-5.37-.56-7.56-1.68-2.19-1.12-3.92-2.66-5.18-4.62-1.26-1.96-1.89-4.2-1.89-6.72,0-1.87.36-3.58,1.08-5.14.72-1.56,1.69-3,2.9-4.31,1.21-1.3,2.59-2.47,4.13-3.5l8.05-5.53c.93-.65,1.89-1.35,2.87-2.1.98-.75,1.83-1.61,2.55-2.59.73-.98,1.09-2.1,1.09-3.36,0-1.54-.55-2.75-1.65-3.64-1.1-.89-2.49-1.33-4.17-1.33-1.49,0-2.77.47-3.82,1.4-1.05.94-1.57,2.1-1.57,3.5,0,1.26.39,2.38,1.19,3.36.79.98,1.73,2.15,2.8,3.5l9.03,10.86,17.29,20.93h-9.31l-13.86-16.59-9.25-11.2c-1.21-1.54-2.24-2.9-3.08-4.1-.84-1.19-1.46-2.33-1.86-3.43-.4-1.09-.59-2.23-.59-3.4,0-2.15.57-4.07,1.71-5.77,1.14-1.7,2.67-3.05,4.59-4.02,1.91-.98,4.06-1.47,6.44-1.47,2.61,0,4.93.49,6.96,1.47,2.03.98,3.63,2.34,4.8,4.06s1.75,3.73,1.75,6.02c0,1.87-.49,3.62-1.47,5.25-.98,1.64-2.37,3.22-4.17,4.76-1.8,1.54-3.91,3.18-6.34,4.9l-5.04,3.43c-.89.61-1.7,1.29-2.45,2.04s-1.35,1.58-1.82,2.52c-.47.93-.7,2.05-.7,3.36,0,1.87.64,3.39,1.92,4.59,1.28,1.19,2.95,1.78,5.01,1.78s4.21-.35,6.2-1.05c1.98-.7,3.76-1.71,5.32-3.05,1.56-1.33,2.79-2.95,3.67-4.86.89-1.91,1.33-4.08,1.33-6.51h7.49c0,4.3-1.05,8.12-3.15,11.48-2.1,3.36-4.99,6-8.65,7.92-3.67,1.91-7.88,2.87-12.64,2.87Z"/>
    <path d="M790.78,57.75V8.75h17.29c3.36,0,6.32.65,8.89,1.96,2.57,1.31,4.57,3.12,6.02,5.43,1.45,2.31,2.17,4.98,2.17,8.02,0,3.22-.89,6.06-2.66,8.51s-4.11,4.26-7,5.42l11.62,19.68h-9.17l-10.5-18.13c-.28.05-.57.07-.87.07h-7.67v18.06h-8.12ZM798.9,32.2h9.52c1.58,0,3-.35,4.23-1.05,1.24-.7,2.24-1.65,3.01-2.87.77-1.21,1.16-2.59,1.16-4.13,0-2.33-.84-4.24-2.52-5.74-1.68-1.49-3.85-2.24-6.51-2.24h-8.89v16.03Z"/>
    <path d="M848.01,58.6c-3.41,0-6.43-.78-9.07-2.35-2.63-1.56-4.71-3.72-6.23-6.48-1.51-2.75-2.27-5.93-2.27-9.52s.77-6.77,2.31-9.52c1.54-2.76,3.65-4.91,6.34-6.48,2.68-1.56,5.75-2.35,9.2-2.35,3.13,0,5.95.8,8.47,2.42,2.52,1.61,4.52,3.93,5.99,6.96,1.47,3.03,2.2,6.65,2.2,10.85h-26.39c.23,2.95,1.31,5.25,3.26,6.93,1.94,1.68,4.23,2.52,6.9,2.52,2.15,0,3.92-.48,5.32-1.44s2.49-2.21,3.29-3.75l6.93,2.95c-.98,1.87-2.23,3.5-3.74,4.9-1.51,1.4-3.31,2.48-5.39,3.22s-4.44,1.12-7.11,1.12ZM839.04,36.12h17.44c-.14-1.68-.63-3.07-1.47-4.17-.84-1.1-1.87-1.93-3.08-2.49-1.21-.56-2.49-.84-3.85-.84s-2.62.27-3.96.8c-1.33.54-2.46,1.37-3.4,2.49-.93,1.12-1.49,2.52-1.68,4.2Z"/>
    <path d="M882.32,58.6c-4.2,0-7.46-.94-9.77-2.8-2.31-1.87-3.47-4.5-3.47-7.91,0-3.64,1.23-6.42,3.67-8.33,2.45-1.91,5.87-2.87,10.26-2.87h8.89c-.28-2.57-1-4.53-2.17-5.88-1.17-1.35-2.9-2.03-5.18-2.03-1.68,0-3.15.35-4.41,1.05-1.26.7-2.34,1.79-3.22,3.29l-6.86-2.52c.75-1.54,1.74-2.98,2.98-4.31,1.24-1.33,2.8-2.39,4.69-3.18,1.89-.79,4.17-1.19,6.83-1.19,3.4,0,6.25.67,8.54,2,2.28,1.33,3.98,3.23,5.08,5.71,1.09,2.47,1.65,5.46,1.65,8.96l-.21,19.18h-7.21l-.21-4.27c-.94,1.64-2.23,2.89-3.89,3.78-1.66.88-3.66,1.33-5.99,1.33ZM883.3,52.01c1.73,0,3.26-.38,4.59-1.15,1.33-.77,2.36-1.81,3.08-3.12.72-1.3,1.08-2.75,1.08-4.34v-.7h-6.51c-3.13,0-5.32.43-6.58,1.29-1.26.87-1.89,2.09-1.89,3.68,0,1.36.55,2.41,1.65,3.19,1.09.77,2.62,1.15,4.59,1.15Z"/>
    <path d="M919.98,58.6c-2.34,0-4.48-.35-6.44-1.05-1.96-.7-3.64-1.69-5.04-2.98s-2.48-2.79-3.22-4.51l6.79-3.01c.7,1.31,1.74,2.4,3.11,3.29,1.38.89,2.91,1.33,4.59,1.33,1.82,0,3.28-.32,4.38-.95,1.1-.63,1.65-1.5,1.65-2.62s-.42-1.9-1.26-2.49c-.84-.58-2.03-1.06-3.57-1.44l-3.29-.91c-3.31-.84-5.91-2.18-7.77-4.02-1.87-1.85-2.8-3.96-2.8-6.34,0-3.5,1.13-6.21,3.39-8.12,2.27-1.91,5.52-2.87,9.77-2.87,2.15,0,4.12.32,5.92.95s3.35,1.51,4.65,2.66c1.31,1.14,2.22,2.48,2.73,4.02l-6.51,2.94c-.47-1.16-1.36-2.06-2.66-2.69-1.31-.63-2.76-.95-4.34-.95s-2.82.34-3.71,1.02c-.89.68-1.33,1.63-1.33,2.83,0,.7.39,1.35,1.19,1.92.79.58,1.94,1.06,3.43,1.44l4.13.98c2.29.56,4.15,1.44,5.6,2.62s2.52,2.52,3.22,3.99c.7,1.47,1.05,2.95,1.05,4.44,0,2.1-.59,3.94-1.78,5.53-1.19,1.58-2.81,2.81-4.87,3.67-2.05.87-4.39,1.3-7,1.3Z"/>
    <path d="M955.47,58.6c-3.54,0-6.67-.78-9.38-2.35-2.71-1.56-4.83-3.72-6.37-6.48-1.54-2.75-2.31-5.93-2.31-9.52s.76-6.77,2.27-9.52c1.52-2.76,3.63-4.91,6.34-6.48,2.71-1.56,5.79-2.35,9.24-2.35s6.67.78,9.38,2.35c2.71,1.57,4.82,3.72,6.34,6.48,1.51,2.75,2.27,5.93,2.27,9.52s-.76,6.77-2.27,9.52c-1.52,2.76-3.62,4.92-6.3,6.48-2.69,1.56-5.75,2.35-9.21,2.35ZM955.47,51.39c1.96,0,3.68-.48,5.15-1.44,1.47-.96,2.62-2.27,3.46-3.92.84-1.66,1.26-3.58,1.26-5.77s-.42-4.12-1.26-5.77c-.84-1.66-2.01-2.97-3.53-3.92-1.51-.96-3.26-1.44-5.22-1.44s-3.69.48-5.18,1.44-2.66,2.27-3.5,3.92-1.26,3.58-1.26,5.77.43,4.12,1.29,5.77c.87,1.66,2.06,2.97,3.57,3.92,1.52.96,3.26,1.44,5.22,1.44Z"/>
    <path d="M979.85,57.75V22.75h7.35l.35,4.97c1.12-1.87,2.58-3.3,4.38-4.31,1.79-1,3.86-1.5,6.2-1.5,2.8,0,5.19.56,7.17,1.68,1.98,1.12,3.5,2.86,4.55,5.21,1.05,2.36,1.57,5.43,1.57,9.21v19.74h-7.84v-17.92c0-2.8-.32-4.96-.95-6.47-.63-1.52-1.51-2.58-2.66-3.19-1.15-.6-2.49-.91-4.03-.91-2.61-.05-4.64.82-6.09,2.59-1.45,1.77-2.17,4.32-2.17,7.63v18.27h-7.84Z"/>
    <path d="M1023.6,16.09c-1.26,0-2.35-.45-3.26-1.36-.91-.91-1.37-2-1.37-3.26s.46-2.34,1.37-3.22c.91-.88,1.99-1.33,3.26-1.33s2.35.45,3.26,1.33c.91.89,1.37,1.96,1.37,3.22s-.46,2.35-1.37,3.26c-.91.91-1.99,1.36-3.26,1.36ZM1019.68,57.75V22.75h7.77v35.01h-7.77Z"/>
    <path d="M1036.13,57.75V22.75h7.35l.35,4.97c1.12-1.87,2.58-3.3,4.38-4.31,1.79-1,3.86-1.5,6.2-1.5,2.8,0,5.19.56,7.17,1.68,1.98,1.12,3.5,2.86,4.55,5.21,1.05,2.36,1.57,5.43,1.57,9.21v19.74h-7.84v-17.92c0-2.8-.32-4.96-.95-6.47-.63-1.52-1.51-2.58-2.66-3.19-1.15-.6-2.49-.91-4.03-.91-2.61-.05-4.64.82-6.09,2.59-1.45,1.77-2.17,4.32-2.17,7.63v18.27h-7.84Z"/>
    <path d="M1090.89,72.66c-2.47,0-4.7-.21-6.68-.63s-3.65-.91-5.01-1.47c-1.35-.56-2.4-1.1-3.15-1.61l3.01-6.3c.65.33,1.53.74,2.62,1.23,1.09.49,2.39.92,3.89,1.29,1.49.37,3.17.56,5.04.56,2.01,0,3.8-.41,5.39-1.23,1.59-.82,2.82-2.07,3.71-3.75.88-1.68,1.33-3.82,1.33-6.44v-3.5c-1.21,1.96-2.79,3.49-4.73,4.59-1.94,1.1-4.14,1.65-6.62,1.65-3.17,0-5.94-.73-8.29-2.17-2.36-1.45-4.2-3.47-5.53-6.05-1.33-2.59-1.99-5.59-1.99-9,0-3.64.66-6.79,1.99-9.45,1.33-2.66,3.17-4.74,5.53-6.23,2.36-1.49,5.12-2.24,8.29-2.24,2.47,0,4.68.56,6.62,1.68,1.94,1.12,3.51,2.73,4.73,4.83v-5.67h7.84v31.37c0,3.97-.75,7.34-2.24,10.11-1.5,2.78-3.6,4.88-6.3,6.3-2.71,1.43-5.86,2.14-9.46,2.14ZM1091.87,50.4c1.77,0,3.32-.46,4.65-1.4,1.33-.93,2.37-2.2,3.11-3.82.75-1.61,1.12-3.46,1.12-5.56s-.37-4.02-1.12-5.63c-.75-1.61-1.79-2.87-3.15-3.78-1.35-.91-2.91-1.37-4.69-1.37-1.87,0-3.51.46-4.93,1.37-1.43.91-2.55,2.17-3.36,3.78-.82,1.61-1.23,3.49-1.23,5.63s.41,3.96,1.23,5.56c.82,1.61,1.95,2.89,3.4,3.82,1.45.94,3.1,1.4,4.97,1.4Z"/>
    <path d="M1135.77,57.75V8.75h8.12v41.59h22.19v7.42h-30.32Z"/>
    <path d="M1183.45,58.6c-4.2,0-7.46-.94-9.77-2.8-2.31-1.87-3.47-4.5-3.47-7.91,0-3.64,1.23-6.42,3.67-8.33,2.45-1.91,5.87-2.87,10.26-2.87h8.89c-.28-2.57-1-4.53-2.17-5.88-1.17-1.35-2.9-2.03-5.18-2.03-1.68,0-3.15.35-4.41,1.05-1.26.7-2.34,1.79-3.22,3.29l-6.86-2.52c.75-1.54,1.74-2.98,2.98-4.31,1.24-1.33,2.8-2.39,4.69-3.18,1.89-.79,4.17-1.19,6.83-1.19,3.4,0,6.25.67,8.54,2,2.28,1.33,3.98,3.23,5.08,5.71,1.09,2.47,1.65,5.46,1.65,8.96l-.21,19.18h-7.21l-.21-4.27c-.94,1.64-2.23,2.89-3.89,3.78-1.66.88-3.66,1.33-5.99,1.33ZM1184.43,52.01c1.73,0,3.26-.38,4.59-1.15,1.33-.77,2.36-1.81,3.08-3.12.72-1.3,1.08-2.75,1.08-4.34v-.7h-6.51c-3.13,0-5.32.43-6.58,1.29-1.26.87-1.89,2.09-1.89,3.68,0,1.36.55,2.41,1.65,3.19,1.09.77,2.62,1.15,4.59,1.15Z"/>
    <path d="M1227.82,58.6c-2.48,0-4.65-.54-6.51-1.61-1.87-1.07-3.43-2.59-4.69-4.55l-.28,5.32h-7.42V8.75h7.84v19.18c1.21-1.91,2.76-3.4,4.62-4.44,1.87-1.05,4.01-1.58,6.44-1.58,3.17,0,5.94.76,8.29,2.28,2.36,1.51,4.2,3.64,5.53,6.37,1.33,2.73,1.99,5.96,1.99,9.7s-.66,6.91-1.99,9.66c-1.33,2.76-3.18,4.89-5.53,6.41s-5.12,2.28-8.29,2.28ZM1225.86,51.45c1.87,0,3.52-.48,4.97-1.44s2.6-2.28,3.47-3.96c.86-1.68,1.29-3.62,1.29-5.81s-.41-4.13-1.23-5.81c-.82-1.68-1.95-2.99-3.39-3.92-1.45-.94-3.13-1.4-5.04-1.4-1.77,0-3.36.48-4.76,1.44s-2.49,2.28-3.26,3.96c-.77,1.68-1.16,3.6-1.16,5.74s.39,4.13,1.16,5.81c.77,1.68,1.84,3,3.22,3.96s2.95,1.44,4.73,1.44Z"/>
    <path d="M1253.49,58.73c-1.35,0-2.51-.48-3.47-1.44-.96-.95-1.44-2.11-1.44-3.46s.48-2.52,1.44-3.5c.96-.98,2.11-1.47,3.47-1.47s2.52.49,3.5,1.47c.98.98,1.47,2.15,1.47,3.5s-.49,2.51-1.47,3.46c-.98.96-2.15,1.44-3.5,1.44Z"/>
  </g>
  <path d="M45.57,0H.75c-.42,0-.75.32-.75.72v42.11c0,13.72,9.73,23.68,23.14,23.68s23.15-9.96,23.15-23.68V.69c0-.38-.32-.69-.72-.69ZM37.45,23.69h-5.23v2.73h5.23v5.34h-5.23v19.8l-7.53-.12-5.94-5.67-6,5.72-3.92-3.89,10.02-9.56,7.57,7.01v-28.54h-10.27v-4.71h16.06v6.96h5.23v4.93Z"/>
</svg>