<?xml version="1.0" encoding="UTF-8"?>
<svg id="Layer_2" data-name="Layer 2" xmlns="http://www.w3.org/2000/svg" viewBox="0 0 170 170">
  <defs>
    <style>
      .cls-1 {
        fill: none;
      }
    </style>
  </defs>
  <g id="Layer_1-2" data-name="Layer 1">
    <g>
      <rect class="cls-1" width="170" height="170"/>
      <path d="M5.67,29.75c.44-.91.3-2.13.45-3.18,1.7-11.8,10.05-13.51,20.2-9.87,13.83,4.97,26.62,18.46,35.79,29.61,8.75,10.63,16.63,22.24,22.96,34.47,6.44-12.38,14.37-24.02,23.25-34.76,6.51-7.87,14.21-16.15,22.47-22.17,11.11-8.1,32.03-16.9,33.39,4.69l.15.34v4.55l-1,14.29c-2.07,12.83-.15,28.93-7.99,39.93-8.51,11.95-24.75,14.68-38.5,12.75-.03.22.27.17.43.21,2.18.56,4.39.92,6.57,1.54,11.93,3.37,26.28,11.22,22.56,26.04-2.16,8.6-11.59,17.85-18.91,22.46-20.25,12.77-32.37-5.02-39.05-22.06-.96-2.46-1.88-6.37-3.01-8.5-.49-.92-.91.67-1.11,1.18-4.36,11.18-9.44,27.16-21.6,32.29-12.71,5.36-27.46-6.59-34.51-16.35-12.15-16.8-.68-29.4,16.01-34.43l9.21-2.38-6.6.57h-3.71c-16.13-.6-30.46-8.92-33.43-25.71-.85-4.81-1.27-10.14-1.75-15.03-.82-8.44-1.53-16.97-2-25.44-.05-.96.21-2.06-.28-2.92v-2.13Z"/>
    </g>
  </g>
</svg>