<?xml version="1.0" encoding="UTF-8"?>
<svg id="Layer_2" data-name="Layer 2" xmlns="http://www.w3.org/2000/svg" viewBox="0 0 170 170">
  <defs>
    <style>
      .cls-1 {
        fill: none;
      }
    </style>
  </defs>
  <g id="Layer_1-2" data-name="Layer 1">
    <g>
      <rect class="cls-1" width="170" height="170"/>
      <path d="M114.49,107.21l3.13-21.7h-20.86c.19-4.63-.26-9.47,0-14.08s1.86-9.1,6.62-10.91c.6-.23,2.98-.88,3.5-.88h11.79v-18.57c-2.53-.3-5.07-.8-7.62-1.04-13.09-1.24-26.85-.35-33.94,12.38-5.64,10.13-3.2,22-3.72,33.1h-19.19v21.7h18.88l.31.31v52.47c-33-5-59.32-32.25-63.19-65.43C2.73,30.46,73.83-13.12,127.49,23.17c53.03,35.87,39.21,118.2-22.39,135.05-1.93.53-6.08,1.71-7.92,1.69-.24,0-.27-.01-.43-.23v-52.16l.31-.31h17.42Z"/>
    </g>
  </g>
</svg>