<?xml version="1.0" encoding="UTF-8"?>
<svg id="Layer_2" data-name="Layer 2" xmlns="http://www.w3.org/2000/svg" viewBox="0 0 170 170">
  <defs>
    <style>
      .cls-1 {
        fill: none;
      }
    </style>
  </defs>
  <g id="Layer_1-2" data-name="Layer 1">
    <g>
      <rect class="cls-1" width="170" height="170"/>
      <g>
        <path d="M45.18,10.09l78.73-.09c19.54,1.01,34.85,16.07,36.09,35.61v78.79c-1.17,19.22-16.33,34.45-35.6,35.6H45.61c-19.21-1.17-34.45-16.34-35.6-35.6V45.85c1.07-19.19,15.94-34.45,35.16-35.77ZM139.37,138.87c4.06-4.25,6.26-9.61,6.7-15.48V47.12c-.71-13.04-10.12-22.46-23.17-23.18H46.62c-12.63.83-22.15,10.54-22.69,23.18v76.02c.63,12.53,10.18,22.12,22.69,22.93h76.27c6.17-.28,12.2-2.73,16.47-7.2Z"/>
        <path d="M82.67,47.58c30.04-1.96,50.05,31.11,34.36,56.91-13.96,22.96-47.16,24.12-62.64,2.13-16.92-24.04-.85-57.14,28.28-59.04ZM83.69,61.52c-21.09,1.23-29.98,27.58-13.76,41.48,13.95,11.96,35.7,3.33,38.36-14.61,2.15-14.55-9.95-27.73-24.6-26.88Z"/>
        <path d="M125.99,35.92c9.71-1.4,11,12.83,2.19,13.84-9.49,1.09-10.68-12.61-2.19-13.84Z"/>
      </g>
    </g>
  </g>
</svg>