<?xml version="1.0" encoding="UTF-8"?>
<svg id="Layer_2" data-name="Layer 2" xmlns="http://www.w3.org/2000/svg" viewBox="0 0 170 170">
  <defs>
    <style>
      .cls-1 {
        fill: #fff;
      }

      .cls-2 {
        fill: none;
      }
    </style>
  </defs>
  <g id="Layer_1-2" data-name="Layer 1">
    <g>
      <rect class="cls-2" width="170" height="170"/>
      <g>
        <path class="cls-1" d="M150.57,19.16c-5.46-5.39-12.11-7.98-19.77-8.53-28.79.36-58.33-1.34-87.07-.27-18.83.7-31.47,9.39-33.11,29.08.32,28.63-1.3,57.98-.27,86.56.68,18.96,9.16,31.71,29.08,33.36,28.77-.39,58.36,1.39,87.07.27,18.78-.73,31.21-9.53,32.85-29.08-.34-28.71,1.32-58.16.27-86.81-.36-9.69-1.99-17.6-9.05-24.58Z"/>
        <path d="M150.57,19.16c7.07,6.98,8.7,14.89,9.05,24.58,1.05,28.66-.61,58.1-.27,86.81-1.64,19.54-14.07,28.34-32.85,29.08-28.71,1.12-58.3-.65-87.07-.27-19.91-1.65-28.39-14.4-29.08-33.36-1.03-28.58.59-57.93.27-86.56,1.63-19.68,14.28-28.37,33.11-29.08,28.73-1.07,58.28.62,87.07.27,7.66.55,14.31,3.14,19.77,8.53ZM49.66,40.4c-13.64,1.32-11.84,22.01,1.7,21.24,14.07-.79,12.73-22.64-1.7-21.24ZM70.28,70.53v59.52l.38.38h17.26l.38-.38v-32.74c0-6.49,6.15-11.25,12.34-11.27,4.92-.01,11.01,3.91,11.01,9.24v34.77l.38.38h17.51l.39-.88c-.64-12.55.81-25.87-.02-38.34-.94-14.15-12.11-23.42-26.23-21.67-6.41.79-12.33,4.47-16.4,9.36v-8.38h-17.01ZM60.12,70.53h-18.53v59.9h17.88c.22.03.65-.24.65-.38v-59.52Z"/>
      </g>
    </g>
  </g>
</svg>