<svg width="21" height="21" viewBox="0 0 21 21" fill="none" xmlns="http://www.w3.org/2000/svg">
<g clip-path="url(#clip0_589_3953)">
<path d="M10.9648 19.9385C15.8691 19.9385 19.9296 15.8779 19.9296 10.9736C19.9296 6.07812 15.8604 2.00879 10.956 2.00879C6.06054 2.00879 2 6.07812 2 10.9736C2 15.8779 6.06933 19.9385 10.9648 19.9385Z" fill="#2E33D1"/>
<path d="M10.9648 11.4483C10.833 11.4483 10.6836 11.3955 10.5517 11.2725L6.08692 7.33496C6.33301 7.18555 6.59668 7.12402 6.97461 7.12402H14.9639C15.3242 7.12402 15.5967 7.19434 15.8516 7.34375L11.3779 11.2725C11.2461 11.3955 11.1055 11.4483 10.9648 11.4483ZM5.69141 14.0938C5.61231 13.918 5.56836 13.7246 5.56836 13.4434V8.50391C5.56836 8.21387 5.62988 7.98535 5.67383 7.88867L8.96973 10.7979L5.69141 14.0938ZM6.84277 14.8233C6.52637 14.8233 6.28027 14.7529 6.1045 14.6387L9.49707 11.2549L10.1387 11.8262C10.3936 12.0547 10.6836 12.169 10.9648 12.169C11.2461 12.169 11.5361 12.0547 11.7998 11.8262L12.4327 11.2549L15.8252 14.6387C15.6494 14.7442 15.4033 14.8233 15.0869 14.8233H6.84277ZM16.2471 14.0938L12.9512 10.7979L16.2558 7.89746C16.2998 7.98535 16.3525 8.21387 16.3525 8.50391V13.4434C16.3525 13.7158 16.3174 13.918 16.2471 14.0938Z" fill="white"/>
</g>
<defs>
<clipPath id="clip0_589_3953">
<rect width="17.9296" height="17.9385" fill="white" transform="translate(2 2)"/>
</clipPath>
</defs>
</svg>
