<svg width="21" height="21" viewBox="0 0 21 21" fill="none" xmlns="http://www.w3.org/2000/svg">
<path d="M9.61218 1.76369C9.40911 1.78566 9.18758 1.81308 9.11988 1.82433C9.05219 1.83575 8.85439 1.87301 8.68033 1.90729C8.50627 1.94139 8.22935 2.00765 8.06496 2.05441C7.90057 2.10116 7.66321 2.17481 7.5375 2.21804C7.41178 2.26128 7.18621 2.34776 7.03641 2.41016C6.88643 2.47256 6.64116 2.58505 6.49136 2.65992C6.34139 2.7348 6.12776 2.84764 6.01665 2.91074C5.90535 2.97367 5.69577 3.10426 5.55072 3.20058C5.40567 3.29708 5.19996 3.44138 5.09359 3.52136C4.98721 3.60133 4.79733 3.75249 4.67162 3.85725C4.5459 3.962 4.30819 4.18242 4.14345 4.34693C3.97853 4.51145 3.75699 4.74786 3.65115 4.87213C3.54513 4.99639 3.40043 5.17445 3.3294 5.2676C3.25837 5.36076 3.12808 5.54373 3.04 5.67433C2.95174 5.80475 2.81336 6.02235 2.73249 6.15769C2.65143 6.29303 2.50744 6.56195 2.41232 6.75529C2.31702 6.94864 2.18797 7.23725 2.12538 7.39684C2.06278 7.55626 1.97171 7.80937 1.92301 7.9593C1.8743 8.10905 1.81101 8.32261 1.78217 8.43387C1.75334 8.54495 1.70903 8.73496 1.68336 8.85571C1.65787 8.97664 1.62165 9.17033 1.60284 9.28634C1.5842 9.40234 1.55607 9.60395 1.54042 9.73454C1.52266 9.88307 1.5086 10.1854 1.50279 10.5431C1.49664 10.9199 1.50068 11.192 1.51457 11.3428C1.526 11.4685 1.55132 11.7017 1.57066 11.8613C1.59 12.0207 1.63659 12.3055 1.67422 12.4941C1.71167 12.6825 1.77409 12.9514 1.81277 13.0917C1.85162 13.2318 1.91527 13.4434 1.9543 13.5619C1.99351 13.6803 2.06806 13.886 2.1201 14.0189C2.17215 14.1517 2.2641 14.3672 2.32458 14.4978C2.38506 14.6282 2.49003 14.8379 2.55772 14.9636C2.62541 15.0893 2.72844 15.2712 2.78646 15.3679C2.84448 15.4645 2.96439 15.6503 3.05266 15.7809C3.14109 15.9113 3.28755 16.1131 3.3781 16.2291C3.46865 16.3451 3.61089 16.5191 3.69405 16.6158C3.77721 16.7125 3.97572 16.922 4.13536 17.0816C4.29483 17.241 4.51637 17.4498 4.62766 17.5453C4.73878 17.6407 4.94062 17.8019 5.076 17.9033C5.21139 18.0047 5.41305 18.1476 5.52435 18.2209C5.63547 18.2942 5.81744 18.4081 5.92873 18.4742C6.03985 18.5405 6.27721 18.6684 6.4562 18.7588C6.63501 18.8491 6.87641 18.9627 6.99245 19.011C7.10849 19.0595 7.30629 19.1363 7.432 19.182C7.56598 19.2305 7.70417 19.2687 7.76606 19.2739C7.8429 19.2804 7.89705 19.2739 7.96544 19.25C8.01696 19.2319 8.08764 19.1934 8.12245 19.1644C8.15709 19.1354 8.20386 19.0722 8.22619 19.0238L8.2668 18.9359L8.26715 17.1519C8.20579 17.164 8.06531 17.185 7.91551 17.2062C7.70206 17.2366 7.55912 17.2452 7.25618 17.2456C6.93496 17.2461 6.83509 17.2398 6.66718 17.2087C6.55589 17.1881 6.40169 17.1507 6.32433 17.1255C6.24697 17.1004 6.12038 17.0477 6.04302 17.0083C5.96566 16.9691 5.86667 16.9127 5.82324 16.883C5.77964 16.8535 5.68399 16.7693 5.61032 16.6961C5.53665 16.623 5.44611 16.5156 5.40901 16.4576C5.37191 16.3996 5.29349 16.2414 5.23477 16.1061C5.17605 15.9708 5.06686 15.7572 4.99196 15.6315C4.91724 15.5059 4.80559 15.3357 4.74405 15.2536C4.68234 15.1714 4.57175 15.0469 4.4979 14.9768C4.42424 14.9067 4.33035 14.8323 4.2892 14.8116C4.24806 14.7908 4.17492 14.7446 4.12657 14.7091C4.07822 14.6736 4.00859 14.6094 3.97185 14.5667C3.9351 14.524 3.90046 14.4694 3.89466 14.4451C3.88904 14.421 3.89132 14.3822 3.89994 14.3588C3.90855 14.3356 3.94723 14.3001 3.98591 14.2797C4.04728 14.2475 4.08631 14.243 4.2936 14.2435C4.47399 14.2437 4.55628 14.2518 4.63645 14.2764C4.69447 14.2943 4.79733 14.3363 4.86502 14.3697C4.93271 14.4029 5.03943 14.4685 5.10238 14.5151C5.16514 14.5616 5.28382 14.6699 5.36611 14.7557C5.44822 14.8415 5.55512 14.9694 5.60347 15.0401C5.65182 15.1107 5.73885 15.2371 5.79687 15.3209C5.85489 15.4048 5.96953 15.541 6.05181 15.6236C6.13392 15.7062 6.26051 15.8108 6.33312 15.856C6.40556 15.9012 6.52424 15.963 6.59685 15.9934C6.66929 16.024 6.78797 16.0637 6.86059 16.082C6.93302 16.1001 7.07157 16.1198 7.16827 16.1256C7.26497 16.1314 7.41917 16.1277 7.51112 16.1173C7.6029 16.1068 7.75323 16.0789 7.84518 16.0551C7.93696 16.0312 8.07744 15.9875 8.15727 15.9579C8.23709 15.9282 8.30214 15.902 8.30214 15.8996C8.30197 15.8971 8.31462 15.8279 8.33027 15.7458C8.34575 15.6635 8.38056 15.5291 8.40728 15.447C8.43418 15.3647 8.48201 15.2461 8.51348 15.1833C8.54513 15.1204 8.60033 15.0255 8.63655 14.9724C8.6726 14.9191 8.7387 14.8342 8.78354 14.7835L8.86494 14.6912C8.79004 14.6785 8.67717 14.6622 8.56605 14.6465C8.45475 14.6309 8.26487 14.5985 8.14408 14.5746C8.02311 14.5507 7.84518 14.5112 7.74848 14.4868C7.65178 14.4623 7.47772 14.4103 7.36168 14.3713C7.24563 14.3321 7.07157 14.2648 6.97487 14.2215C6.87817 14.1783 6.7238 14.1006 6.63202 14.0491C6.54006 13.9974 6.40433 13.9132 6.33013 13.8619C6.25576 13.8104 6.13005 13.713 6.05058 13.6454C5.97111 13.5777 5.83889 13.4471 5.75696 13.3553C5.67503 13.2634 5.55529 13.1093 5.49077 13.0126C5.42624 12.9159 5.33323 12.7577 5.284 12.6611C5.23477 12.5644 5.1662 12.4141 5.13156 12.3271C5.0971 12.2401 5.04436 12.0898 5.01447 11.9931C4.98458 11.8965 4.9371 11.7026 4.90897 11.5625C4.88084 11.4223 4.84392 11.1929 4.82722 11.0528C4.80524 10.8702 4.79645 10.661 4.79592 10.3146C4.79557 9.9307 4.80172 9.79501 4.82616 9.65545C4.84304 9.55878 4.87715 9.40059 4.90194 9.30392C4.92673 9.20724 4.97491 9.05292 5.00937 8.96117C5.04365 8.86924 5.10712 8.723 5.15055 8.636C5.19416 8.549 5.27327 8.41049 5.32672 8.32841C5.38017 8.24615 5.47213 8.11696 5.5312 8.04138C5.59028 7.96563 5.65234 7.88653 5.66922 7.86561C5.69841 7.82923 5.69788 7.82167 5.65762 7.69565C5.63441 7.62323 5.60294 7.50248 5.58747 7.4276C5.57217 7.35273 5.55054 7.21035 5.53964 7.11122C5.52804 7.00629 5.52417 6.82472 5.53015 6.6762C5.53595 6.53594 5.55301 6.34611 5.5683 6.25436C5.58377 6.16243 5.6112 6.02815 5.62966 5.95555C5.64812 5.88314 5.69155 5.74059 5.72619 5.63917C5.76083 5.53758 5.7988 5.44882 5.81058 5.44179C5.82236 5.43458 5.90324 5.4286 5.99027 5.42843C6.0773 5.42808 6.21972 5.44021 6.30675 5.45532C6.39378 5.47061 6.57576 5.51912 6.71114 5.56342C6.84652 5.60771 7.05223 5.68733 7.16827 5.74024C7.28431 5.79332 7.46629 5.88419 7.57266 5.94255C7.67903 6.0009 7.87876 6.11867 8.01661 6.20426L8.26715 6.35982C8.66908 6.26578 8.89255 6.21885 9.02318 6.19477C9.15364 6.17087 9.36726 6.1387 9.4979 6.12359C9.62836 6.10847 9.86976 6.0872 10.0342 6.07631C10.2043 6.06506 10.4996 6.06084 10.7199 6.06664C10.9326 6.07209 11.2292 6.08949 11.3792 6.10496C11.529 6.1206 11.7466 6.14907 11.8627 6.16841C11.9787 6.18774 12.1331 6.21534 12.2055 6.22993C12.278 6.24451 12.4343 6.27967 12.5528 6.30814L12.7682 6.35982C13.0611 6.17227 13.2174 6.07683 13.3044 6.02656C13.3915 5.97629 13.5813 5.87734 13.7264 5.8065C13.8714 5.73567 14.0455 5.65622 14.1132 5.62986C14.1809 5.60349 14.3113 5.5592 14.4033 5.53125C14.4951 5.50348 14.6375 5.46886 14.7198 5.45427C14.8019 5.43985 14.9503 5.4279 15.0494 5.42808C15.2172 5.42825 15.2314 5.43107 15.2545 5.4678C15.2682 5.4896 15.3068 5.59435 15.3403 5.70069C15.3738 5.80703 15.4174 5.96909 15.4371 6.06101C15.457 6.15276 15.4827 6.30709 15.4946 6.40376C15.5085 6.51801 15.5124 6.69342 15.5059 6.9047C15.4987 7.13143 15.4848 7.28049 15.4598 7.39684C15.4401 7.48859 15.4041 7.62112 15.3796 7.69125L15.3352 7.81868C15.5092 8.02978 15.613 8.17022 15.6778 8.26689C15.7429 8.36356 15.8459 8.54548 15.9069 8.67115C15.9679 8.79683 16.0423 8.9747 16.0724 9.06663C16.1024 9.15838 16.1462 9.32061 16.1698 9.42695C16.1933 9.53329 16.222 9.69148 16.2334 9.77849C16.2449 9.86549 16.254 10.1107 16.2536 10.3234C16.2535 10.5527 16.2419 10.8173 16.2252 10.9737C16.2097 11.1187 16.1816 11.3244 16.1624 11.4307C16.1434 11.537 16.1044 11.7149 16.0761 11.8262C16.0476 11.9373 15.9952 12.1074 15.9598 12.2041C15.9243 12.3007 15.8493 12.4748 15.7928 12.5908C15.7364 12.7068 15.6488 12.865 15.5982 12.9423C15.5475 13.0196 15.47 13.1304 15.4259 13.1884C15.3819 13.2464 15.2861 13.3559 15.213 13.4318C15.14 13.5077 15.021 13.6193 14.9483 13.68C14.8759 13.7406 14.7374 13.8419 14.6407 13.9051C14.544 13.9682 14.4056 14.0521 14.333 14.0911C14.2605 14.1303 14.1179 14.1971 14.0165 14.2398C13.9149 14.2823 13.7331 14.3493 13.6121 14.3885C13.4913 14.4279 13.2895 14.4839 13.1638 14.5133C13.0381 14.5426 12.8441 14.5824 12.733 14.6017C12.6217 14.6209 12.4675 14.6453 12.3902 14.6557C12.3128 14.6662 12.2317 14.6783 12.2099 14.6829C12.1725 14.6906 12.1748 14.6961 12.2525 14.7835C12.2975 14.8342 12.3727 14.9351 12.4195 15.0076C12.4663 15.0801 12.5278 15.1947 12.556 15.2624C12.5843 15.3301 12.627 15.4526 12.6511 15.5349C12.675 15.6169 12.7089 15.7713 12.7261 15.8776C12.7546 16.0521 12.7578 16.2123 12.7585 17.521L12.7594 18.9711C12.8183 19.0801 12.8578 19.1326 12.8853 19.1581C12.9127 19.1836 12.9688 19.2212 13.0099 19.2416C13.0628 19.2678 13.1181 19.2787 13.1989 19.2787C13.2926 19.2787 13.3566 19.2627 13.555 19.1898C13.6879 19.1409 13.9075 19.053 14.0429 18.9947C14.1783 18.9363 14.388 18.8391 14.5088 18.7788C14.6298 18.7185 14.8235 18.6153 14.9396 18.5498C15.0556 18.484 15.2652 18.3554 15.4055 18.2636C15.5456 18.1719 15.7513 18.0286 15.8626 17.9453C15.9737 17.862 16.1598 17.7151 16.2758 17.6189C16.3918 17.5226 16.632 17.3011 16.8094 17.1266C16.9868 16.9521 17.2124 16.7151 17.3105 16.6004C17.4086 16.4854 17.5707 16.2836 17.6708 16.1521C17.7708 16.0205 17.9181 15.814 17.9981 15.693C18.0781 15.5723 18.2082 15.3626 18.2874 15.2273C18.3665 15.0919 18.4936 14.8546 18.5701 14.7C18.6464 14.5453 18.7616 14.2922 18.8256 14.1375C18.8897 13.9828 18.9884 13.718 19.0446 13.5487C19.1009 13.3796 19.1832 13.0947 19.2277 12.9159C19.2721 12.737 19.3286 12.48 19.3532 12.3447C19.3778 12.2093 19.4126 11.98 19.4307 11.835C19.4487 11.69 19.4731 11.4606 19.4851 11.3252C19.4991 11.1667 19.5033 10.9227 19.4974 10.6397C19.4921 10.3981 19.4756 10.0738 19.4606 9.9191C19.4457 9.76442 19.4207 9.55087 19.4051 9.44453C19.3894 9.33819 19.3578 9.14836 19.3346 9.02269C19.3115 8.89701 19.2598 8.6636 19.2199 8.50418C19.1798 8.34458 19.0974 8.06388 19.0364 7.8802C18.9752 7.69653 18.8725 7.41969 18.8078 7.26502C18.7433 7.11034 18.636 6.87306 18.5696 6.73772C18.5031 6.60238 18.3923 6.39286 18.3234 6.27193C18.2547 6.15118 18.101 5.90581 17.9821 5.72706C17.8633 5.54813 17.6948 5.31084 17.608 5.19976C17.521 5.0885 17.3627 4.89884 17.2562 4.77792C17.1496 4.65716 16.933 4.4313 16.7746 4.27628C16.6164 4.12107 16.3957 3.91877 16.2846 3.82649C16.1733 3.73421 15.9954 3.59307 15.889 3.51292C15.7826 3.43259 15.5729 3.28636 15.4231 3.18775C15.2731 3.08915 15.0595 2.95662 14.9483 2.89334C14.8371 2.83007 14.6473 2.729 14.5264 2.66854C14.4056 2.60825 14.1721 2.50138 14.0077 2.43125C13.8433 2.36129 13.6019 2.26673 13.4715 2.22138C13.3408 2.17604 13.0996 2.10081 12.9352 2.05423C12.7708 2.00748 12.4939 1.94139 12.3198 1.90711C12.1458 1.87284 11.9242 1.83241 11.8275 1.81747C11.7308 1.80236 11.4935 1.77406 11.3001 1.75472C11.0328 1.72801 10.8324 1.71992 10.4649 1.7215C10.0924 1.72308 9.89666 1.73275 9.61218 1.76369Z" fill="#2E33D1"/>
</svg>
