<svg width="21" height="21" viewBox="0 0 21 21" fill="none" xmlns="http://www.w3.org/2000/svg">
<g clip-path="url(#clip0_589_3952)">
<path d="M10.9648 19.4375C13.4082 19.4375 15.4033 15.8252 15.4033 10.9824C15.4033 6.11328 13.417 2.50098 10.9648 2.50098C8.51269 2.50098 6.52637 6.11328 6.52637 10.9824C6.52637 15.8252 8.52148 19.4375 10.9648 19.4375ZM10.9648 3.56445C12.6875 3.56445 14.2256 6.99219 14.2256 10.9824C14.2256 14.9023 12.6875 18.3652 10.9648 18.3652C9.24219 18.3652 7.7041 14.9023 7.7041 10.9824C7.7041 6.99219 9.24219 3.56445 10.9648 3.56445ZM10.3935 2.62402V19.2705H11.5449V2.62402H10.3935ZM10.9648 14.2695C8.25781 14.2695 5.8584 14.9814 4.62793 16.1152L5.51562 16.8447C6.67578 15.9219 8.56543 15.4209 10.9648 15.4209C13.3642 15.4209 15.2539 15.9219 16.4141 16.8447L17.3017 16.1152C16.0713 14.9814 13.6719 14.2695 10.9648 14.2695ZM19.0771 10.3848H2.85254V11.5361H19.0771V10.3848ZM10.9648 7.7041C13.6719 7.7041 16.0713 6.99219 17.3017 5.8584L16.4141 5.12891C15.2539 6.04296 13.3642 6.55273 10.9648 6.55273C8.56543 6.55273 6.67578 6.04296 5.51562 5.12891L4.62793 5.8584C5.8584 6.99219 8.25781 7.7041 10.9648 7.7041ZM10.9648 19.9296C15.8691 19.9296 19.9296 15.8604 19.9296 10.9648C19.9296 6.06054 15.8604 2 10.956 2C6.06054 2 2 6.06054 2 10.9648C2 15.8604 6.06933 19.9296 10.9648 19.9296ZM10.9648 18.7344C6.71973 18.7344 3.19531 15.21 3.19531 10.9648C3.19531 6.71973 6.71094 3.19531 10.956 3.19531C15.2012 3.19531 18.7344 6.71973 18.7344 10.9648C18.7344 15.21 15.21 18.7344 10.9648 18.7344Z" fill="#2E33D1"/>
</g>
<defs>
<clipPath id="clip0_589_3952">
<rect width="17.9296" height="17.9385" fill="white" transform="translate(2 2)"/>
</clipPath>
</defs>
</svg>
